<?xml version="1.0" encoding="utf-8"?>
<!-- Generator: Adobe Illustrator 15.1.0, SVG Export Plug-In . SVG Version: 6.00 Build 0)  -->
<!DOCTYPE svg PUBLIC "-//W3C//DTD SVG 1.1//EN" "http://www.w3.org/Graphics/SVG/1.1/DTD/svg11.dtd">
<svg version="1.1" id="Layer_1" xmlns="http://www.w3.org/2000/svg" xmlns:xlink="http://www.w3.org/1999/xlink" x="0px" y="0px"
	 width="262.356px" height="27.636px" viewBox="0 0 262.356 27.636" enable-background="new 0 0 262.356 27.636"
	 xml:space="preserve">
<path fill="#010101" d="M52.125,0H44.12v1.954h8.005V0z M36.115,0h-8.006v1.954h8.006V0z M20.104,0H12.1v1.954h8.005V0z M4.095,0
	H0.001v1.953v1.958h1.953V1.953h2.141V0z M1.954,11.916H0v8.005h1.954V11.916z M9.434,24.544H1.429v1.953h8.005V24.544z
	 M25.443,24.544h-8.005v1.953h8.005V24.544z M41.454,24.544h-8.005v1.953h8.005V24.544z M52.125,21.159h-1.954v3.385h-0.712v1.953
	h2.666V21.159z M52.125,5.148h-1.954v8.005h1.954V5.148z"/>
<path fill="#010101" d="M107.483,0h-7.818v1.954h7.818V0z M91.847,0h-7.818v1.954h7.818V0z M76.21,0h-5.212v1.953v0.654h1.953V1.953
	h3.259V0z M72.951,10.426h-1.953v7.817h1.953V10.426z M78.382,24.544h-7.384v1.519v-1.519v1.519v0.435h1.953h5.431V24.544z
	 M94.019,24.544h-7.817v1.953h7.817V24.544z M109.656,24.544h-7.818v1.953h7.818V24.544z M123.121,24.325h-1.953v0.219h-3.693v1.953
	h5.646V24.325z M123.121,8.688h-1.953v7.818h1.953V8.688z M123.121,0h-7.818v1.954h7.818V0z"/>
<path fill="#010101" d="M176.353,0h-7.817v1.954h7.817V0z M160.716,0h-7.819v1.954h7.819V0z M145.078,0h-5.211v1.953v0.654h1.953
	V1.953h3.258V0z M141.82,10.426h-1.953v7.817h1.953V10.426z M147.25,24.544h-7.383v1.519v-1.519v1.519v0.435h1.953h5.43V24.544z
	 M162.887,24.544h-7.818v1.953h7.818V24.544z M178.524,24.544h-7.817v1.953h7.817V24.544z M191.99,24.325h-1.954v0.219h-3.692v1.953
	h5.646V24.325z M191.99,8.688h-1.954v7.818h1.954V8.688z M191.99,0h-7.819v1.954h7.819V0z"/>
<text transform="matrix(1 0 0 1 15.9795 16.7549)"><tspan x="0" y="0" fill="#010101" font-family="'MyriadPro-Regular'" font-size="10.4248">w</tspan><tspan x="7.568" y="0" fill="#010101" font-family="'MyriadPro-Regular'" font-size="10.4248">o</tspan><tspan x="13.292" y="0" fill="#010101" font-family="'MyriadPro-Regular'" font-size="10.4248">r</tspan><tspan x="16.731" y="0" fill="#010101" font-family="'MyriadPro-Regular'" font-size="10.4248">k</tspan></text>
<text transform="matrix(1 0 0 1 145.0596 16.7549)"><tspan x="0" y="0" fill="#010101" font-family="'MyriadPro-Regular'" font-size="10.4248">r</tspan><tspan x="3.305" y="0" fill="#010101" font-family="'MyriadPro-Regular'" font-size="10.4248">esou</tspan><tspan x="24.123" y="0" fill="#010101" font-family="'MyriadPro-Regular'" font-size="10.4248">r</tspan><tspan x="27.428" y="0" fill="#010101" font-family="'MyriadPro-Regular'" font-size="10.4248">c</tspan><tspan x="32.035" y="0" fill="#010101" font-family="'MyriadPro-Regular'" font-size="10.4248">es</tspan></text>
<text transform="matrix(1 0 0 1 89.2344 16.7236)" fill="#010101" font-family="'MyriadPro-Regular'" font-size="10.4248">t v</text>
<path fill="#010101" d="M246.719,1.138h-7.819v1.954h7.819V1.138z M231.082,1.138h-7.818v1.954h7.818V1.138z M215.444,1.138h-5.211
	v1.954v0.654h1.954V3.092h3.257V1.138z M212.188,11.564h-1.954v7.818h1.954V11.564z M217.618,25.683h-7.385v1.52v-1.52v1.52v0.434
	h1.954h5.431V25.683z M233.256,25.683h-7.818v1.953h7.818V25.683z M248.893,25.683h-7.817v1.953h7.817V25.683z M262.356,25.463
	h-1.953v0.22h-3.691v1.953h5.645V25.463z M262.356,9.825h-1.953v7.818h1.953V9.825z M262.356,1.138h-7.817v1.954h7.817V1.138z"/>
<text transform="matrix(1 0 0 1 223.0146 16.7236)" fill="#010101" font-family="'MyriadPro-Regular'" font-size="10.4248">about</text>
</svg>
