<?xml version="1.0" standalone="no"?>
<!DOCTYPE svg PUBLIC "-//W3C//DTD SVG 1.1//EN" "http://www.w3.org/Graphics/SVG/1.1/DTD/svg11.dtd" >
<svg>
<defs>
<font id="Now Bold" horiz-adv-x="250" >
<font-face units-per-em="100" ascent="80" descent="-20" />
<glyph unicode=" " horiz-adv-x="30" d="" />
<glyph unicode="!" horiz-adv-x="35.375" d="M11.625000000000000 26.000000000000000 C14.625000000000000 26.000000000000000 20.625000000000000 26.000000000000000 23.625000000000000 26.000000000000000 C24.125000000000000 38.718750000000000 25.125000000000000 64.156250000000000 25.625000000000000 76.875000000000000 C21.656250000000000 76.875000000000000 13.718750000000000 76.875000000000000 9.750000000000000 76.875000000000000 C10.218750000000000 64.156250000000000 11.156250000000000 38.718750000000000 11.625000000000000 26.000000000000000 zM17.625000000000000 -1.000000000000000 C22.625000000000000 -1.000000000000000 26.500000000000000 3.000000000000000 26.500000000000000 7.750000000000000 C26.500000000000000 12.625000000000000 22.625000000000000 16.625000000000000 17.625000000000000 16.625000000000000 C12.875000000000000 16.625000000000000 8.875000000000000 12.625000000000000 8.875000000000000 7.750000000000000 C8.875000000000000 3.000000000000000 12.875000000000000 -1.000000000000000 17.625000000000000 -1.000000000000000 z" />
<glyph unicode="&#x22;" horiz-adv-x="54.375" d="M10.875000000000000 42.000000000000000 C13.625000000000000 42.000000000000000 19.125000000000000 42.000000000000000 21.875000000000000 42.000000000000000 C22.375000000000000 50.500000000000000 23.375000000000000 67.500000000000000 23.875000000000000 76.000000000000000 C20.125000000000000 76.000000000000000 12.625000000000000 76.000000000000000 8.875000000000000 76.000000000000000 C9.375000000000000 67.500000000000000 10.375000000000000 50.500000000000000 10.875000000000000 42.000000000000000 zM32.625000000000000 42.000000000000000 C35.375000000000000 42.000000000000000 40.875000000000000 42.000000000000000 43.625000000000000 42.000000000000000 C44.093750000000000 50.500000000000000 45.031250000000000 67.500000000000000 45.500000000000000 76.000000000000000 C41.781250000000000 76.000000000000000 34.343750000000000 76.000000000000000 30.625000000000000 76.000000000000000 C31.125000000000000 67.500000000000000 32.125000000000000 50.500000000000000 32.625000000000000 42.000000000000000 z" />
<glyph unicode="#" horiz-adv-x="85.75" d="M18.375000000000000 0.000000000000000 C21.156250000000000 0.000000000000000 26.718750000000000 0.000000000000000 29.500000000000000 0.000000000000000 C30.031250000000000 4.062500000000000 31.093750000000000 12.187500000000000 31.625000000000000 16.250000000000000 C35.750000000000000 16.250000000000000 44.000000000000000 16.250000000000000 48.125000000000000 16.250000000000000 C47.562500000000000 12.187500000000000 46.437500000000000 4.062500000000000 45.875000000000000 0.000000000000000 C48.656250000000000 0.000000000000000 54.218750000000000 0.000000000000000 57.000000000000000 0.000000000000000 C57.593750000000000 4.062500000000000 58.781250000000000 12.187500000000000 59.375000000000000 16.250000000000000 C62.875000000000000 16.250000000000000 69.875000000000000 16.250000000000000 73.375000000000000 16.250000000000000 C73.750000000000000 19.031250000000000 74.500000000000000 24.593750000000000 74.875000000000000 27.375000000000000 C71.375000000000000 27.375000000000000 64.375000000000000 27.375000000000000 60.875000000000000 27.375000000000000 C61.531250000000000 31.968750000000000 62.843750000000000 41.156250000000000 63.500000000000000 45.750000000000000 C67.000000000000000 45.750000000000000 74.000000000000000 45.750000000000000 77.500000000000000 45.750000000000000 C77.937500000000000 48.500000000000000 78.812500000000000 54.000000000000000 79.250000000000000 56.750000000000000 C75.687500000000000 56.750000000000000 68.562500000000000 56.750000000000000 65.000000000000000 56.750000000000000 C65.593750000000000 60.906250000000000 66.781250000000000 69.218750000000000 67.375000000000000 73.375000000000000 C64.593750000000000 73.375000000000000 59.031250000000000 73.375000000000000 56.250000000000000 73.375000000000000 C55.656250000000000 69.218750000000000 54.468750000000000 60.906250000000000 53.875000000000000 56.750000000000000 C49.812500000000000 56.750000000000000 41.687500000000000 56.750000000000000 37.625000000000000 56.750000000000000 C38.187500000000000 60.906250000000000 39.312500000000000 69.218750000000000 39.875000000000000 73.375000000000000 C37.093750000000000 73.375000000000000 31.531250000000000 73.375000000000000 28.750000000000000 73.375000000000000 C28.156250000000000 69.218750000000000 26.968750000000000 60.906250000000000 26.375000000000000 56.750000000000000 C22.906250000000000 56.750000000000000 15.968750000000000 56.750000000000000 12.500000000000000 56.750000000000000 C12.031250000000000 54.000000000000000 11.093750000000000 48.500000000000000 10.625000000000000 45.750000000000000 C14.187500000000000 45.750000000000000 21.312500000000000 45.750000000000000 24.875000000000000 45.750000000000000 C24.187500000000000 41.156250000000000 22.812500000000000 31.968750000000000 22.125000000000000 27.375000000000000 C18.593750000000000 27.375000000000000 11.531250000000000 27.375000000000000 8.000000000000000 27.375000000000000 C7.625000000000000 24.593750000000000 6.875000000000000 19.031250000000000 6.500000000000000 16.250000000000000 C10.031250000000000 16.250000000000000 17.093750000000000 16.250000000000000 20.625000000000000 16.250000000000000 C20.062500000000000 12.187500000000000 18.937500000000000 4.062500000000000 18.375000000000000 0.000000000000000 zM33.375000000000000 27.375000000000000 C34.000000000000000 31.968750000000000 35.250000000000000 41.156250000000000 35.875000000000000 45.750000000000000 C40.000000000000000 45.750000000000000 48.250000000000000 45.750000000000000 52.375000000000000 45.750000000000000 C51.687500000000000 41.156250000000000 50.312500000000000 31.968750000000000 49.625000000000000 27.375000000000000 C45.562500000000000 27.375000000000000 37.437500000000000 27.375000000000000 33.375000000000000 27.375000000000000 z" />
<glyph unicode="$" horiz-adv-x="59.25" d="M56.375000000000000 21.250000000000000 C56.375000000000000 49.000000000000000 21.875000000000000 42.125000000000000 21.875000000000000 55.125000000000000 C21.875000000000000 59.375000000000000 25.125000000000000 61.375000000000000 29.125000000000000 61.375000000000000 C33.375000000000000 61.375000000000000 37.625000000000000 59.000000000000000 41.375000000000000 54.875000000000000 C45.041666666666686 58.375000000000000 49.625000000000000 62.750000000000000 52.375000000000000 65.375000000000000 C48.375000000000000 70.000000000000000 43.000000000000000 73.375000000000000 36.875000000000000 75.000000000000000 C36.875000000000000 77.666666666666686 36.875000000000000 81.000000000000000 36.875000000000000 83.000000000000000 C33.343750000000000 83.000000000000000 26.281250000000000 83.000000000000000 22.750000000000000 83.000000000000000 C22.750000000000000 81.062500000000000 22.750000000000000 77.187500000000000 22.750000000000000 75.250000000000000 C13.375000000000000 73.125000000000000 5.250000000000000 66.125000000000000 5.250000000000000 53.875000000000000 C5.250000000000000 28.375000000000000 39.875000000000000 34.500000000000000 39.875000000000000 21.375000000000000 C39.875000000000000 17.250000000000000 36.375000000000000 14.500000000000000 30.625000000000000 14.500000000000000 C23.750000000000000 14.500000000000000 18.375000000000000 18.375000000000000 15.625000000000000 24.250000000000000 C11.083333333333314 21.416666666666686 5.406250000000000 17.875000000000000 2.000000000000000 15.750000000000000 C5.875000000000000 8.250000000000000 13.250000000000000 2.125000000000000 22.750000000000000 -0.125000000000000 C22.750000000000000 -2.750000000000000 22.750000000000000 -6.031250000000000 22.750000000000000 -8.000000000000000 C26.281250000000000 -8.000000000000000 33.343750000000000 -8.000000000000000 36.875000000000000 -8.000000000000000 C36.875000000000000 -6.093750000000000 36.875000000000000 -2.281250000000000 36.875000000000000 -0.375000000000000 C47.875000000000000 1.750000000000000 56.375000000000000 9.500000000000000 56.375000000000000 21.250000000000000 z" />
<glyph unicode="%" horiz-adv-x="86.375" d="M21.750000000000000 39.125000000000000 C30.750000000000000 39.125000000000000 38.000000000000000 47.375000000000000 38.000000000000000 57.500000000000000 C38.000000000000000 67.750000000000000 30.750000000000000 76.000000000000000 21.750000000000000 76.000000000000000 C12.625000000000000 76.000000000000000 5.250000000000000 67.750000000000000 5.250000000000000 57.500000000000000 C5.250000000000000 47.375000000000000 12.625000000000000 39.125000000000000 21.750000000000000 39.125000000000000 zM9.750000000000000 0.000000000000000 C13.843750000000000 0.000000000000000 22.031250000000000 0.000000000000000 26.125000000000000 0.000000000000000 C38.718750000000000 18.750000000000000 63.906250000000000 56.250000000000000 76.500000000000000 75.000000000000000 C72.375000000000000 75.000000000000000 64.125000000000000 75.000000000000000 60.000000000000000 75.000000000000000 C47.437500000000000 56.250000000000000 22.312500000000000 18.750000000000000 9.750000000000000 0.000000000000000 zM21.750000000000000 51.000000000000000 C19.375000000000000 51.000000000000000 17.250000000000000 53.875000000000000 17.250000000000000 57.500000000000000 C17.250000000000000 61.250000000000000 19.375000000000000 64.125000000000000 21.750000000000000 64.125000000000000 C23.875000000000000 64.125000000000000 26.125000000000000 61.250000000000000 26.125000000000000 57.500000000000000 C26.125000000000000 53.875000000000000 23.875000000000000 51.000000000000000 21.750000000000000 51.000000000000000 zM64.625000000000000 -1.000000000000000 C73.750000000000000 -1.000000000000000 81.000000000000000 7.250000000000000 81.000000000000000 17.500000000000000 C81.000000000000000 27.625000000000000 73.750000000000000 35.875000000000000 64.625000000000000 35.875000000000000 C55.500000000000000 35.875000000000000 48.250000000000000 27.625000000000000 48.250000000000000 17.500000000000000 C48.250000000000000 7.250000000000000 55.500000000000000 -1.000000000000000 64.625000000000000 -1.000000000000000 zM64.625000000000000 10.875000000000000 C62.375000000000000 10.875000000000000 60.250000000000000 13.750000000000000 60.250000000000000 17.500000000000000 C60.250000000000000 21.125000000000000 62.375000000000000 24.000000000000000 64.625000000000000 24.000000000000000 C66.875000000000000 24.000000000000000 69.125000000000000 21.125000000000000 69.125000000000000 17.500000000000000 C69.125000000000000 13.750000000000000 66.875000000000000 10.875000000000000 64.625000000000000 10.875000000000000 z" />
<glyph unicode="&#x26;" horiz-adv-x="72.5" d="M69.750000000000000 43.625000000000000 C67.718750000000000 43.625000000000000 63.656250000000000 43.625000000000000 61.625000000000000 43.625000000000000 C61.625000000000000 46.312500000000000 61.625000000000000 51.687500000000000 61.625000000000000 54.375000000000000 C57.625000000000000 54.375000000000000 49.625000000000000 54.375000000000000 45.625000000000000 54.375000000000000 C45.625000000000000 51.687500000000000 45.625000000000000 46.312500000000000 45.625000000000000 43.625000000000000 C43.093750000000000 43.625000000000000 38.031250000000000 43.625000000000000 35.500000000000000 43.625000000000000 C29.750000000000000 43.625000000000000 25.125000000000000 47.750000000000000 25.125000000000000 53.000000000000000 C25.125000000000000 57.750000000000000 29.000000000000000 60.625000000000000 32.875000000000000 60.875000000000000 C37.125000000000000 60.875000000000000 42.437500000000000 60.875000000000000 45.625000000000000 60.875000000000000 C45.625000000000000 64.375000000000000 45.625000000000000 71.375000000000000 45.625000000000000 74.875000000000000 C41.687500000000000 74.875000000000000 33.812500000000000 74.875000000000000 29.875000000000000 74.875000000000000 C18.000000000000000 75.750000000000000 9.125000000000000 66.125000000000000 9.125000000000000 54.125000000000000 C9.125000000000000 47.500000000000000 11.875000000000000 41.625000000000000 16.500000000000000 37.375000000000000 C12.000000000000000 33.375000000000000 9.250000000000000 27.875000000000000 9.250000000000000 21.625000000000000 C9.250000000000000 9.000000000000000 20.750000000000000 -0.125000000000000 35.375000000000000 -0.125000000000000 C50.750000000000000 -0.125000000000000 61.625000000000000 10.000000000000000 61.625000000000000 23.750000000000000 C61.625000000000000 25.958333333333314 61.625000000000000 28.718750000000000 61.625000000000000 30.375000000000000 C63.656250000000000 30.375000000000000 67.718750000000000 30.375000000000000 69.750000000000000 30.375000000000000 C69.750000000000000 33.687500000000000 69.750000000000000 40.312500000000000 69.750000000000000 43.625000000000000 zM35.125000000000000 13.875000000000000 C29.375000000000000 13.875000000000000 24.250000000000000 17.000000000000000 24.250000000000000 21.875000000000000 C24.250000000000000 26.250000000000000 28.375000000000000 30.375000000000000 33.500000000000000 30.375000000000000 C37.541666666666686 30.375000000000000 42.593750000000000 30.375000000000000 45.625000000000000 30.375000000000000 C45.625000000000000 28.718750000000000 45.625000000000000 25.406250000000000 45.625000000000000 23.750000000000000 C45.625000000000000 18.000000000000000 41.750000000000000 13.875000000000000 35.125000000000000 13.875000000000000 z" />
<glyph unicode="'" horiz-adv-x="32.75" d="M10.875000000000000 46.000000000000000 C13.625000000000000 46.000000000000000 19.125000000000000 46.000000000000000 21.875000000000000 46.000000000000000 C22.375000000000000 53.500000000000000 23.375000000000000 68.500000000000000 23.875000000000000 76.000000000000000 C20.125000000000000 76.000000000000000 12.625000000000000 76.000000000000000 8.875000000000000 76.000000000000000 C9.375000000000000 68.500000000000000 10.375000000000000 53.500000000000000 10.875000000000000 46.000000000000000 z" />
<glyph unicode="(" horiz-adv-x="43.25" d="M37.875000000000000 -29.625000000000000 C37.875000000000000 -26.781250000000000 37.875000000000000 -21.093750000000000 37.875000000000000 -18.250000000000000 C28.375000000000000 -18.125000000000057 20.875000000000000 -6.500000000000000 20.875000000000000 29.250000000000000 C20.875000000000000 65.250000000000000 28.375000000000000 77.125000000000000 37.875000000000000 77.125000000000000 C37.875000000000000 80.916666666666686 37.875000000000000 85.656250000000000 37.875000000000000 88.500000000000000 C20.500000000000000 88.500000000000000 6.875000000000000 73.375000000000000 6.875000000000000 29.250000000000000 C6.875000000000000 -14.625000000000000 20.500000000000000 -29.625000000000000 37.875000000000000 -29.625000000000000 z" />
<glyph unicode=")" horiz-adv-x="43.25" d="M5.375000000000000 -29.625000000000000 C22.750000000000000 -29.625000000000000 36.250000000000000 -14.625000000000000 36.250000000000000 29.250000000000000 C36.250000000000000 73.375000000000000 22.750000000000000 88.500000000000000 5.375000000000000 88.500000000000000 C5.375000000000000 84.708333333333314 5.375000000000000 79.968750000000000 5.375000000000000 77.125000000000000 C14.875000000000000 77.125000000000000 22.375000000000000 65.250000000000000 22.375000000000000 29.250000000000000 C22.375000000000000 -6.500000000000000 14.875000000000000 -18.125000000000057 5.375000000000000 -18.250000000000000 C5.375000000000000 -22.041666666666686 5.375000000000000 -26.781250000000000 5.375000000000000 -29.625000000000000 z" />
<glyph unicode="*" horiz-adv-x="38.375" d="M15.375000000000000 47.375000000000000 C16.312500000000000 49.656250000000000 18.187500000000000 54.218750000000000 19.125000000000000 56.500000000000000 C20.093750000000000 54.218750000000000 22.031250000000000 49.656250000000000 23.000000000000000 47.375000000000000 C24.687500000000000 48.375000000000000 28.062500000000000 50.375000000000000 29.750000000000000 51.375000000000000 C28.250000000000000 53.312500000000000 25.250000000000000 57.187500000000000 23.750000000000000 59.125000000000000 C26.187500000000000 58.781250000000000 31.062500000000000 58.093750000000000 33.500000000000000 57.750000000000000 C33.500000000000000 59.687500000000000 33.500000000000000 63.562500000000000 33.500000000000000 65.500000000000000 C31.062500000000000 65.187500000000000 26.187500000000000 64.562500000000000 23.750000000000000 64.250000000000000 C25.250000000000000 66.187500000000000 28.250000000000000 70.062500000000000 29.750000000000000 72.000000000000000 C28.062500000000000 73.000000000000000 24.687500000000000 75.000000000000000 23.000000000000000 76.000000000000000 C22.031250000000000 73.687500000000000 20.093750000000000 69.062500000000000 19.125000000000000 66.750000000000000 C18.187500000000000 69.062500000000000 16.312500000000000 73.687500000000000 15.375000000000000 76.000000000000000 C13.718750000000000 75.000000000000000 10.406250000000000 73.000000000000000 8.750000000000000 72.000000000000000 C10.218750000000000 70.062500000000000 13.156250000000000 66.187500000000000 14.625000000000000 64.250000000000000 C12.187500000000000 64.562500000000000 7.312500000000000 65.187500000000000 4.875000000000000 65.500000000000000 C4.875000000000000 63.562500000000000 4.875000000000000 59.687500000000000 4.875000000000000 57.750000000000000 C7.312500000000000 58.093750000000000 12.187500000000000 58.781250000000000 14.625000000000000 59.125000000000000 C13.156250000000000 57.187500000000000 10.218750000000000 53.312500000000000 8.750000000000000 51.375000000000000 C10.406250000000000 50.375000000000000 13.718750000000000 48.375000000000000 15.375000000000000 47.375000000000000 z" />
<glyph unicode="+" horiz-adv-x="79.875" d="M33.875000000000000 0.000000000000000 C36.906250000000000 0.000000000000000 42.968750000000000 0.000000000000000 46.000000000000000 0.000000000000000 C46.000000000000000 6.218750000000000 46.000000000000000 18.656250000000000 46.000000000000000 24.875000000000000 C52.218750000000000 24.875000000000000 64.656250000000000 24.875000000000000 70.875000000000000 24.875000000000000 C70.875000000000000 27.937500000000000 70.875000000000000 34.062500000000000 70.875000000000000 37.125000000000000 C64.656250000000000 37.125000000000000 52.218750000000000 37.125000000000000 46.000000000000000 37.125000000000000 C46.000000000000000 43.343750000000000 46.000000000000000 55.781250000000000 46.000000000000000 62.000000000000000 C42.968750000000000 62.000000000000000 36.906250000000000 62.000000000000000 33.875000000000000 62.000000000000000 C33.875000000000000 55.781250000000000 33.875000000000000 43.343750000000000 33.875000000000000 37.125000000000000 C27.625000000000000 37.125000000000000 15.125000000000000 37.125000000000000 8.875000000000000 37.125000000000000 C8.875000000000000 34.062500000000000 8.875000000000000 27.937500000000000 8.875000000000000 24.875000000000000 C15.125000000000000 24.875000000000000 27.625000000000000 24.875000000000000 33.875000000000000 24.875000000000000 C33.875000000000000 18.656250000000000 33.875000000000000 6.218750000000000 33.875000000000000 0.000000000000000 z" />
<glyph unicode="," horiz-adv-x="30.75" d="M10.125000000000000 -17.750000000000000 C14.500000000000000 -10.031250000000000 23.250000000000000 5.406250000000000 27.625000000000000 13.125000000000000 C23.781250000000000 13.125000000000000 16.093750000000000 13.125000000000000 12.250000000000000 13.125000000000000 C9.281250000000000 5.406250000000000 3.343750000000000 -10.031250000000000 0.375000000000000 -17.750000000000000 C2.812500000000000 -17.750000000000000 7.687500000000000 -17.750000000000000 10.125000000000000 -17.750000000000000 z" />
<glyph unicode="-" horiz-adv-x="50.625" d="M7.875000000000000 20.500000000000000 C16.625000000000000 20.500000000000000 34.125000000000000 20.500000000000000 42.875000000000000 20.500000000000000 C42.875000000000000 23.250000000000000 42.875000000000000 28.750000000000000 42.875000000000000 31.500000000000000 C34.125000000000000 31.500000000000000 16.625000000000000 31.500000000000000 7.875000000000000 31.500000000000000 C7.875000000000000 28.750000000000000 7.875000000000000 23.250000000000000 7.875000000000000 20.500000000000000 z" />
<glyph unicode="." horiz-adv-x="33.875" d="M16.875000000000000 -1.000000000000000 C21.875000000000000 -1.000000000000000 26.125000000000000 3.125000000000000 26.125000000000000 8.125000000000000 C26.125000000000000 13.125000000000000 21.875000000000000 17.250000000000000 16.875000000000000 17.250000000000000 C12.000000000000000 17.250000000000000 7.875000000000000 13.125000000000000 7.875000000000000 8.125000000000000 C7.875000000000000 3.125000000000000 12.000000000000000 -1.000000000000000 16.875000000000000 -1.000000000000000 z" />
<glyph unicode="/" horiz-adv-x="70.125" d="M-2.000000000000000 -30.000000000000000 C1.718750000000000 -30.000000000000000 9.156250000000000 -30.000000000000000 12.875000000000000 -30.000000000000000 C27.687500000000000 -1.093750000000000 57.312500000000000 56.718750000000000 72.125000000000000 85.625000000000000 C68.406250000000000 85.625000000000000 60.968750000000000 85.625000000000000 57.250000000000000 85.625000000000000 C42.437500000000000 56.718750000000000 12.812500000000000 -1.093750000000000 -2.000000000000000 -30.000000000000000 z" />
<glyph unicode="0" horiz-adv-x="68.5" d="M34.250000000000000 -1.000000000000000 C52.750000000000000 -1.000000000000000 62.250000000000000 14.625000000000000 62.250000000000000 37.500000000000000 C62.250000000000000 60.375000000000000 52.750000000000000 76.000000000000000 34.250000000000000 76.000000000000000 C15.500000000000000 76.000000000000000 6.125000000000000 60.375000000000000 6.125000000000000 37.500000000000000 C6.125000000000000 14.625000000000000 15.500000000000000 -1.000000000000000 34.250000000000000 -1.000000000000000 zM34.250000000000000 13.125000000000000 C25.125000000000000 13.125000000000000 22.125000000000000 22.875000000000000 22.125000000000000 37.500000000000000 C22.125000000000000 52.125000000000000 25.125000000000000 61.875000000000000 34.250000000000000 61.875000000000000 C43.250000000000000 61.875000000000000 46.250000000000000 52.125000000000000 46.250000000000000 37.500000000000000 C46.250000000000000 22.875000000000000 43.250000000000000 13.125000000000000 34.250000000000000 13.125000000000000 z" />
<glyph unicode="1" horiz-adv-x="41.75" d="M14.500000000000000 0.000000000000000 C18.500000000000000 0.000000000000000 26.500000000000000 0.000000000000000 30.500000000000000 0.000000000000000 C30.500000000000000 18.750000000000000 30.500000000000000 56.250000000000000 30.500000000000000 75.000000000000000 C23.656250000000000 75.000000000000000 9.968750000000000 75.000000000000000 3.125000000000000 75.000000000000000 C3.125000000000000 71.468750000000000 3.125000000000000 64.406250000000000 3.125000000000000 60.875000000000000 C5.968750000000000 60.875000000000000 11.656250000000000 60.875000000000000 14.500000000000000 60.875000000000000 C14.500000000000000 45.656250000000000 14.500000000000000 15.218750000000000 14.500000000000000 0.000000000000000 z" />
<glyph unicode="2" horiz-adv-x="57.25" d="M27.250000000000000 14.125000000000000 C30.187500000000000 17.781250000000000 36.062500000000000 25.093750000000000 39.000000000000000 28.750000000000000 C48.875000000000000 41.125000000000000 51.875000000000000 46.000000000000000 51.875000000000000 54.750000000000000 C51.875000000000000 67.125000000000000 41.875000000000000 76.125000000000000 28.875000000000000 76.125000000000000 C15.250000000000000 76.125000000000000 3.250000000000000 66.375000000000000 4.500000000000000 52.375000000000000 C9.666666666666686 52.375000000000000 16.125000000000000 52.375000000000000 20.000000000000000 52.375000000000000 C19.250000000000000 58.250000000000000 23.125000000000000 61.875000000000000 28.125000000000000 61.875000000000000 C31.875000000000000 61.875000000000000 36.375000000000000 60.000000000000000 36.375000000000000 53.250000000000000 C36.375000000000000 49.875000000000000 35.500000000000000 47.625000000000000 27.625000000000000 37.625000000000000 C17.833333333333314 25.083333333333314 5.593750000000000 9.406250000000000 -1.750000000000000 0.000000000000000 C12.000000000000000 0.000000000000000 39.500000000000000 0.000000000000000 53.250000000000000 0.000000000000000 C53.250000000000000 3.531250000000000 53.250000000000000 10.593750000000000 53.250000000000000 14.125000000000000 C46.750000000000000 14.125000000000000 33.750000000000000 14.125000000000000 27.250000000000000 14.125000000000000 z" />
<glyph unicode="3" horiz-adv-x="61.5" d="M31.875000000000000 44.875000000000000 C37.875000000000000 52.406250000000000 49.875000000000000 67.468750000000000 55.875000000000000 75.000000000000000 C43.187500000000000 75.000000000000000 17.812500000000000 75.000000000000000 5.125000000000000 75.000000000000000 C5.125000000000000 71.468750000000000 5.125000000000000 64.406250000000000 5.125000000000000 60.875000000000000 C11.031250000000000 60.875000000000000 22.843750000000000 60.875000000000000 28.750000000000000 60.875000000000000 C23.500000000000000 54.000000000000000 13.000000000000000 40.250000000000000 7.750000000000000 33.375000000000000 C7.937500000000000 33.375000000000000 8.312500000000000 33.375000000000000 8.500000000000000 33.375000000000000 C13.906250000000000 33.375000000000000 24.718750000000000 33.375000000000000 30.125000000000000 33.375000000000000 C35.625000000000000 33.375000000000000 39.500000000000000 29.625000000000000 39.500000000000000 23.875000000000000 C39.500000000000000 18.250000000000000 35.750000000000000 14.000000000000000 29.875000000000000 14.000000000000000 C25.125000000000000 14.000000000000000 21.000000000000000 17.000000000000000 21.000000000000000 21.000000000000000 C15.708333333333314 20.916666666666686 9.093750000000000 20.812500000000000 5.125000000000000 20.750000000000000 C5.125000000000000 8.625000000000000 16.250000000000000 -1.000000000000000 29.875000000000000 -1.000000000000000 C44.250000000000000 -1.000000000000000 55.250000000000000 9.875000000000000 55.250000000000000 23.375000000000000 C55.250000000000000 37.500000000000000 45.000000000000000 45.000000000000028 31.875000000000000 44.875000000000000 z" />
<glyph unicode="4" horiz-adv-x="64.125" d="M59.000000000000000 30.000000000000000 C57.468750000000000 30.000000000000000 54.406250000000000 30.000000000000000 52.875000000000000 30.000000000000000 C52.875000000000000 41.250000000000000 52.875000000000000 63.750000000000000 52.875000000000000 75.000000000000000 C47.812500000000000 75.000000000000000 37.687500000000000 75.000000000000000 32.625000000000000 75.000000000000000 C24.812500000000000 60.187500000000000 9.187500000000000 30.562500000000000 1.375000000000000 15.750000000000000 C10.250000000000000 15.750000000000000 28.000000000000000 15.750000000000000 36.875000000000000 15.750000000000000 C36.875000000000000 11.812500000000000 36.875000000000000 3.937500000000000 36.875000000000000 0.000000000000000 C40.875000000000000 0.000000000000000 48.875000000000000 0.000000000000000 52.875000000000000 0.000000000000000 C52.875000000000000 3.937500000000000 52.875000000000000 11.812500000000000 52.875000000000000 15.750000000000000 C54.406250000000000 15.750000000000000 57.468750000000000 15.750000000000000 59.000000000000000 15.750000000000000 C59.000000000000000 19.312500000000000 59.000000000000000 26.437500000000000 59.000000000000000 30.000000000000000 zM21.500000000000000 30.000000000000000 C25.343750000000000 37.593750000000000 33.031250000000000 52.781250000000000 36.875000000000000 60.375000000000000 C36.875000000000000 52.781250000000000 36.875000000000000 37.593750000000000 36.875000000000000 30.000000000000000 C33.031250000000000 30.000000000000000 25.343750000000000 30.000000000000000 21.500000000000000 30.000000000000000 z" />
<glyph unicode="5" horiz-adv-x="63.625" d="M35.125000000000000 50.750000000000000 C29.250000000000000 50.750000000000000 24.875000000000000 48.750000000000000 21.375000000000000 45.625000000000000 C21.791666666666686 50.625000000000000 22.312500000000000 56.875000000000000 22.625000000000000 60.625000000000000 C30.343750000000000 60.625000000000000 45.781250000000000 60.625000000000000 53.500000000000000 60.625000000000000 C53.500000000000000 64.156250000000000 53.500000000000000 71.218750000000000 53.500000000000000 74.750000000000000 C42.625000000000000 74.750000000000000 20.875000000000000 74.750000000000000 10.000000000000000 74.750000000000000 C9.187500000000000 65.812500000000000 7.562500000000000 47.937500000000000 6.750000000000000 39.000000000000000 C9.906250000000000 37.093750000000000 16.218750000000000 33.281250000000000 19.375000000000000 31.375000000000000 C22.250000000000000 34.500000000000000 27.000000000000000 36.625000000000000 31.125000000000000 36.625000000000000 C37.625000000000000 36.625000000000000 42.500000000000000 31.625000000000000 42.500000000000000 25.125000000000000 C42.500000000000000 18.500000000000000 37.250000000000000 13.625000000000000 29.375000000000000 13.625000000000000 C22.625000000000000 13.625000000000000 15.000000000000000 15.375000000000000 8.375000000000000 23.750000000000000 C7.416666666666686 23.750000000000000 6.218750000000000 23.750000000000000 5.500000000000000 23.750000000000000 C5.218750000000000 20.000000000000000 4.656250000000000 12.500000000000000 4.375000000000000 8.750000000000000 C9.875000000000000 3.125000000000000 20.750000000000000 -1.000000000000000 30.250000000000000 -1.000000000000000 C46.750000000000000 -1.000000000000000 58.500000000000000 10.250000000000000 58.500000000000000 25.750000000000000 C58.500000000000000 40.000000000000000 49.000000000000000 50.750000000000000 35.125000000000000 50.750000000000000 z" />
<glyph unicode="6" horiz-adv-x="66.375" d="M37.875000000000000 51.500000000000000 C37.125000000000000 51.625000000000000 36.250000000000000 51.625000000000000 35.500000000000000 51.625000000000000 C41.458333333333314 59.416666666666657 48.906250000000000 69.156250000000000 53.375000000000000 75.000000000000000 C48.812500000000000 75.000000000000000 39.687500000000000 75.000000000000000 35.125000000000000 75.000000000000000 C29.125000000000000 66.718750000000000 17.125000000000000 50.156250000000000 11.125000000000000 41.875000000000000 C7.875000000000000 37.000000000000000 5.250000000000000 31.500000000000000 5.250000000000000 25.375000000000000 C5.250000000000000 10.500000000000000 17.750000000000000 -1.000000000000000 33.250000000000000 -1.000000000000000 C48.375000000000000 -0.874999999999886 61.125000000000000 10.375000000000000 61.250000000000000 25.375000000000000 C61.250000000000000 38.750000000000000 50.750000000000000 49.750000000000000 37.875000000000000 51.500000000000000 zM33.250000000000000 12.750000000000000 C25.750000000000000 12.625000000000000 20.875000000000000 18.250000000000000 21.000000000000000 25.250000000000000 C21.000000000000000 32.500000000000000 25.750000000000000 38.000000000000028 33.250000000000000 38.125000000000000 C40.625000000000000 38.125000000000000 45.625000000000000 32.500000000000000 45.625000000000000 25.250000000000000 C45.750000000000000 18.250000000000000 40.625000000000000 12.750000000000000 33.250000000000000 12.750000000000000 z" />
<glyph unicode="7" horiz-adv-x="56.625" d="M3.375000000000000 75.000000000000000 C3.375000000000000 71.468750000000000 3.375000000000000 64.406250000000000 3.375000000000000 60.875000000000000 C11.937500000000000 60.875000000000000 29.062500000000000 60.875000000000000 37.625000000000000 60.875000000000000 C29.250000000000000 45.656250000000000 12.500000000000000 15.218750000000000 4.125000000000000 0.000000000000000 C8.500000000000000 0.000000000000000 17.250000000000000 0.000000000000000 21.625000000000000 0.000000000000000 C30.000000000000000 15.812500000000000 46.750000000000000 47.437500000000000 55.125000000000000 63.250000000000000 C55.125000000000000 66.187500000000000 55.125000000000000 72.062500000000000 55.125000000000000 75.000000000000000 C42.187500000000000 75.000000000000000 16.312500000000000 75.000000000000000 3.375000000000000 75.000000000000000 z" />
<glyph unicode="8" horiz-adv-x="60.75" d="M46.125000000000000 41.750000000000000 C50.000000000000000 45.250000000000000 52.375000000000000 50.250000000000000 52.375000000000000 56.000000000000000 C52.375000000000000 67.375000000000000 43.125000000000000 76.000000000000000 30.375000000000000 76.000000000000000 C17.500000000000000 76.000000000000000 8.250000000000000 67.375000000000000 8.250000000000000 56.000000000000000 C8.250000000000000 50.250000000000000 10.625000000000000 45.250000000000000 14.625000000000000 41.750000000000000 C7.875000000000000 37.750000000000000 3.750000000000000 31.000000000000000 3.750000000000000 22.750000000000000 C3.750000000000000 9.250000000000000 15.000000000000000 -1.000000000000000 30.375000000000000 -1.000000000000000 C45.750000000000000 -1.000000000000000 57.000000000000000 9.250000000000000 57.000000000000000 22.750000000000000 C57.000000000000000 31.000000000000000 52.875000000000000 37.750000000000000 46.125000000000000 41.750000000000000 zM21.750000000000000 54.625000000000000 C21.750000000000000 59.500000000000000 25.500000000000000 63.250000000000000 30.375000000000000 63.250000000000000 C35.250000000000000 63.250000000000000 39.000000000000000 59.500000000000000 39.000000000000000 54.625000000000000 C39.000000000000000 49.625000000000000 35.250000000000000 45.875000000000000 30.375000000000000 45.875000000000000 C25.500000000000000 45.875000000000000 21.750000000000000 49.625000000000000 21.750000000000000 54.625000000000000 zM30.375000000000000 13.000000000000000 C24.375000000000000 13.000000000000000 19.875000000000000 17.875000000000000 19.875000000000000 24.000000000000000 C19.875000000000000 30.125000000000000 24.375000000000000 34.500000000000000 30.375000000000000 34.500000000000000 C36.375000000000000 34.500000000000000 40.875000000000000 30.125000000000000 40.875000000000000 24.000000000000000 C40.875000000000000 17.875000000000000 36.375000000000000 13.000000000000000 30.375000000000000 13.000000000000000 z" />
<glyph unicode="9" horiz-adv-x="66.375" d="M33.250000000000000 76.000000000000000 C18.125000000000000 75.874999999999886 5.250000000000000 64.625000000000000 5.250000000000000 49.625000000000000 C5.250000000000000 36.250000000000000 15.625000000000000 25.250000000000000 28.625000000000000 23.500000000000000 C29.500000000000000 23.375000000000000 30.375000000000000 23.375000000000000 31.250000000000000 23.375000000000000 C25.208333333333314 15.583333333333314 17.656250000000000 5.843750000000000 13.125000000000000 0.000000000000000 C17.687500000000000 0.000000000000000 26.812500000000000 0.000000000000000 31.375000000000000 0.000000000000000 C37.375000000000000 8.281250000000000 49.375000000000000 24.843750000000000 55.375000000000000 33.125000000000000 C58.625000000000000 38.000000000000000 61.250000000000000 43.500000000000000 61.250000000000000 49.625000000000000 C61.250000000000000 64.500000000000000 48.625000000000000 76.000000000000000 33.250000000000000 76.000000000000000 zM33.250000000000000 36.875000000000000 C25.750000000000000 36.999999999999972 20.875000000000000 42.500000000000000 20.750000000000000 49.750000000000000 C20.750000000000000 56.750000000000000 25.750000000000000 62.250000000000000 33.250000000000000 62.250000000000000 C40.625000000000000 62.374999999999943 45.500000000000000 56.750000000000000 45.500000000000000 49.750000000000000 C45.625000000000000 42.500000000000000 40.750000000000000 36.875000000000000 33.250000000000000 36.875000000000000 z" />
<glyph unicode=":" horiz-adv-x="36" d="M18.000000000000000 33.375000000000000 C22.750000000000000 33.375000000000000 26.750000000000000 37.375000000000000 26.750000000000000 42.250000000000000 C26.750000000000000 47.000000000000000 22.750000000000000 51.000000000000000 18.000000000000000 51.000000000000000 C13.250000000000000 51.000000000000000 9.250000000000000 47.000000000000000 9.250000000000000 42.250000000000000 C9.250000000000000 37.375000000000000 13.250000000000000 33.375000000000000 18.000000000000000 33.375000000000000 zM18.000000000000000 -1.000000000000000 C22.750000000000000 -1.000000000000000 26.750000000000000 3.000000000000000 26.750000000000000 7.750000000000000 C26.750000000000000 12.625000000000000 22.750000000000000 16.625000000000000 18.000000000000000 16.625000000000000 C13.250000000000000 16.625000000000000 9.250000000000000 12.625000000000000 9.250000000000000 7.750000000000000 C9.250000000000000 3.000000000000000 13.250000000000000 -1.000000000000000 18.000000000000000 -1.000000000000000 z" />
<glyph unicode=";" horiz-adv-x="37" d="M18.375000000000000 33.375000000000000 C23.125000000000000 33.375000000000000 27.125000000000000 37.375000000000000 27.125000000000000 42.250000000000000 C27.125000000000000 47.000000000000000 23.125000000000000 51.000000000000000 18.375000000000000 51.000000000000000 C13.625000000000000 51.000000000000000 9.625000000000000 47.000000000000000 9.625000000000000 42.250000000000000 C9.625000000000000 37.375000000000000 13.625000000000000 33.375000000000000 18.375000000000000 33.375000000000000 zM12.375000000000000 -17.750000000000000 C16.750000000000000 -10.031250000000000 25.500000000000000 5.406250000000000 29.875000000000000 13.125000000000000 C26.031250000000000 13.125000000000000 18.343750000000000 13.125000000000000 14.500000000000000 13.125000000000000 C11.531250000000000 5.406250000000000 5.593750000000000 -10.031250000000000 2.625000000000000 -17.750000000000000 C5.062500000000000 -17.750000000000000 9.937500000000000 -17.750000000000000 12.375000000000000 -17.750000000000000 z" />
<glyph unicode="&#x3c;" horiz-adv-x="73" d="M64.125000000000000 72.375000000000000 C50.312500000000000 65.437500000000000 22.687500000000000 51.562500000000000 8.875000000000000 44.625000000000000 C8.875000000000000 41.093750000000000 8.875000000000000 34.031250000000000 8.875000000000000 30.500000000000000 C22.687500000000000 23.531250000000000 50.312500000000000 9.593750000000000 64.125000000000000 2.625000000000000 C64.125000000000000 5.906250000000000 64.125000000000000 12.468750000000000 64.125000000000000 15.750000000000000 C53.312500000000000 21.218750000000000 31.687500000000000 32.156250000000000 20.875000000000000 37.625000000000000 C31.687500000000000 43.062500000000000 53.312500000000000 53.937500000000000 64.125000000000000 59.375000000000000 C64.125000000000000 62.625000000000000 64.125000000000000 69.125000000000000 64.125000000000000 72.375000000000000 z" />
<glyph unicode="=" horiz-adv-x="71.875" d="M5.875000000000000 31.500000000000000 C20.875000000000000 31.500000000000000 50.875000000000000 31.500000000000000 65.875000000000000 31.500000000000000 C65.875000000000000 34.000000000000000 65.875000000000000 39.000000000000000 65.875000000000000 41.500000000000000 C50.875000000000000 41.500000000000000 20.875000000000000 41.500000000000000 5.875000000000000 41.500000000000000 C5.875000000000000 39.000000000000000 5.875000000000000 34.000000000000000 5.875000000000000 31.500000000000000 zM5.875000000000000 11.500000000000000 C20.875000000000000 11.500000000000000 50.875000000000000 11.500000000000000 65.875000000000000 11.500000000000000 C65.875000000000000 14.000000000000000 65.875000000000000 19.000000000000000 65.875000000000000 21.500000000000000 C50.875000000000000 21.500000000000000 20.875000000000000 21.500000000000000 5.875000000000000 21.500000000000000 C5.875000000000000 19.000000000000000 5.875000000000000 14.000000000000000 5.875000000000000 11.500000000000000 z" />
<glyph unicode="&#x3e;" horiz-adv-x="73" d="M8.875000000000000 72.375000000000000 C8.875000000000000 69.125000000000000 8.875000000000000 62.625000000000000 8.875000000000000 59.375000000000000 C19.687500000000000 53.937500000000000 41.312500000000000 43.062500000000000 52.125000000000000 37.625000000000000 C41.312500000000000 32.156250000000000 19.687500000000000 21.218750000000000 8.875000000000000 15.750000000000000 C8.875000000000000 12.468750000000000 8.875000000000000 5.906250000000000 8.875000000000000 2.625000000000000 C22.687500000000000 9.593750000000000 50.312500000000000 23.531250000000000 64.125000000000000 30.500000000000000 C64.125000000000000 34.031250000000000 64.125000000000000 41.093750000000000 64.125000000000000 44.625000000000000 C50.312500000000000 51.562500000000000 22.687500000000000 65.437500000000000 8.875000000000000 72.375000000000000 z" />
<glyph unicode="?" horiz-adv-x="65.25" d="M27.250000000000000 22.625000000000000 C30.812500000000000 22.625000000000000 37.937500000000000 22.625000000000000 41.500000000000000 22.625000000000000 C41.500000000000000 24.406250000000000 41.500000000000000 27.968750000000000 41.500000000000000 29.750000000000000 C41.500000000000000 39.000000000000000 59.250000000000000 33.750000000000000 59.250000000000000 54.750000000000000 C59.250000000000000 67.750000000000000 48.375000000000000 78.000000000000000 34.375000000000000 78.000000000000000 C18.875000000000000 78.000000000000000 7.875000000000000 66.375000000000000 9.375000000000000 51.375000000000000 C14.041666666666686 51.375000000000000 19.875000000000000 51.375000000000000 23.375000000000000 51.375000000000000 C22.125000000000000 58.500000000000000 26.875000000000000 64.250000000000000 34.375000000000000 64.250000000000000 C40.500000000000000 64.250000000000000 45.375000000000000 60.000000000000000 45.375000000000000 54.750000000000000 C45.375000000000000 39.625000000000000 27.250000000000000 50.000000000000000 27.250000000000000 28.875000000000000 C27.250000000000000 26.791666666666686 27.250000000000000 24.187500000000000 27.250000000000000 22.625000000000000 zM34.750000000000000 -1.000000000000000 C39.625000000000000 -1.000000000000000 43.500000000000000 2.875000000000000 43.500000000000000 7.750000000000000 C43.500000000000000 12.625000000000000 39.625000000000000 16.625000000000000 34.750000000000000 16.625000000000000 C29.875000000000000 16.625000000000000 25.875000000000000 12.625000000000000 25.875000000000000 7.750000000000000 C25.875000000000000 2.875000000000000 29.875000000000000 -1.000000000000000 34.750000000000000 -1.000000000000000 z" />
<glyph unicode="@" horiz-adv-x="62.875" d="M54.000000000000000 14.875000000000000 C54.000000000000000 20.312500000000000 54.000000000000000 31.187500000000000 54.000000000000000 36.625000000000000 C54.000000000000000 46.875000000000000 44.750000000000000 54.875000000000000 32.875000000000000 54.875000000000000 C17.875000000000000 54.875000000000000 5.875000000000000 42.750000000000000 5.875000000000000 27.625000000000000 C5.875000000000000 12.125000000000000 18.375000000000000 0.000000000000000 34.375000000000000 0.000000000000000 C40.916666666666686 0.000000000000000 49.093750000000000 0.000000000000000 54.000000000000000 0.000000000000000 C54.000000000000000 2.281250000000000 54.000000000000000 6.843750000000000 54.000000000000000 9.125000000000000 C49.093750000000000 9.125000000000000 39.281250000000000 9.125000000000000 34.375000000000000 9.125000000000000 C23.625000000000000 9.125000000000000 15.000000000000000 17.125000000000000 15.000000000000000 27.625000000000000 C15.000000000000000 37.625000000000000 23.000000000000000 45.750000000000000 32.875000000000000 45.750000000000000 C39.625000000000000 45.750000000000000 44.875000000000000 41.625000000000000 44.875000000000000 36.625000000000000 C44.875000000000000 36.291666666666657 44.875000000000000 35.875000000000000 44.875000000000000 35.625000000000000 C42.625000000000000 37.625000000000000 39.250000000000000 38.875000000000000 36.125000000000000 38.875000000000000 C29.500000000000000 38.875000000000000 24.000000000000000 33.375000000000000 24.000000000000000 26.375000000000000 C24.000000000000000 19.250000000000000 29.500000000000000 13.750000000000000 36.250000000000000 13.750000000000000 C39.125000000000000 13.750000000000000 42.500000000000000 14.875000000000000 44.875000000000000 16.750000000000000 C44.875000000000000 16.125000000000000 44.875000000000000 15.343750000000000 44.875000000000000 14.875000000000000 C47.156250000000000 14.875000000000000 51.718750000000000 14.875000000000000 54.000000000000000 14.875000000000000 zM40.125000000000000 21.375000000000000 C37.000000000000000 21.375000000000000 34.625000000000000 23.500000000000000 34.625000000000000 26.375000000000000 C34.625000000000000 29.250000000000000 37.000000000000000 31.375000000000000 40.125000000000000 31.375000000000000 C42.125000000000000 31.375000000000000 43.875000000000000 30.375000000000000 44.875000000000000 28.875000000000000 C44.875000000000000 27.208333333333314 44.875000000000000 25.125000000000000 44.875000000000000 23.875000000000000 C43.875000000000000 22.375000000000000 42.125000000000000 21.375000000000000 40.125000000000000 21.375000000000000 z" />
<glyph unicode="A" horiz-adv-x="69.25" d="M53.250000000000000 0.000000000000000 C57.656250000000000 0.000000000000000 66.468750000000000 0.000000000000000 70.875000000000000 0.000000000000000 C64.125000000000000 18.750000000000000 50.625000000000000 56.250000000000000 43.875000000000000 75.000000000000000 C39.250000000000000 75.000000000000000 30.000000000000000 75.000000000000000 25.375000000000000 75.000000000000000 C18.625000000000000 56.250000000000000 5.125000000000000 18.750000000000000 -1.625000000000000 0.000000000000000 C2.781250000000000 0.000000000000000 11.593750000000000 0.000000000000000 16.000000000000000 0.000000000000000 C17.156250000000000 3.531250000000000 19.468750000000000 10.593750000000000 20.625000000000000 14.125000000000000 C27.625000000000000 14.125000000000000 41.625000000000000 14.125000000000000 48.625000000000000 14.125000000000000 C49.781250000000000 10.593750000000000 52.093750000000000 3.531250000000000 53.250000000000000 0.000000000000000 zM25.000000000000000 27.875000000000000 C27.406250000000000 35.312500000000000 32.218750000000000 50.187500000000000 34.625000000000000 57.625000000000000 C37.031250000000000 50.187500000000000 41.843750000000000 35.312500000000000 44.250000000000000 27.875000000000000 C39.437500000000000 27.875000000000000 29.812500000000000 27.875000000000000 25.000000000000000 27.875000000000000 z" />
<glyph unicode="B" horiz-adv-x="67.875" d="M52.500000000000000 38.000000000000000 C58.125000000000000 41.000000000000000 61.750000000000000 46.250000000000000 61.750000000000000 54.125000000000000 C61.750000000000000 67.375000000000000 51.750000000000000 75.000000000000000 39.125000000000000 75.000000000000000 C28.541666666666686 75.000000000000000 15.312500000000000 75.000000000000000 7.375000000000000 75.000000000000000 C7.375000000000000 56.250000000000000 7.375000000000000 18.750000000000000 7.375000000000000 0.000000000000000 C16.031250000000000 0.000000000000000 33.343750000000000 0.000000000000000 42.000000000000000 0.000000000000000 C54.500000000000000 0.000000000000000 64.250000000000000 7.250000000000000 64.250000000000000 20.500000000000000 C64.250000000000000 29.625000000000000 59.500000000000000 35.250000000000000 52.500000000000000 38.000000000000000 zM45.250000000000000 52.375000000000000 C45.250000000000000 48.000000000000000 41.625000000000000 44.250000000000000 37.125000000000000 44.250000000000000 C32.708333333333314 44.250000000000000 27.187500000000000 44.250000000000000 23.875000000000000 44.250000000000000 C23.875000000000000 48.281250000000000 23.875000000000000 56.343750000000000 23.875000000000000 60.375000000000000 C27.187500000000000 60.375000000000000 33.812500000000000 60.375000000000000 37.125000000000000 60.375000000000000 C41.625000000000000 60.375000000000000 45.250000000000000 56.875000000000000 45.250000000000000 52.375000000000000 zM39.625000000000000 14.625000000000000 C35.687500000000000 14.625000000000000 27.812500000000000 14.625000000000000 23.875000000000000 14.625000000000000 C23.875000000000000 18.656250000000000 23.875000000000000 26.718750000000000 23.875000000000000 30.750000000000000 C27.812500000000000 30.750000000000000 35.687500000000000 30.750000000000000 39.625000000000000 30.750000000000000 C44.250000000000000 30.750000000000000 47.750000000000000 27.000000000000000 47.750000000000000 22.625000000000000 C47.750000000000000 18.125000000000000 44.250000000000000 14.625000000000000 39.625000000000000 14.625000000000000 z" />
<glyph unicode="C" horiz-adv-x="80.5" d="M43.125000000000000 -1.000000000000000 C58.000000000000000 -1.000000000000000 70.875000000000000 7.375000000000000 77.250000000000000 19.625000000000000 C72.500000000000000 22.083333333333314 66.562500000000000 25.156250000000000 63.000000000000000 27.000000000000000 C59.375000000000000 19.875000000000000 52.000000000000000 15.125000000000000 43.125000000000000 15.125000000000000 C30.500000000000000 15.125000000000000 20.875000000000000 24.875000000000000 20.875000000000000 37.500000000000000 C20.875000000000000 50.125000000000000 30.500000000000000 59.875000000000000 43.125000000000000 59.875000000000000 C52.000000000000000 59.875000000000000 59.375000000000000 55.125000000000000 63.000000000000000 48.000000000000000 C67.750000000000000 50.458333333333343 73.687500000000000 53.531250000000000 77.250000000000000 55.375000000000000 C70.875000000000000 67.625000000000000 58.000000000000000 76.000000000000000 43.125000000000000 76.000000000000000 C21.875000000000000 76.000000000000000 4.625000000000000 58.750000000000000 4.625000000000000 37.500000000000000 C4.625000000000000 16.250000000000000 21.875000000000000 -1.000000000000000 43.125000000000000 -1.000000000000000 z" />
<glyph unicode="D" horiz-adv-x="74.25" d="M7.375000000000000 0.000000000000000 C13.562500000000000 0.000000000000000 25.937500000000000 0.000000000000000 32.125000000000000 0.000000000000000 C52.750000000000000 0.000000000000000 69.625000000000000 16.750000000000000 69.625000000000000 37.500000000000000 C69.625000000000000 58.250000000000000 52.750000000000000 75.000000000000000 32.125000000000000 75.000000000000000 C23.875000000000000 75.000000000000000 13.562500000000000 75.000000000000000 7.375000000000000 75.000000000000000 C7.375000000000000 56.250000000000000 7.375000000000000 18.750000000000000 7.375000000000000 0.000000000000000 zM23.875000000000000 14.625000000000000 C23.875000000000000 26.062500000000000 23.875000000000000 48.937500000000000 23.875000000000000 60.375000000000000 C25.906250000000000 60.375000000000000 29.968750000000000 60.375000000000000 32.000000000000000 60.375000000000000 C43.875000000000000 60.375000000000000 53.125000000000000 50.500000000000000 53.125000000000000 37.500000000000000 C53.125000000000000 24.500000000000000 43.875000000000000 14.625000000000000 32.000000000000000 14.625000000000000 C29.291666666666686 14.625000000000000 25.906250000000000 14.625000000000000 23.875000000000000 14.625000000000000 z" />
<glyph unicode="E" horiz-adv-x="58.25" d="M53.125000000000000 60.500000000000000 C53.125000000000000 64.125000000000000 53.125000000000000 71.375000000000000 53.125000000000000 75.000000000000000 C41.843750000000000 75.000000000000000 19.281250000000000 75.000000000000000 8.000000000000000 75.000000000000000 C8.000000000000000 56.250000000000000 8.000000000000000 18.750000000000000 8.000000000000000 0.000000000000000 C19.281250000000000 0.000000000000000 41.843750000000000 0.000000000000000 53.125000000000000 0.000000000000000 C53.125000000000000 3.625000000000000 53.125000000000000 10.875000000000000 53.125000000000000 14.500000000000000 C45.968750000000000 14.500000000000000 31.656250000000000 14.500000000000000 24.500000000000000 14.500000000000000 C24.500000000000000 18.437500000000000 24.500000000000000 26.312500000000000 24.500000000000000 30.250000000000000 C30.625000000000000 30.250000000000000 42.875000000000000 30.250000000000000 49.000000000000000 30.250000000000000 C49.000000000000000 33.875000000000000 49.000000000000000 41.125000000000000 49.000000000000000 44.750000000000000 C42.875000000000000 44.750000000000000 30.625000000000000 44.750000000000000 24.500000000000000 44.750000000000000 C24.500000000000000 48.687500000000000 24.500000000000000 56.562500000000000 24.500000000000000 60.500000000000000 C31.656250000000000 60.500000000000000 45.968750000000000 60.500000000000000 53.125000000000000 60.500000000000000 z" />
<glyph unicode="F" horiz-adv-x="54.375" d="M53.125000000000000 60.500000000000000 C53.125000000000000 64.125000000000000 53.125000000000000 71.375000000000000 53.125000000000000 75.000000000000000 C41.843750000000000 75.000000000000000 19.281250000000000 75.000000000000000 8.000000000000000 75.000000000000000 C8.000000000000000 56.250000000000000 8.000000000000000 18.750000000000000 8.000000000000000 0.000000000000000 C12.125000000000000 0.000000000000000 20.375000000000000 0.000000000000000 24.500000000000000 0.000000000000000 C24.500000000000000 7.562500000000000 24.500000000000000 22.687500000000000 24.500000000000000 30.250000000000000 C30.625000000000000 30.250000000000000 42.875000000000000 30.250000000000000 49.000000000000000 30.250000000000000 C49.000000000000000 33.875000000000000 49.000000000000000 41.125000000000000 49.000000000000000 44.750000000000000 C42.875000000000000 44.750000000000000 30.625000000000000 44.750000000000000 24.500000000000000 44.750000000000000 C24.500000000000000 48.687500000000000 24.500000000000000 56.562500000000000 24.500000000000000 60.500000000000000 C31.656250000000000 60.500000000000000 45.968750000000000 60.500000000000000 53.125000000000000 60.500000000000000 z" />
<glyph unicode="G" horiz-adv-x="86.5" d="M43.125000000000000 41.125000000000000 C43.125000000000000 37.906250000000000 43.125000000000000 31.468750000000000 43.125000000000000 28.250000000000000 C48.281250000000000 28.250000000000000 58.593750000000000 28.250000000000000 63.750000000000000 28.250000000000000 C60.250000000000000 20.375000000000000 52.500000000000000 15.125000000000000 43.250000000000000 15.125000000000000 C30.625000000000000 15.125000000000000 20.875000000000000 24.875000000000000 20.875000000000000 37.500000000000000 C20.875000000000000 50.125000000000000 30.625000000000000 59.875000000000000 43.250000000000000 59.875000000000000 C52.125000000000000 59.875000000000000 59.375000000000000 55.125000000000000 63.125000000000000 48.000000000000000 C67.875000000000000 50.458333333333343 73.812500000000000 53.531250000000000 77.375000000000000 55.375000000000000 C70.875000000000000 67.625000000000000 58.000000000000000 76.000000000000000 43.250000000000000 76.000000000000000 C21.875000000000000 76.000000000000000 4.750000000000000 58.750000000000000 4.750000000000000 37.500000000000000 C4.750000000000000 16.250000000000000 21.875000000000000 -1.000000000000000 43.250000000000000 -1.000000000000000 C64.500000000000000 -1.000000000000000 81.750000000000000 16.250000000000000 81.750000000000000 37.500000000000000 C81.750000000000000 38.708333333333343 81.750000000000000 40.218750000000000 81.750000000000000 41.125000000000000 C72.093750000000000 41.125000000000000 52.781250000000000 41.125000000000000 43.125000000000000 41.125000000000000 z" />
<glyph unicode="H" horiz-adv-x="78.25" d="M54.375000000000000 75.000000000000000 C54.375000000000000 67.468750000000000 54.375000000000000 52.406250000000000 54.375000000000000 44.875000000000000 C46.750000000000000 44.875000000000000 31.500000000000000 44.875000000000000 23.875000000000000 44.875000000000000 C23.875000000000000 52.406250000000000 23.875000000000000 67.468750000000000 23.875000000000000 75.000000000000000 C19.750000000000000 75.000000000000000 11.500000000000000 75.000000000000000 7.375000000000000 75.000000000000000 C7.375000000000000 56.250000000000000 7.375000000000000 18.750000000000000 7.375000000000000 0.000000000000000 C11.500000000000000 0.000000000000000 19.750000000000000 0.000000000000000 23.875000000000000 0.000000000000000 C23.875000000000000 7.562500000000000 23.875000000000000 22.687500000000000 23.875000000000000 30.250000000000000 C31.500000000000000 30.250000000000000 46.750000000000000 30.250000000000000 54.375000000000000 30.250000000000000 C54.375000000000000 22.687500000000000 54.375000000000000 7.562500000000000 54.375000000000000 0.000000000000000 C58.468750000000000 0.000000000000000 66.656250000000000 0.000000000000000 70.750000000000000 0.000000000000000 C70.750000000000000 18.750000000000000 70.750000000000000 56.250000000000000 70.750000000000000 75.000000000000000 C66.656250000000000 75.000000000000000 58.468750000000000 75.000000000000000 54.375000000000000 75.000000000000000 z" />
<glyph unicode="I" horiz-adv-x="32.375" d="M8.000000000000000 0.000000000000000 C12.125000000000000 0.000000000000000 20.375000000000000 0.000000000000000 24.500000000000000 0.000000000000000 C24.500000000000000 18.750000000000000 24.500000000000000 56.250000000000000 24.500000000000000 75.000000000000000 C20.375000000000000 75.000000000000000 12.125000000000000 75.000000000000000 8.000000000000000 75.000000000000000 C8.000000000000000 56.250000000000000 8.000000000000000 18.750000000000000 8.000000000000000 0.000000000000000 z" />
<glyph unicode="J" horiz-adv-x="56.875" d="M50.625000000000000 75.000000000000000 C40.343750000000000 75.000000000000000 19.781250000000000 75.000000000000000 9.500000000000000 75.000000000000000 C9.500000000000000 71.343750000000000 9.500000000000000 64.031250000000000 9.500000000000000 60.375000000000000 C15.656250000000000 60.375000000000000 27.968750000000000 60.375000000000000 34.125000000000000 60.375000000000000 C34.125000000000000 50.625000000000000 34.125000000000000 31.125000000000000 34.125000000000000 21.375000000000000 C34.125000000000000 16.875000000000000 30.875000000000000 13.500000000000000 26.750000000000000 13.500000000000000 C23.000000000000000 13.500000000000000 20.125000000000000 16.250000000000000 19.500000000000000 20.125000000000000 C14.083333333333314 18.541666666666686 7.312500000000000 16.562500000000000 3.250000000000000 15.375000000000000 C4.875000000000000 5.250000000000000 13.000000000000000 -1.000000000000000 26.750000000000000 -1.000000000000000 C42.125000000000000 -1.000000000000000 50.625000000000000 6.875000000000000 50.625000000000000 19.250000000000000 C50.625000000000000 37.833333333333314 50.625000000000000 61.062500000000000 50.625000000000000 75.000000000000000 z" />
<glyph unicode="K" horiz-adv-x="73.625" d="M54.250000000000000 0.000000000000000 C59.750000000000000 0.000000000000000 70.750000000000000 0.000000000000000 76.250000000000000 0.000000000000000 C67.218750000000000 10.406250000000000 49.156250000000000 31.218750000000000 40.125000000000000 41.625000000000000 C48.218750000000000 49.968750000000000 64.406250000000000 66.656250000000000 72.500000000000000 75.000000000000000 C67.187500000000000 75.000000000000000 56.562500000000000 75.000000000000000 51.250000000000000 75.000000000000000 C45.125000000000000 68.375000000000000 32.875000000000000 55.125000000000000 26.750000000000000 48.500000000000000 C26.031250000000000 48.500000000000000 24.593750000000000 48.500000000000000 23.875000000000000 48.500000000000000 C23.875000000000000 55.125000000000000 23.875000000000000 68.375000000000000 23.875000000000000 75.000000000000000 C19.750000000000000 75.000000000000000 11.500000000000000 75.000000000000000 7.375000000000000 75.000000000000000 C7.375000000000000 56.250000000000000 7.375000000000000 18.750000000000000 7.375000000000000 0.000000000000000 C11.500000000000000 0.000000000000000 19.750000000000000 0.000000000000000 23.875000000000000 0.000000000000000 C23.875000000000000 8.562500000000000 23.875000000000000 25.687500000000000 23.875000000000000 34.250000000000000 C24.468750000000000 34.250000000000000 25.656250000000000 34.250000000000000 26.250000000000000 34.250000000000000 C33.250000000000000 25.687500000000000 47.250000000000000 8.562500000000000 54.250000000000000 0.000000000000000 z" />
<glyph unicode="L" horiz-adv-x="49" d="M23.875000000000000 14.625000000000000 C23.875000000000000 29.718750000000000 23.875000000000000 59.906250000000000 23.875000000000000 75.000000000000000 C19.750000000000000 75.000000000000000 11.500000000000000 75.000000000000000 7.375000000000000 75.000000000000000 C7.375000000000000 56.250000000000000 7.375000000000000 18.750000000000000 7.375000000000000 0.000000000000000 C17.718750000000000 0.000000000000000 38.406250000000000 0.000000000000000 48.750000000000000 0.000000000000000 C48.750000000000000 3.656250000000000 48.750000000000000 10.968750000000000 48.750000000000000 14.625000000000000 C42.531250000000000 14.625000000000000 30.093750000000000 14.625000000000000 23.875000000000000 14.625000000000000 z" />
<glyph unicode="M" horiz-adv-x="97.875" d="M72.750000000000000 75.000000000000000 C66.781250000000000 62.031250000000000 54.843750000000000 36.093750000000000 48.875000000000000 23.125000000000000 C42.968750000000000 36.093750000000000 31.156250000000000 62.031250000000000 25.250000000000000 75.000000000000000 C20.781250000000000 75.000000000000000 11.843750000000000 75.000000000000000 7.375000000000000 75.000000000000000 C7.375000000000000 56.250000000000000 7.375000000000000 18.750000000000000 7.375000000000000 0.000000000000000 C11.500000000000000 0.000000000000000 19.750000000000000 0.000000000000000 23.875000000000000 0.000000000000000 C23.875000000000000 11.187500000000000 23.875000000000000 33.562500000000000 23.875000000000000 44.750000000000000 C28.937500000000000 33.562500000000000 39.062500000000000 11.187500000000000 44.125000000000000 0.000000000000000 C46.500000000000000 0.000000000000000 51.250000000000000 0.000000000000000 53.625000000000000 0.000000000000000 C58.718750000000000 11.156250000000000 68.906250000000000 33.468750000000000 74.000000000000000 44.625000000000000 C74.000000000000000 33.468750000000000 74.000000000000000 11.156250000000000 74.000000000000000 0.000000000000000 C78.125000000000000 0.000000000000000 86.375000000000000 0.000000000000000 90.500000000000000 0.000000000000000 C90.500000000000000 18.750000000000000 90.500000000000000 56.250000000000000 90.500000000000000 75.000000000000000 C86.062500000000000 75.000000000000000 77.187500000000000 75.000000000000000 72.750000000000000 75.000000000000000 z" />
<glyph unicode="N" horiz-adv-x="85.125" d="M61.250000000000000 75.000000000000000 C61.250000000000000 62.593750000000000 61.250000000000000 37.781250000000000 61.250000000000000 25.375000000000000 C52.031250000000000 37.781250000000000 33.593750000000000 62.593750000000000 24.375000000000000 75.000000000000000 C20.125000000000000 75.000000000000000 11.625000000000000 75.000000000000000 7.375000000000000 75.000000000000000 C7.375000000000000 56.250000000000000 7.375000000000000 18.750000000000000 7.375000000000000 0.000000000000000 C11.500000000000000 0.000000000000000 19.750000000000000 0.000000000000000 23.875000000000000 0.000000000000000 C23.875000000000000 12.437500000000000 23.875000000000000 37.312500000000000 23.875000000000000 49.750000000000000 C33.062500000000000 37.312500000000000 51.437500000000000 12.437500000000000 60.625000000000000 0.000000000000000 C64.875000000000000 0.000000000000000 73.375000000000000 0.000000000000000 77.625000000000000 0.000000000000000 C77.625000000000000 18.750000000000000 77.625000000000000 56.250000000000000 77.625000000000000 75.000000000000000 C73.531250000000000 75.000000000000000 65.343750000000000 75.000000000000000 61.250000000000000 75.000000000000000 z" />
<glyph unicode="O" horiz-adv-x="86.375" d="M43.125000000000000 -1.000000000000000 C64.500000000000000 -1.000000000000000 81.625000000000000 16.250000000000000 81.625000000000000 37.500000000000000 C81.625000000000000 58.750000000000000 64.500000000000000 76.000000000000000 43.125000000000000 76.000000000000000 C21.875000000000000 76.000000000000000 4.625000000000000 58.750000000000000 4.625000000000000 37.500000000000000 C4.625000000000000 16.250000000000000 21.875000000000000 -1.000000000000000 43.125000000000000 -1.000000000000000 zM43.125000000000000 15.125000000000000 C30.500000000000000 15.125000000000000 20.875000000000000 24.875000000000000 20.875000000000000 37.500000000000000 C20.875000000000000 50.125000000000000 30.500000000000000 59.875000000000000 43.125000000000000 59.875000000000000 C55.875000000000000 59.875000000000000 65.500000000000000 50.125000000000000 65.500000000000000 37.500000000000000 C65.500000000000000 24.875000000000000 55.875000000000000 15.125000000000000 43.125000000000000 15.125000000000000 z" />
<glyph unicode="P" horiz-adv-x="62.125" d="M39.250000000000000 75.000000000000000 C31.281250000000000 75.000000000000000 15.343750000000000 75.000000000000000 7.375000000000000 75.000000000000000 C7.375000000000000 56.250000000000000 7.375000000000000 18.750000000000000 7.375000000000000 0.000000000000000 C11.500000000000000 0.000000000000000 19.750000000000000 0.000000000000000 23.875000000000000 0.000000000000000 C23.875000000000000 7.593750000000000 23.875000000000000 22.781250000000000 23.875000000000000 30.375000000000000 C27.718750000000000 30.375000000000000 35.406250000000000 30.375000000000000 39.250000000000000 30.375000000000000 C51.875000000000000 30.375000000000000 61.625000000000000 39.750000000000000 61.625000000000000 52.375000000000000 C61.625000000000000 64.875000000000000 51.875000000000000 75.000000000000000 39.250000000000000 75.000000000000000 zM36.625000000000000 44.000000000000000 C33.437500000000000 44.000000000000000 27.062500000000000 44.000000000000000 23.875000000000000 44.000000000000000 C23.875000000000000 48.125000000000000 23.875000000000000 56.375000000000000 23.875000000000000 60.500000000000000 C27.062500000000000 60.500000000000000 33.437500000000000 60.500000000000000 36.625000000000000 60.500000000000000 C41.875000000000000 60.500000000000000 45.875000000000000 57.125000000000000 45.875000000000000 52.250000000000000 C45.875000000000000 47.250000000000000 41.875000000000000 44.000000000000000 36.625000000000000 44.000000000000000 z" />
<glyph unicode="Q" horiz-adv-x="86.5" d="M84.500000000000000 11.875000000000000 C82.625000000000000 11.875000000000000 78.875000000000000 11.875000000000000 77.000000000000000 11.875000000000000 C74.656250000000000 10.843750000000000 69.968750000000000 8.781250000000000 67.625000000000000 7.750000000000000 C76.125000000000000 14.750000000000000 81.625000000000000 25.500000000000000 81.625000000000000 37.500000000000000 C81.625000000000000 58.750000000000000 64.500000000000000 76.000000000000000 43.125000000000000 76.000000000000000 C21.875000000000000 76.000000000000000 4.625000000000000 58.750000000000000 4.625000000000000 37.500000000000000 C4.625000000000000 16.250000000000000 21.875000000000000 -1.000000000000000 43.125000000000000 -1.000000000000000 C46.125000000000000 -1.000000000000000 49.125000000000000 -0.625000000000000 51.875000000000000 0.000000000000000 C62.750000000000000 0.000000000000000 76.343750000000000 0.000000000000000 84.500000000000000 0.000000000000000 C84.500000000000000 2.968750000000000 84.500000000000000 8.906250000000000 84.500000000000000 11.875000000000000 zM20.875000000000000 37.500000000000000 C20.875000000000000 50.125000000000000 30.500000000000000 59.875000000000000 43.125000000000000 59.875000000000000 C55.875000000000000 59.875000000000000 65.500000000000000 50.125000000000000 65.500000000000000 37.500000000000000 C65.500000000000000 24.875000000000000 55.875000000000000 15.125000000000000 43.125000000000000 15.125000000000000 C30.500000000000000 15.125000000000000 20.875000000000000 24.875000000000000 20.875000000000000 37.500000000000000 z" />
<glyph unicode="R" horiz-adv-x="66.875" d="M46.500000000000000 30.875000000000000 C55.375000000000000 33.500000000000000 61.625000000000000 41.750000000000000 61.625000000000000 52.000000000000000 C61.625000000000000 64.750000000000000 52.125000000000000 75.000000000000000 39.250000000000000 75.000000000000000 C28.625000000000000 75.000000000000000 15.343750000000000 75.000000000000000 7.375000000000000 75.000000000000000 C7.375000000000000 56.250000000000000 7.375000000000000 18.750000000000000 7.375000000000000 0.000000000000000 C11.500000000000000 0.000000000000000 19.750000000000000 0.000000000000000 23.875000000000000 0.000000000000000 C23.875000000000000 7.250000000000000 23.875000000000000 21.750000000000000 23.875000000000000 29.000000000000000 C25.531250000000000 29.000000000000000 28.843750000000000 29.000000000000000 30.500000000000000 29.000000000000000 C35.125000000000000 21.750000000000000 44.375000000000000 7.250000000000000 49.000000000000000 0.000000000000000 C53.625000000000000 0.000000000000000 62.875000000000000 0.000000000000000 67.500000000000000 0.000000000000000 C62.250000000000000 7.718750000000000 51.750000000000000 23.156250000000000 46.500000000000000 30.875000000000000 zM36.750000000000000 42.625000000000000 C33.531250000000000 42.625000000000000 27.093750000000000 42.625000000000000 23.875000000000000 42.625000000000000 C23.875000000000000 47.062500000000000 23.875000000000000 55.937500000000000 23.875000000000000 60.375000000000000 C27.093750000000000 60.375000000000000 33.531250000000000 60.375000000000000 36.750000000000000 60.375000000000000 C42.000000000000000 60.375000000000000 45.875000000000000 56.625000000000000 45.875000000000000 51.500000000000000 C45.875000000000000 46.250000000000000 42.000000000000000 42.625000000000000 36.750000000000000 42.625000000000000 z" />
<glyph unicode="S" horiz-adv-x="59.25" d="M30.500000000000000 -1.000000000000000 C44.500000000000000 -1.000000000000000 56.375000000000000 7.250000000000000 56.375000000000000 21.250000000000000 C56.375000000000000 49.000000000000000 21.875000000000000 42.125000000000000 21.875000000000000 55.125000000000000 C21.875000000000000 59.375000000000000 25.125000000000000 61.375000000000000 29.125000000000000 61.375000000000000 C33.375000000000000 61.375000000000000 37.625000000000000 59.000000000000000 41.375000000000000 54.875000000000000 C45.041666666666686 58.375000000000000 49.625000000000000 62.750000000000000 52.375000000000000 65.375000000000000 C46.875000000000000 71.750000000000000 38.500000000000000 76.000000000000000 29.250000000000000 76.000000000000000 C17.375000000000000 76.000000000000000 5.250000000000000 68.875000000000000 5.250000000000000 53.875000000000000 C5.250000000000000 28.375000000000000 39.875000000000000 34.500000000000000 39.875000000000000 21.375000000000000 C39.875000000000000 17.250000000000000 36.375000000000000 14.500000000000000 30.625000000000000 14.500000000000000 C23.750000000000000 14.500000000000000 18.375000000000000 18.375000000000000 15.625000000000000 24.250000000000000 C11.083333333333314 21.416666666666686 5.406250000000000 17.875000000000000 2.000000000000000 15.750000000000000 C6.875000000000000 6.375000000000000 17.375000000000000 -1.000000000000000 30.500000000000000 -1.000000000000000 z" />
<glyph unicode="T" horiz-adv-x="53" d="M53.625000000000000 75.000000000000000 C40.062500000000000 75.000000000000000 12.937500000000000 75.000000000000000 -0.625000000000000 75.000000000000000 C-0.625000000000000 71.343750000000000 -0.625000000000000 64.031250000000000 -0.625000000000000 60.375000000000000 C4.125000000000000 60.375000000000000 13.625000000000000 60.375000000000000 18.375000000000000 60.375000000000000 C18.375000000000000 45.281250000000000 18.375000000000000 15.093750000000000 18.375000000000000 0.000000000000000 C22.468750000000000 0.000000000000000 30.656250000000000 0.000000000000000 34.750000000000000 0.000000000000000 C34.750000000000000 15.093750000000000 34.750000000000000 45.281250000000000 34.750000000000000 60.375000000000000 C39.468750000000000 60.375000000000000 48.906250000000000 60.375000000000000 53.625000000000000 60.375000000000000 C53.625000000000000 64.031250000000000 53.625000000000000 71.343750000000000 53.625000000000000 75.000000000000000 z" />
<glyph unicode="U" horiz-adv-x="76.375" d="M38.125000000000000 -1.000000000000000 C55.875000000000000 -1.000000000000000 69.375000000000000 9.875000000000000 69.375000000000000 24.000000000000000 C69.375000000000000 41.000000000000000 69.375000000000000 62.250000000000000 69.375000000000000 75.000000000000000 C65.250000000000000 75.000000000000000 57.000000000000000 75.000000000000000 52.875000000000000 75.000000000000000 C52.875000000000000 63.031250000000000 52.875000000000000 39.093750000000000 52.875000000000000 27.125000000000000 C52.875000000000000 19.500000000000000 46.500000000000000 13.625000000000000 38.125000000000000 13.625000000000000 C29.875000000000000 13.625000000000000 23.500000000000000 19.500000000000000 23.500000000000000 27.125000000000000 C23.500000000000000 43.083333333333343 23.500000000000000 63.031250000000000 23.500000000000000 75.000000000000000 C19.375000000000000 75.000000000000000 11.125000000000000 75.000000000000000 7.000000000000000 75.000000000000000 C7.000000000000000 62.250000000000000 7.000000000000000 36.750000000000000 7.000000000000000 24.000000000000000 C7.000000000000000 9.875000000000000 20.625000000000000 -1.000000000000000 38.125000000000000 -1.000000000000000 z" />
<glyph unicode="V" horiz-adv-x="69.25" d="M52.500000000000000 75.000000000000000 C48.031250000000000 61.593750000000000 39.093750000000000 34.781250000000000 34.625000000000000 21.375000000000000 C30.156250000000000 34.781250000000000 21.218750000000000 61.593750000000000 16.750000000000000 75.000000000000000 C12.156250000000000 75.000000000000000 2.968750000000000 75.000000000000000 -1.625000000000000 75.000000000000000 C5.125000000000000 56.250000000000000 18.625000000000000 18.750000000000000 25.375000000000000 0.000000000000000 C30.000000000000000 0.000000000000000 39.250000000000000 0.000000000000000 43.875000000000000 0.000000000000000 C50.625000000000000 18.750000000000000 64.125000000000000 56.250000000000000 70.875000000000000 75.000000000000000 C66.281250000000000 75.000000000000000 57.093750000000000 75.000000000000000 52.500000000000000 75.000000000000000 z" />
<glyph unicode="W" horiz-adv-x="102.75" d="M87.125000000000000 75.000000000000000 C83.781250000000000 62.000000000000000 77.093750000000000 36.000000000000000 73.750000000000000 23.000000000000000 C70.156250000000000 36.000000000000000 62.968750000000000 62.000000000000000 59.375000000000000 75.000000000000000 C58.812500000000000 75.000000000000000 57.687500000000000 75.000000000000000 57.125000000000000 75.000000000000000 C53.687500000000000 75.000000000000000 46.812500000000000 75.000000000000000 43.375000000000000 75.000000000000000 C39.812500000000000 61.937500000000000 32.687500000000000 35.812500000000000 29.125000000000000 22.750000000000000 C25.750000000000000 35.812500000000000 19.000000000000000 61.937500000000000 15.625000000000000 75.000000000000000 C11.281250000000000 75.000000000000000 2.593750000000000 75.000000000000000 -1.750000000000000 75.000000000000000 C3.375000000000000 56.250000000000000 13.625000000000000 18.750000000000000 18.750000000000000 0.000000000000000 C23.500000000000000 0.000000000000000 33.000000000000000 0.000000000000000 37.750000000000000 0.000000000000000 C41.156250000000000 13.187500000000000 47.968750000000000 39.562500000000000 51.375000000000000 52.750000000000000 C54.781250000000000 39.562500000000000 61.593750000000000 13.187500000000000 65.000000000000000 0.000000000000000 C69.750000000000000 0.000000000000000 79.250000000000000 0.000000000000000 84.000000000000000 0.000000000000000 C89.125000000000000 18.750000000000000 99.375000000000000 56.250000000000000 104.500000000000000 75.000000000000000 C100.156250000000000 75.000000000000000 91.468750000000000 75.000000000000000 87.125000000000000 75.000000000000000 z" />
<glyph unicode="X" horiz-adv-x="66.5" d="M68.000000000000000 0.000000000000000 C61.531250000000000 9.687500000000000 48.593750000000000 29.062500000000000 42.125000000000000 38.750000000000000 C48.250000000000000 47.812500000000000 60.500000000000000 65.937500000000000 66.625000000000000 75.000000000000000 C61.906250000000000 75.000000000000000 52.468750000000000 75.000000000000000 47.750000000000000 75.000000000000000 C44.125000000000000 69.312500000000000 36.875000000000000 57.937500000000000 33.250000000000000 52.250000000000000 C29.625000000000000 57.937500000000000 22.375000000000000 69.312500000000000 18.750000000000000 75.000000000000000 C14.031250000000000 75.000000000000000 4.593750000000000 75.000000000000000 -0.125000000000000 75.000000000000000 C6.000000000000000 65.906250000000000 18.250000000000000 47.718750000000000 24.375000000000000 38.625000000000000 C17.875000000000000 28.968750000000000 4.875000000000000 9.656250000000000 -1.625000000000000 0.000000000000000 C3.125000000000000 0.000000000000000 12.625000000000000 0.000000000000000 17.375000000000000 0.000000000000000 C21.343750000000000 6.281250000000000 29.281250000000000 18.843750000000000 33.250000000000000 25.125000000000000 C37.218750000000000 18.843750000000000 45.156250000000000 6.281250000000000 49.125000000000000 0.000000000000000 C53.843750000000000 0.000000000000000 63.281250000000000 0.000000000000000 68.000000000000000 0.000000000000000 z" />
<glyph unicode="Y" horiz-adv-x="65.875" d="M67.375000000000000 75.000000000000000 C62.781250000000000 75.000000000000000 53.593750000000000 75.000000000000000 49.000000000000000 75.000000000000000 C45.000000000000000 68.656250000000000 37.000000000000000 55.968750000000000 33.000000000000000 49.625000000000000 C29.000000000000000 55.968750000000000 21.000000000000000 68.656250000000000 17.000000000000000 75.000000000000000 C12.343750000000000 75.000000000000000 3.031250000000000 75.000000000000000 -1.625000000000000 75.000000000000000 C4.968750000000000 65.062500000000000 18.156250000000000 45.187500000000000 24.750000000000000 35.250000000000000 C24.750000000000000 26.437500000000000 24.750000000000000 8.812500000000000 24.750000000000000 0.000000000000000 C28.875000000000000 0.000000000000000 37.125000000000000 0.000000000000000 41.250000000000000 0.000000000000000 C41.250000000000000 8.843750000000000 41.250000000000000 26.531250000000000 41.250000000000000 35.375000000000000 C47.781250000000000 45.281250000000000 60.843750000000000 65.093750000000000 67.375000000000000 75.000000000000000 z" />
<glyph unicode="Z" horiz-adv-x="64" d="M60.375000000000000 75.000000000000000 C46.781250000000000 75.000000000000000 19.593750000000000 75.000000000000000 6.000000000000000 75.000000000000000 C6.000000000000000 71.343750000000000 6.000000000000000 64.031250000000000 6.000000000000000 60.375000000000000 C13.187500000000000 60.375000000000000 27.562500000000000 60.375000000000000 34.750000000000000 60.375000000000000 C26.781250000000000 45.281250000000000 10.843750000000000 15.093750000000000 2.875000000000000 0.000000000000000 C17.250000000000000 0.000000000000000 46.000000000000000 0.000000000000000 60.375000000000000 0.000000000000000 C60.375000000000000 3.656250000000000 60.375000000000000 10.968750000000000 60.375000000000000 14.625000000000000 C52.468750000000000 14.625000000000000 36.656250000000000 14.625000000000000 28.750000000000000 14.625000000000000 C36.656250000000000 29.718750000000000 52.468750000000000 59.906250000000000 60.375000000000000 75.000000000000000 z" />
<glyph unicode="[" horiz-adv-x="41.125" d="M7.375000000000000 -25.000000000000000 C14.062500000000000 -25.000000000000000 27.437500000000000 -25.000000000000000 34.125000000000000 -25.000000000000000 C34.125000000000000 -22.812500000000000 34.125000000000000 -18.437500000000000 34.125000000000000 -16.250000000000000 C30.906250000000000 -16.250000000000000 24.468750000000000 -16.250000000000000 21.250000000000000 -16.250000000000000 C21.250000000000000 7.687500000000000 21.250000000000000 55.562500000000000 21.250000000000000 79.500000000000000 C24.468750000000000 79.500000000000000 30.906250000000000 79.500000000000000 34.125000000000000 79.500000000000000 C34.125000000000000 81.687500000000000 34.125000000000000 86.062500000000000 34.125000000000000 88.250000000000000 C27.437500000000000 88.250000000000000 14.062500000000000 88.250000000000000 7.375000000000000 88.250000000000000 C7.375000000000000 59.937500000000000 7.375000000000000 3.312500000000000 7.375000000000000 -25.000000000000000 z" />
<glyph unicode="\" horiz-adv-x="70.125" d="M57.250000000000000 -30.000000000000000 C60.968750000000000 -30.000000000000000 68.406250000000000 -30.000000000000000 72.125000000000000 -30.000000000000000 C57.312500000000000 -1.093750000000000 27.687500000000000 56.718750000000000 12.875000000000000 85.625000000000000 C9.156250000000000 85.625000000000000 1.718750000000000 85.625000000000000 -2.000000000000000 85.625000000000000 C12.812500000000000 56.718750000000000 42.437500000000000 -1.093750000000000 57.250000000000000 -30.000000000000000 z" />
<glyph unicode="]" horiz-adv-x="41.125" d="M7.000000000000000 -25.000000000000000 C13.656250000000000 -25.000000000000000 26.968750000000000 -25.000000000000000 33.625000000000000 -25.000000000000000 C33.625000000000000 3.312500000000000 33.625000000000000 59.937500000000000 33.625000000000000 88.250000000000000 C26.968750000000000 88.250000000000000 13.656250000000000 88.250000000000000 7.000000000000000 88.250000000000000 C7.000000000000000 86.062500000000000 7.000000000000000 81.687500000000000 7.000000000000000 79.500000000000000 C10.218750000000000 79.500000000000000 16.656250000000000 79.500000000000000 19.875000000000000 79.500000000000000 C19.875000000000000 55.562500000000000 19.875000000000000 7.687500000000000 19.875000000000000 -16.250000000000000 C16.656250000000000 -16.250000000000000 10.218750000000000 -16.250000000000000 7.000000000000000 -16.250000000000000 C7.000000000000000 -18.437500000000000 7.000000000000000 -22.812500000000000 7.000000000000000 -25.000000000000000 z" />
<glyph unicode="^" horiz-adv-x="75.625" d="M72.625000000000000 19.750000000000000 C65.687500000000000 33.562500000000000 51.812500000000000 61.187500000000000 44.875000000000000 75.000000000000000 C41.343750000000000 75.000000000000000 34.281250000000000 75.000000000000000 30.750000000000000 75.000000000000000 C23.781250000000000 61.187500000000000 9.843750000000000 33.562500000000000 2.875000000000000 19.750000000000000 C6.187500000000000 19.750000000000000 12.812500000000000 19.750000000000000 16.125000000000000 19.750000000000000 C21.531250000000000 30.531250000000000 32.343750000000000 52.093750000000000 37.750000000000000 62.875000000000000 C43.187500000000000 52.093750000000000 54.062500000000000 30.531250000000000 59.500000000000000 19.750000000000000 C62.781250000000000 19.750000000000000 69.343750000000000 19.750000000000000 72.625000000000000 19.750000000000000 z" />
<glyph unicode="_" horiz-adv-x="67.875" d="M3.875000000000000 -10.875000000000000 C18.875000000000000 -10.875000000000000 48.875000000000000 -10.875000000000000 63.875000000000000 -10.875000000000000 C63.875000000000000 -8.156250000000000 63.875000000000000 -2.718750000000000 63.875000000000000 0.000000000000000 C48.875000000000000 0.000000000000000 18.875000000000000 0.000000000000000 3.875000000000000 0.000000000000000 C3.875000000000000 -2.718750000000000 3.875000000000000 -8.156250000000000 3.875000000000000 -10.875000000000000 z" />
<glyph unicode="`" horiz-adv-x="9.625" d="M27.750000000000000 56.375000000000000 C25.000000000000000 61.031250000000000 19.500000000000000 70.343750000000000 16.750000000000000 75.000000000000000 C12.968750000000000 75.000000000000000 5.406250000000000 75.000000000000000 1.625000000000000 75.000000000000000 C5.531250000000000 70.343750000000000 13.343750000000000 61.031250000000000 17.250000000000000 56.375000000000000 C19.875000000000000 56.375000000000000 25.125000000000000 56.375000000000000 27.750000000000000 56.375000000000000 z" />
<glyph unicode="a" horiz-adv-x="67.25" d="M63.125000000000000 13.000000000000000 C61.000000000000000 13.000000000000000 58.750000000000000 13.750000000000000 58.750000000000000 17.875000000000000 C58.750000000000000 28.583333333333314 58.750000000000000 41.968750000000000 58.750000000000000 50.000000000000000 C54.781250000000000 50.000000000000000 46.843750000000000 50.000000000000000 42.875000000000000 50.000000000000000 C42.875000000000000 48.906250000000000 42.875000000000000 46.718750000000000 42.875000000000000 45.625000000000000 C39.125000000000000 49.000000000000000 34.375000000000000 51.000000000000000 28.625000000000000 51.000000000000000 C14.750000000000000 51.000000000000000 3.875000000000000 39.500000000000000 3.875000000000000 25.000000000000000 C3.875000000000000 10.500000000000000 14.750000000000000 -1.000000000000000 28.625000000000000 -1.000000000000000 C35.875000000000000 -1.000000000000000 41.750000000000000 2.250000000000000 45.750000000000000 7.500000000000000 C48.875000000000000 2.375000000000000 54.375000000000000 -1.000000000000000 61.125000000000000 -1.000000000000000 C62.750000000000000 -1.000000000000000 64.250000000000000 -0.500000000000000 65.375000000000000 0.000000000000000 C65.375000000000000 4.333333333333314 65.375000000000000 9.750000000000000 65.375000000000000 13.000000000000000 C64.812500000000000 13.000000000000000 63.687500000000000 13.000000000000000 63.125000000000000 13.000000000000000 zM31.750000000000000 13.125000000000000 C25.125000000000000 13.125000000000000 19.875000000000000 18.375000000000000 19.875000000000000 25.000000000000000 C19.875000000000000 31.625000000000000 25.125000000000000 36.875000000000000 31.750000000000000 36.875000000000000 C38.250000000000000 36.875000000000000 43.625000000000000 31.625000000000000 43.625000000000000 25.000000000000000 C43.625000000000000 18.375000000000000 38.250000000000000 13.125000000000000 31.750000000000000 13.125000000000000 z" />
<glyph unicode="b" horiz-adv-x="66.125" d="M37.625000000000000 51.000000000000000 C31.875000000000000 51.000000000000000 27.125000000000000 49.000000000000000 23.375000000000000 45.625000000000000 C23.375000000000000 58.958333333333343 23.375000000000000 75.625000000000000 23.375000000000000 85.625000000000000 C19.375000000000000 85.625000000000000 11.375000000000000 85.625000000000000 7.375000000000000 85.625000000000000 C7.375000000000000 64.218750000000000 7.375000000000000 21.406250000000000 7.375000000000000 0.000000000000000 C11.375000000000000 -0.031250000000000 19.375000000000000 -0.093750000000000 23.375000000000000 -0.125000000000000 C23.375000000000000 1.000000000000000 23.375000000000000 3.250000000000000 23.375000000000000 4.375000000000000 C27.125000000000000 1.000000000000000 31.875000000000000 -1.000000000000000 37.625000000000000 -1.000000000000000 C51.375000000000000 -1.000000000000000 62.250000000000000 10.500000000000000 62.250000000000000 25.000000000000000 C62.250000000000000 39.500000000000000 51.375000000000000 51.000000000000000 37.625000000000000 51.000000000000000 zM34.500000000000000 13.125000000000000 C27.875000000000000 13.125000000000000 22.625000000000000 18.375000000000000 22.625000000000000 25.000000000000000 C22.625000000000000 31.625000000000000 27.875000000000000 36.875000000000000 34.500000000000000 36.875000000000000 C41.125000000000000 36.875000000000000 46.375000000000000 31.625000000000000 46.375000000000000 25.000000000000000 C46.375000000000000 18.375000000000000 41.125000000000000 13.125000000000000 34.500000000000000 13.125000000000000 z" />
<glyph unicode="c" horiz-adv-x="62" d="M31.750000000000000 -1.000000000000000 C46.750000000000000 -1.000000000000000 57.000000000000000 7.750000000000000 59.125000000000000 20.250000000000000 C53.625000000000000 20.250000000000000 46.750000000000000 20.250000000000000 42.625000000000000 20.250000000000000 C41.000000000000000 16.000000000000000 36.875000000000000 13.250000000000000 31.750000000000000 13.125000000000000 C24.875000000000000 13.250000000000000 19.875000000000000 18.250000000000000 19.875000000000000 25.000000000000000 C19.875000000000000 31.750000000000000 24.875000000000000 36.749999999999972 31.750000000000000 36.875000000000000 C36.875000000000000 36.750000000000028 41.000000000000000 34.000000000000000 42.625000000000000 29.750000000000000 C48.125000000000000 29.750000000000000 55.000000000000000 29.750000000000000 59.125000000000000 29.750000000000000 C57.000000000000000 42.250000000000000 46.750000000000000 51.000000000000000 31.750000000000000 51.000000000000000 C15.000000000000000 51.000000000000000 3.875000000000000 40.000000000000000 3.875000000000000 25.000000000000000 C3.875000000000000 10.000000000000000 15.000000000000000 -1.000000000000000 31.750000000000000 -1.000000000000000 z" />
<glyph unicode="d" horiz-adv-x="66.125" d="M42.875000000000000 85.625000000000000 C42.875000000000000 75.625000000000000 42.875000000000000 55.625000000000000 42.875000000000000 45.625000000000000 C39.125000000000000 49.000000000000000 34.375000000000000 51.000000000000000 28.625000000000000 51.000000000000000 C14.750000000000000 51.000000000000000 3.875000000000000 39.500000000000000 3.875000000000000 25.000000000000000 C3.875000000000000 10.500000000000000 14.750000000000000 -1.000000000000000 28.625000000000000 -1.000000000000000 C34.375000000000000 -1.000000000000000 39.125000000000000 1.000000000000000 42.875000000000000 4.375000000000000 C42.875000000000000 2.875000000000000 42.875000000000000 1.000000000000000 42.875000000000000 -0.125000000000000 C46.843750000000000 -0.093750000000000 54.781250000000000 -0.031250000000000 58.750000000000000 0.000000000000000 C58.750000000000000 21.406250000000000 58.750000000000000 64.218750000000000 58.750000000000000 85.625000000000000 C54.781250000000000 85.625000000000000 46.843750000000000 85.625000000000000 42.875000000000000 85.625000000000000 zM31.750000000000000 13.125000000000000 C25.125000000000000 13.125000000000000 19.875000000000000 18.375000000000000 19.875000000000000 25.000000000000000 C19.875000000000000 31.625000000000000 25.125000000000000 36.875000000000000 31.750000000000000 36.875000000000000 C38.250000000000000 36.875000000000000 43.625000000000000 31.625000000000000 43.625000000000000 25.000000000000000 C43.625000000000000 18.375000000000000 38.250000000000000 13.125000000000000 31.750000000000000 13.125000000000000 z" />
<glyph unicode="e" horiz-adv-x="62" d="M58.250000000000000 25.125000000000000 C58.250000000000000 40.750000000000000 47.500000000000000 51.125000000000000 31.375000000000000 51.125000000000000 C15.250000000000000 51.125000000000000 3.875000000000000 40.625000000000000 3.875000000000000 25.000000000000000 C3.875000000000000 9.375000000000000 15.125000000000000 -1.000000000000000 31.875000000000000 -1.000000000000000 C45.750000000000000 -1.000000000000000 55.000000000000000 6.375000000000000 57.500000000000000 17.250000000000000 C52.375000000000000 17.250000000000000 45.968750000000000 17.250000000000000 42.125000000000000 17.250000000000000 C40.750000000000000 13.250000000000000 37.125000000000000 10.875000000000000 31.625000000000000 10.875000000000000 C24.375000000000000 10.875000000000000 20.625000000000000 15.250000000000000 20.000000000000000 22.375000000000000 C32.750000000000000 22.375000000000000 48.687500000000000 22.375000000000000 58.250000000000000 22.375000000000000 C58.250000000000000 23.062500000000000 58.250000000000000 24.437500000000000 58.250000000000000 25.125000000000000 zM31.625000000000000 38.875000000000000 C37.000000000000000 38.875000000000000 40.125000000000000 36.375000000000000 41.750000000000000 32.000000000000000 C34.833333333333314 32.000000000000000 26.187500000000000 32.000000000000000 21.000000000000000 32.000000000000000 C22.625000000000000 36.250000000000000 26.000000000000000 38.875000000000000 31.625000000000000 38.875000000000000 z" />
<glyph unicode="f" horiz-adv-x="37.625" d="M37.625000000000000 50.000000000000000 C34.656250000000000 50.000000000000000 28.718750000000000 50.000000000000000 25.750000000000000 50.000000000000000 C25.750000000000000 53.750000000000000 25.750000000000000 61.250000000000000 25.750000000000000 65.000000000000000 C25.750000000000000 69.125000000000000 28.000000000000000 71.625000000000000 31.375000000000000 71.625000000000000 C33.375000000000000 71.625000000000000 35.875000000000000 71.625000000000000 37.375000000000000 71.625000000000000 C37.375000000000000 74.750000000000000 37.375000000000000 81.000000000000000 37.375000000000000 84.125000000000000 C36.125000000000000 85.000000000000000 32.750000000000000 85.625000000000000 29.375000000000000 85.625000000000000 C18.750000000000000 85.625000000000000 9.750000000000000 77.500000000000000 9.750000000000000 66.875000000000000 C9.750000000000000 61.250000000000000 9.750000000000000 54.218750000000000 9.750000000000000 50.000000000000000 C7.656250000000000 50.000000000000000 3.468750000000000 50.000000000000000 1.375000000000000 50.000000000000000 C1.375000000000000 46.906250000000000 1.375000000000000 40.718750000000000 1.375000000000000 37.625000000000000 C3.468750000000000 37.625000000000000 7.656250000000000 37.625000000000000 9.750000000000000 37.625000000000000 C9.750000000000000 28.218750000000000 9.750000000000000 9.406250000000000 9.750000000000000 0.000000000000000 C13.750000000000000 0.000000000000000 21.750000000000000 0.000000000000000 25.750000000000000 0.000000000000000 C25.750000000000000 9.406250000000000 25.750000000000000 28.218750000000000 25.750000000000000 37.625000000000000 C28.718750000000000 37.625000000000000 34.656250000000000 37.625000000000000 37.625000000000000 37.625000000000000 C37.625000000000000 40.718750000000000 37.625000000000000 46.906250000000000 37.625000000000000 50.000000000000000 z" />
<glyph unicode="g" horiz-adv-x="67.875" d="M60.250000000000000 50.000000000000000 C56.250000000000000 50.000000000000000 48.250000000000000 50.000000000000000 44.250000000000000 50.000000000000000 C44.250000000000000 48.750000000000000 44.250000000000000 46.250000000000000 44.250000000000000 45.000000000000000 C40.125000000000000 48.750000000000000 34.750000000000000 51.000000000000000 28.625000000000000 51.000000000000000 C14.750000000000000 51.000000000000000 3.875000000000000 39.625000000000000 3.875000000000000 25.000000000000000 C3.875000000000000 10.500000000000000 14.750000000000000 -1.000000000000000 28.625000000000000 -1.000000000000000 C34.875000000000000 -1.000000000000000 40.375000000000000 1.375000000000000 44.500000000000000 5.250000000000000 C44.500000000000000 3.041666666666686 44.500000000000000 0.281250000000000 44.500000000000000 -1.375000000000000 C44.500000000000000 -10.625000000000000 39.375000000000000 -16.250000000000000 31.250000000000000 -16.250000000000000 C25.500000000000000 -16.250000000000000 21.125000000000000 -13.125000000000000 19.250000000000000 -8.125000000000000 C14.375000000000000 -10.083333333333314 8.281250000000000 -12.531250000000000 4.625000000000000 -14.000000000000000 C8.750000000000000 -24.250000000000000 18.125000000000000 -30.125000000000000 31.250000000000000 -30.125000000000000 C49.500000000000000 -30.125000000000000 60.375000000000000 -19.000000000000000 60.375000000000000 -0.500000000000000 C60.333333333333371 16.333333333333314 60.281250000000000 37.375000000000000 60.250000000000000 50.000000000000000 zM32.625000000000000 13.125000000000000 C26.000000000000000 13.125000000000000 20.750000000000000 18.375000000000000 20.750000000000000 25.000000000000000 C20.750000000000000 31.625000000000000 26.000000000000000 36.875000000000000 32.625000000000000 36.875000000000000 C39.250000000000000 36.875000000000000 44.625000000000000 31.625000000000000 44.625000000000000 25.000000000000000 C44.625000000000000 18.375000000000000 39.250000000000000 13.125000000000000 32.625000000000000 13.125000000000000 z" />
<glyph unicode="h" horiz-adv-x="61.75" d="M37.375000000000000 51.000000000000000 C31.875000000000000 51.000000000000000 26.875000000000000 48.500000000000000 23.375000000000000 44.375000000000000 C23.375000000000000 58.125000000000000 23.375000000000000 75.312500000000000 23.375000000000000 85.625000000000000 C19.375000000000000 85.625000000000000 11.375000000000000 85.625000000000000 7.375000000000000 85.625000000000000 C7.375000000000000 64.218750000000000 7.375000000000000 21.406250000000000 7.375000000000000 0.000000000000000 C11.375000000000000 0.000000000000000 19.375000000000000 0.000000000000000 23.375000000000000 0.000000000000000 C23.375000000000000 7.062500000000000 23.375000000000000 21.187500000000000 23.375000000000000 28.250000000000000 C23.375000000000000 32.625000000000000 27.000000000000000 36.875000000000000 31.875000000000000 36.875000000000000 C36.375000000000000 36.875000000000000 39.500000000000000 33.375000000000000 39.500000000000000 29.000000000000000 C39.500000000000000 19.333333333333314 39.500000000000000 7.250000000000000 39.500000000000000 0.000000000000000 C43.500000000000000 0.000000000000000 51.500000000000000 0.000000000000000 55.500000000000000 0.000000000000000 C55.500000000000000 7.906250000000000 55.500000000000000 23.718750000000000 55.500000000000000 31.625000000000000 C55.500000000000000 42.625000000000000 47.500000000000000 51.000000000000000 37.375000000000000 51.000000000000000 z" />
<glyph unicode="i" horiz-adv-x="31.25" d="M15.625000000000000 58.375000000000000 C20.375000000000000 58.375000000000000 24.375000000000000 62.375000000000000 24.375000000000000 67.125000000000000 C24.375000000000000 72.000000000000000 20.375000000000000 75.875000000000000 15.625000000000000 75.875000000000000 C10.875000000000000 75.875000000000000 6.875000000000000 72.000000000000000 6.875000000000000 67.125000000000000 C6.875000000000000 62.375000000000000 10.875000000000000 58.375000000000000 15.625000000000000 58.375000000000000 zM7.625000000000000 0.000000000000000 C11.593750000000000 0.000000000000000 19.531250000000000 0.000000000000000 23.500000000000000 0.000000000000000 C23.500000000000000 12.500000000000000 23.500000000000000 37.500000000000000 23.500000000000000 50.000000000000000 C19.531250000000000 50.000000000000000 11.593750000000000 50.000000000000000 7.625000000000000 50.000000000000000 C7.625000000000000 37.500000000000000 7.625000000000000 12.500000000000000 7.625000000000000 0.000000000000000 z" />
<glyph unicode="j" horiz-adv-x="31.25" d="M15.625000000000000 58.375000000000000 C20.375000000000000 58.375000000000000 24.375000000000000 62.375000000000000 24.375000000000000 67.125000000000000 C24.375000000000000 72.000000000000000 20.375000000000000 75.875000000000000 15.625000000000000 75.875000000000000 C10.875000000000000 75.875000000000000 6.875000000000000 72.000000000000000 6.875000000000000 67.125000000000000 C6.875000000000000 62.375000000000000 10.875000000000000 58.375000000000000 15.625000000000000 58.375000000000000 zM4.000000000000000 -30.000000000000000 C14.500000000000000 -30.000000000000000 23.500000000000000 -21.750000000000000 23.500000000000000 -11.125000000000000 C23.500000000000000 9.250000000000000 23.500000000000000 34.718750000000000 23.500000000000000 50.000000000000000 C19.531250000000000 50.000000000000000 11.593750000000000 50.000000000000000 7.625000000000000 50.000000000000000 C7.625000000000000 35.187500000000000 7.625000000000000 5.562500000000000 7.625000000000000 -9.250000000000000 C7.625000000000000 -13.375000000000000 5.250000000000000 -16.000000000000000 2.000000000000000 -16.000000000000000 C-0.041666666666686 -16.000000000000000 -2.593750000000000 -16.000000000000000 -4.125000000000000 -16.000000000000000 C-4.125000000000000 -19.093750000000000 -4.125000000000000 -25.281250000000000 -4.125000000000000 -28.375000000000000 C-2.750000000000000 -29.250000000000000 0.625000000000000 -30.000000000000000 4.000000000000000 -30.000000000000000 z" />
<glyph unicode="k" horiz-adv-x="60.125" d="M62.375000000000000 0.000000000000000 C56.437500000000000 6.843750000000000 44.562500000000000 20.531250000000000 38.625000000000000 27.375000000000000 C44.093750000000000 33.031250000000000 55.031250000000000 44.343750000000000 60.500000000000000 50.000000000000000 C55.718750000000000 50.000000000000000 46.156250000000000 50.000000000000000 41.375000000000000 50.000000000000000 C37.031250000000000 45.500000000000000 28.343750000000000 36.500000000000000 24.000000000000000 32.000000000000000 C24.000000000000000 45.406250000000000 24.000000000000000 72.218750000000000 24.000000000000000 85.625000000000000 C20.031250000000000 85.625000000000000 12.093750000000000 85.625000000000000 8.125000000000000 85.625000000000000 C8.125000000000000 64.218750000000000 8.125000000000000 21.406250000000000 8.125000000000000 0.000000000000000 C12.093750000000000 0.000000000000000 20.031250000000000 0.000000000000000 24.000000000000000 0.000000000000000 C24.000000000000000 5.750000000000000 24.000000000000000 17.250000000000000 24.000000000000000 23.000000000000000 C28.406250000000000 17.250000000000000 37.218750000000000 5.750000000000000 41.625000000000000 0.000000000000000 C46.812500000000000 0.000000000000000 57.187500000000000 0.000000000000000 62.375000000000000 0.000000000000000 z" />
<glyph unicode="l" horiz-adv-x="30.75" d="M7.375000000000000 0.000000000000000 C11.375000000000000 0.000000000000000 19.375000000000000 0.000000000000000 23.375000000000000 0.000000000000000 C23.375000000000000 21.406250000000000 23.375000000000000 64.218750000000000 23.375000000000000 85.625000000000000 C19.375000000000000 85.625000000000000 11.375000000000000 85.625000000000000 7.375000000000000 85.625000000000000 C7.375000000000000 64.218750000000000 7.375000000000000 21.406250000000000 7.375000000000000 0.000000000000000 z" />
<glyph unicode="m" horiz-adv-x="90.5" d="M67.000000000000000 51.000000000000000 C59.875000000000000 51.000000000000000 54.375000000000000 47.750000000000000 51.250000000000000 42.250000000000000 C48.375000000000000 47.500000000000000 43.375000000000000 51.000000000000000 37.000000000000000 51.000000000000000 C31.250000000000000 51.000000000000000 26.625000000000000 48.250000000000000 23.375000000000000 43.875000000000000 C23.375000000000000 45.916666666666657 23.375000000000000 48.468750000000000 23.375000000000000 50.000000000000000 C19.375000000000000 50.000000000000000 11.375000000000000 50.000000000000000 7.375000000000000 50.000000000000000 C7.375000000000000 37.500000000000000 7.375000000000000 12.500000000000000 7.375000000000000 0.000000000000000 C11.375000000000000 0.000000000000000 19.375000000000000 0.000000000000000 23.375000000000000 0.000000000000000 C23.375000000000000 7.250000000000000 23.375000000000000 21.750000000000000 23.375000000000000 29.000000000000000 C23.375000000000000 32.625000000000000 25.625000000000000 36.875000000000000 30.500000000000000 36.875000000000000 C34.875000000000000 36.875000000000000 37.750000000000000 33.375000000000000 37.750000000000000 29.000000000000000 C37.750000000000000 19.333333333333314 37.750000000000000 7.250000000000000 37.750000000000000 0.000000000000000 C41.750000000000000 0.000000000000000 49.750000000000000 0.000000000000000 53.750000000000000 0.000000000000000 C53.750000000000000 7.250000000000000 53.750000000000000 21.750000000000000 53.750000000000000 29.000000000000000 C53.750000000000000 32.625000000000000 56.000000000000000 36.875000000000000 60.875000000000000 36.875000000000000 C65.250000000000000 36.875000000000000 68.250000000000000 33.375000000000000 68.250000000000000 29.000000000000000 C68.250000000000000 19.333333333333314 68.250000000000000 7.250000000000000 68.250000000000000 0.000000000000000 C72.218750000000000 0.000000000000000 80.156250000000000 0.000000000000000 84.125000000000000 0.000000000000000 C84.125000000000000 7.906250000000000 84.125000000000000 23.718750000000000 84.125000000000000 31.625000000000000 C84.125000000000000 43.250000000000000 78.000000000000000 51.000000000000000 67.000000000000000 51.000000000000000 z" />
<glyph unicode="n" horiz-adv-x="61.875" d="M37.625000000000000 51.000000000000000 C31.875000000000000 51.000000000000000 26.875000000000000 48.250000000000000 23.375000000000000 43.875000000000000 C23.375000000000000 45.916666666666657 23.375000000000000 48.468750000000000 23.375000000000000 50.000000000000000 C19.375000000000000 50.000000000000000 11.375000000000000 50.000000000000000 7.375000000000000 50.000000000000000 C7.375000000000000 37.500000000000000 7.375000000000000 12.500000000000000 7.375000000000000 0.000000000000000 C11.375000000000000 0.000000000000000 19.375000000000000 0.000000000000000 23.375000000000000 0.000000000000000 C23.375000000000000 7.250000000000000 23.375000000000000 21.750000000000000 23.375000000000000 29.000000000000000 C23.375000000000000 33.500000000000000 27.125000000000000 36.875000000000000 31.750000000000000 36.875000000000000 C36.375000000000000 36.875000000000000 39.625000000000000 33.500000000000000 39.625000000000000 29.000000000000000 C39.625000000000000 19.333333333333314 39.625000000000000 7.250000000000000 39.625000000000000 0.000000000000000 C43.593750000000000 0.000000000000000 51.531250000000000 0.000000000000000 55.500000000000000 0.000000000000000 C55.500000000000000 7.906250000000000 55.500000000000000 23.718750000000000 55.500000000000000 31.625000000000000 C55.500000000000000 42.625000000000000 47.500000000000000 51.000000000000000 37.625000000000000 51.000000000000000 z" />
<glyph unicode="o" horiz-adv-x="63.5" d="M31.750000000000000 -1.000000000000000 C48.500000000000000 -1.000000000000000 59.500000000000000 10.000000000000000 59.500000000000000 25.000000000000000 C59.500000000000000 40.000000000000000 48.500000000000000 51.000000000000000 31.750000000000000 51.000000000000000 C15.000000000000000 51.000000000000000 3.875000000000000 40.000000000000000 3.875000000000000 25.000000000000000 C3.875000000000000 10.000000000000000 15.000000000000000 -1.000000000000000 31.750000000000000 -1.000000000000000 zM31.750000000000000 13.125000000000000 C24.875000000000000 13.250000000000000 19.875000000000000 18.250000000000000 19.875000000000000 25.000000000000000 C19.875000000000000 31.750000000000000 24.875000000000000 36.749999999999972 31.750000000000000 36.875000000000000 C38.500000000000000 36.750000000000000 43.625000000000000 31.750000000000000 43.625000000000000 25.000000000000000 C43.625000000000000 18.250000000000000 38.500000000000000 13.250000000000000 31.750000000000000 13.125000000000000 z" />
<glyph unicode="p" horiz-adv-x="66.125" d="M37.625000000000000 51.000000000000000 C31.875000000000000 51.000000000000000 27.125000000000000 49.000000000000000 23.375000000000000 45.625000000000000 C23.375000000000000 47.041666666666657 23.375000000000000 48.812500000000000 23.375000000000000 49.875000000000000 C19.375000000000000 49.906250000000000 11.375000000000000 49.968750000000000 7.375000000000000 50.000000000000000 C7.375000000000000 30.000000000000000 7.375000000000000 -10.000000000000000 7.375000000000000 -30.000000000000000 C11.375000000000000 -30.031250000000000 19.375000000000000 -30.093750000000000 23.375000000000000 -30.125000000000000 C23.375000000000000 -21.500000000000000 23.375000000000000 -4.250000000000000 23.375000000000000 4.375000000000000 C27.125000000000000 1.000000000000000 31.875000000000000 -1.000000000000000 37.625000000000000 -1.000000000000000 C51.375000000000000 -1.000000000000000 62.250000000000000 10.500000000000000 62.250000000000000 25.000000000000000 C62.250000000000000 39.500000000000000 51.375000000000000 51.000000000000000 37.625000000000000 51.000000000000000 zM34.500000000000000 13.125000000000000 C27.875000000000000 13.125000000000000 22.625000000000000 18.375000000000000 22.625000000000000 25.000000000000000 C22.625000000000000 31.625000000000000 27.875000000000000 36.875000000000000 34.500000000000000 36.875000000000000 C41.125000000000000 36.875000000000000 46.375000000000000 31.625000000000000 46.375000000000000 25.000000000000000 C46.375000000000000 18.375000000000000 41.125000000000000 13.125000000000000 34.500000000000000 13.125000000000000 z" />
<glyph unicode="q" horiz-adv-x="66.125" d="M64.500000000000000 -16.000000000000000 C61.125000000000000 -16.000000000000000 58.750000000000000 -13.375000000000000 58.750000000000000 -9.250000000000000 C58.750000000000000 10.500000000000000 58.750000000000000 35.187500000000000 58.750000000000000 50.000000000000000 C54.781250000000000 50.000000000000000 46.843750000000000 50.000000000000000 42.875000000000000 50.000000000000000 C42.875000000000000 48.906250000000000 42.875000000000000 46.718750000000000 42.875000000000000 45.625000000000000 C39.125000000000000 49.000000000000000 34.375000000000000 51.000000000000000 28.625000000000000 51.000000000000000 C14.750000000000000 51.000000000000000 3.875000000000000 39.500000000000000 3.875000000000000 25.000000000000000 C3.875000000000000 10.500000000000000 14.750000000000000 -1.000000000000000 28.625000000000000 -1.000000000000000 C34.375000000000000 -1.000000000000000 39.125000000000000 1.000000000000000 42.875000000000000 4.375000000000000 C42.875000000000000 -0.791666666666686 42.875000000000000 -7.250000000000000 42.875000000000000 -11.125000000000000 C42.875000000000000 -21.750000000000000 51.875000000000000 -30.000000000000000 62.500000000000000 -30.000000000000000 C65.000000000000000 -30.000000000000000 67.500000000000000 -29.500000000000000 69.125000000000000 -29.000000000000000 C69.125000000000000 -24.666666666666686 69.125000000000000 -19.250000000000000 69.125000000000000 -16.000000000000000 C67.968750000000000 -16.000000000000000 65.656250000000000 -16.000000000000000 64.500000000000000 -16.000000000000000 zM31.750000000000000 13.125000000000000 C25.125000000000000 13.125000000000000 19.875000000000000 18.375000000000000 19.875000000000000 25.000000000000000 C19.875000000000000 31.625000000000000 25.125000000000000 36.875000000000000 31.750000000000000 36.875000000000000 C38.250000000000000 36.875000000000000 43.625000000000000 31.625000000000000 43.625000000000000 25.000000000000000 C43.625000000000000 18.375000000000000 38.250000000000000 13.125000000000000 31.750000000000000 13.125000000000000 z" />
<glyph unicode="r" horiz-adv-x="41.25" d="M37.375000000000000 51.000000000000000 C31.500000000000000 51.000000000000000 26.625000000000000 48.000000000000000 23.375000000000000 43.125000000000000 C23.375000000000000 45.416666666666657 23.375000000000000 48.281250000000000 23.375000000000000 50.000000000000000 C19.375000000000000 50.000000000000000 11.375000000000000 50.000000000000000 7.375000000000000 50.000000000000000 C7.375000000000000 37.500000000000000 7.375000000000000 12.500000000000000 7.375000000000000 0.000000000000000 C11.375000000000000 0.000000000000000 19.375000000000000 0.000000000000000 23.375000000000000 0.000000000000000 C23.375000000000000 5.968750000000000 23.375000000000000 17.906250000000000 23.375000000000000 23.875000000000000 C23.375000000000000 32.125000000000000 29.000000000000000 36.875000000000000 36.875000000000000 36.875000000000000 C38.750000000000000 36.875000000000000 40.375000000000000 36.625000000000000 41.500000000000000 36.375000000000000 C41.500000000000000 41.083333333333343 41.500000000000000 46.968750000000000 41.500000000000000 50.500000000000000 C40.375000000000000 50.875000000000000 38.875000000000000 51.000000000000000 37.375000000000000 51.000000000000000 z" />
<glyph unicode="s" horiz-adv-x="44" d="M23.500000000000000 -1.000000000000000 C34.750000000000000 -1.000000000000000 41.625000000000000 5.875000000000000 41.625000000000000 15.250000000000000 C41.625000000000000 25.250000000000000 33.375000000000000 29.250000000000000 26.250000000000000 32.000000000000000 C22.625000000000000 33.500000000000000 20.875000000000000 34.250000000000000 20.875000000000000 36.125000000000000 C20.875000000000000 37.750000000000000 22.125000000000000 39.000000000000000 24.875000000000000 39.000000000000000 C28.125000000000000 39.000000000000000 31.125000000000000 37.250000000000000 32.625000000000000 35.375000000000000 C35.291666666666686 38.375000000000000 38.625000000000000 42.125000000000000 40.625000000000000 44.375000000000000 C36.875000000000000 48.125000000000000 30.750000000000000 51.000000000000000 23.750000000000000 51.000000000000000 C12.375000000000000 51.000000000000000 5.125000000000000 43.500000000000000 5.125000000000000 35.000000000000000 C5.125000000000000 25.000000000000000 15.125000000000000 21.625000000000000 20.875000000000000 19.500000000000000 C25.375000000000000 17.750000000000000 26.875000000000000 16.500000000000000 26.875000000000000 14.750000000000000 C26.875000000000000 12.750000000000000 25.125000000000000 11.625000000000000 22.500000000000000 11.625000000000000 C19.875000000000000 11.625000000000000 16.375000000000000 12.625000000000000 14.125000000000000 16.875000000000000 C10.208333333333314 14.916666666666686 5.312500000000000 12.468750000000000 2.375000000000000 11.000000000000000 C5.375000000000000 3.250000000000000 14.625000000000000 -1.000000000000000 23.500000000000000 -1.000000000000000 z" />
<glyph unicode="t" horiz-adv-x="40" d="M37.500000000000000 37.625000000000000 C37.500000000000000 40.718750000000000 37.500000000000000 46.906250000000000 37.500000000000000 50.000000000000000 C34.531250000000000 50.000000000000000 28.593750000000000 50.000000000000000 25.625000000000000 50.000000000000000 C25.625000000000000 54.812500000000000 25.625000000000000 64.437500000000000 25.625000000000000 69.250000000000000 C21.656250000000000 69.250000000000000 13.718750000000000 69.250000000000000 9.750000000000000 69.250000000000000 C9.750000000000000 64.437500000000000 9.750000000000000 54.812500000000000 9.750000000000000 50.000000000000000 C7.656250000000000 50.000000000000000 3.468750000000000 50.000000000000000 1.375000000000000 50.000000000000000 C1.375000000000000 46.906250000000000 1.375000000000000 40.718750000000000 1.375000000000000 37.625000000000000 C3.468750000000000 37.625000000000000 7.656250000000000 37.625000000000000 9.750000000000000 37.625000000000000 C9.750000000000000 32.687500000000000 9.750000000000000 22.812500000000000 9.750000000000000 17.875000000000000 C9.750000000000000 7.250000000000000 18.750000000000000 -1.000000000000000 29.375000000000000 -1.000000000000000 C32.750000000000000 -1.000000000000000 36.125000000000000 -0.250000000000000 37.375000000000000 0.625000000000000 C37.375000000000000 4.750000000000000 37.375000000000000 9.906250000000000 37.375000000000000 13.000000000000000 C35.875000000000000 13.000000000000000 32.875000000000000 13.000000000000000 31.375000000000000 13.000000000000000 C28.000000000000000 13.000000000000000 25.625000000000000 15.625000000000000 25.625000000000000 19.750000000000000 C25.625000000000000 25.708333333333314 25.625000000000000 33.156250000000000 25.625000000000000 37.625000000000000 C28.593750000000000 37.625000000000000 34.531250000000000 37.625000000000000 37.500000000000000 37.625000000000000 z" />
<glyph unicode="u" horiz-adv-x="59.625" d="M29.750000000000000 -1.000000000000000 C44.875000000000000 -1.000000000000000 53.250000000000000 6.875000000000000 53.250000000000000 19.125000000000000 C53.250000000000000 29.416666666666686 53.250000000000000 42.281250000000000 53.250000000000000 50.000000000000000 C49.281250000000000 50.000000000000000 41.343750000000000 50.000000000000000 37.375000000000000 50.000000000000000 C37.375000000000000 42.812500000000000 37.375000000000000 28.437500000000000 37.375000000000000 21.250000000000000 C37.375000000000000 16.500000000000000 34.125000000000000 13.125000000000000 29.750000000000000 13.125000000000000 C25.500000000000000 13.125000000000000 22.250000000000000 16.500000000000000 22.250000000000000 21.250000000000000 C22.250000000000000 30.833333333333314 22.250000000000000 42.812500000000000 22.250000000000000 50.000000000000000 C18.250000000000000 50.000000000000000 10.250000000000000 50.000000000000000 6.250000000000000 50.000000000000000 C6.250000000000000 42.281250000000000 6.250000000000000 26.843750000000000 6.250000000000000 19.125000000000000 C6.250000000000000 6.875000000000000 14.625000000000000 -1.000000000000000 29.750000000000000 -1.000000000000000 z" />
<glyph unicode="v" horiz-adv-x="54" d="M37.500000000000000 50.000000000000000 C34.875000000000000 41.781250000000000 29.625000000000000 25.343750000000000 27.000000000000000 17.125000000000000 C24.343750000000000 25.343750000000000 19.031250000000000 41.781250000000000 16.375000000000000 50.000000000000000 C12.125000000000000 50.000000000000000 3.625000000000000 50.000000000000000 -0.625000000000000 50.000000000000000 C4.375000000000000 37.500000000000000 14.375000000000000 12.500000000000000 19.375000000000000 0.000000000000000 C23.125000000000000 0.000000000000000 30.625000000000000 0.000000000000000 34.375000000000000 0.000000000000000 C39.437500000000000 12.500000000000000 49.562500000000000 37.500000000000000 54.625000000000000 50.000000000000000 C50.343750000000000 50.000000000000000 41.781250000000000 50.000000000000000 37.500000000000000 50.000000000000000 z" />
<glyph unicode="w" horiz-adv-x="85.5" d="M68.250000000000000 50.000000000000000 C66.125000000000000 41.687500000000000 61.875000000000000 25.062500000000000 59.750000000000000 16.750000000000000 C57.062500000000000 25.062500000000000 51.687500000000000 41.687500000000000 49.000000000000000 50.000000000000000 C45.875000000000000 50.000000000000000 39.625000000000000 50.000000000000000 36.500000000000000 50.000000000000000 C33.843750000000000 41.718750000000000 28.531250000000000 25.156250000000000 25.875000000000000 16.875000000000000 C23.781250000000000 25.156250000000000 19.593750000000000 41.718750000000000 17.500000000000000 50.000000000000000 C12.968750000000000 50.000000000000000 3.906250000000000 50.000000000000000 -0.625000000000000 50.000000000000000 C3.687500000000000 37.500000000000000 12.312500000000000 12.500000000000000 16.625000000000000 0.000000000000000 C20.812500000000000 0.000000000000000 29.187500000000000 0.000000000000000 33.375000000000000 0.000000000000000 C35.718750000000000 7.062500000000000 40.406250000000000 21.187500000000000 42.750000000000000 28.250000000000000 C45.093750000000000 21.187500000000000 49.781250000000000 7.062500000000000 52.125000000000000 0.000000000000000 C56.343750000000000 0.000000000000000 64.781250000000000 0.000000000000000 69.000000000000000 0.000000000000000 C73.250000000000000 12.500000000000000 81.750000000000000 37.500000000000000 86.000000000000000 50.000000000000000 C81.562500000000000 50.000000000000000 72.687500000000000 50.000000000000000 68.250000000000000 50.000000000000000 z" />
<glyph unicode="x" horiz-adv-x="60.125" d="M60.750000000000000 50.000000000000000 C55.968750000000000 50.000000000000000 46.406250000000000 50.000000000000000 41.625000000000000 50.000000000000000 C38.718750000000000 46.562500000000000 32.906250000000000 39.687500000000000 30.000000000000000 36.250000000000000 C27.093750000000000 39.687500000000000 21.281250000000000 46.562500000000000 18.375000000000000 50.000000000000000 C13.625000000000000 50.000000000000000 4.125000000000000 50.000000000000000 -0.625000000000000 50.000000000000000 C4.656250000000000 43.750000000000000 15.218750000000000 31.250000000000000 20.500000000000000 25.000000000000000 C15.218750000000000 18.750000000000000 4.656250000000000 6.250000000000000 -0.625000000000000 0.000000000000000 C4.187500000000000 0.000000000000000 13.812500000000000 0.000000000000000 18.625000000000000 0.000000000000000 C21.500000000000000 3.406250000000000 27.250000000000000 10.218750000000000 30.125000000000000 13.625000000000000 C33.000000000000000 10.218750000000000 38.750000000000000 3.406250000000000 41.625000000000000 0.000000000000000 C46.406250000000000 0.000000000000000 55.968750000000000 0.000000000000000 60.750000000000000 0.000000000000000 C55.468750000000000 6.218750000000000 44.906250000000000 18.656250000000000 39.625000000000000 24.875000000000000 C44.906250000000000 31.156250000000000 55.468750000000000 43.718750000000000 60.750000000000000 50.000000000000000 z" />
<glyph unicode="y" horiz-adv-x="56.75" d="M40.750000000000000 50.000000000000000 C37.687500000000000 41.718750000000000 31.562500000000000 25.156250000000000 28.500000000000000 16.875000000000000 C25.375000000000000 25.156250000000000 19.125000000000000 41.718750000000000 16.000000000000000 50.000000000000000 C11.843750000000000 50.000000000000000 3.531250000000000 50.000000000000000 -0.625000000000000 50.000000000000000 C4.593750000000000 37.218750000000000 15.031250000000000 11.656250000000000 20.250000000000000 -1.125000000000000 C17.312500000000000 -8.343750000000000 11.437500000000000 -22.781250000000000 8.500000000000000 -30.000000000000000 C12.687500000000000 -30.000000000000000 21.062500000000000 -30.000000000000000 25.250000000000000 -30.000000000000000 C33.250000000000000 -10.000000000000000 49.250000000000000 30.000000000000000 57.250000000000000 50.000000000000000 C53.125000000000000 50.000000000000000 44.875000000000000 50.000000000000000 40.750000000000000 50.000000000000000 z" />
<glyph unicode="z" horiz-adv-x="48.875" d="M47.125000000000000 50.000000000000000 C36.656250000000000 50.000000000000000 15.718750000000000 50.000000000000000 5.250000000000000 50.000000000000000 C5.250000000000000 46.687500000000000 5.250000000000000 40.062500000000000 5.250000000000000 36.750000000000000 C9.812500000000000 36.750000000000000 18.937500000000000 36.750000000000000 23.500000000000000 36.750000000000000 C18.281250000000000 27.562500000000000 7.843750000000000 9.187500000000000 2.625000000000000 0.000000000000000 C13.562500000000000 0.000000000000000 35.437500000000000 0.000000000000000 46.375000000000000 0.000000000000000 C46.375000000000000 3.312500000000000 46.375000000000000 9.937500000000000 46.375000000000000 13.250000000000000 C41.312500000000000 13.250000000000000 31.187500000000000 13.250000000000000 26.125000000000000 13.250000000000000 C31.375000000000000 22.437500000000000 41.875000000000000 40.812500000000000 47.125000000000000 50.000000000000000 z" />
<glyph unicode="{" horiz-adv-x="37.25" d="M25.375000000000000 -32.750000000000000 C27.187500000000000 -32.750000000000000 30.812500000000000 -32.750000000000000 32.625000000000000 -32.750000000000000 C32.625000000000000 -30.437500000000000 32.625000000000000 -25.812500000000000 32.625000000000000 -23.500000000000000 C25.375000000000000 -23.500000000000000 24.375000000000000 -22.625000000000000 24.375000000000000 -18.500000000000000 C24.375000000000000 -9.375000000000000 24.375000000000000 2.031250000000000 24.375000000000000 8.875000000000000 C24.375000000000000 17.000000000000000 23.000000000000000 22.625000000000000 19.125000000000000 26.750000000000000 C23.000000000000000 30.875000000000000 24.375000000000000 36.500000000000000 24.375000000000000 44.625000000000000 C24.375000000000000 53.500000000000000 24.375000000000000 64.593750000000000 24.375000000000000 71.250000000000000 C24.375000000000000 77.750000000000000 26.250000000000000 77.250000000000000 32.625000000000000 77.250000000000000 C32.625000000000000 80.291666666666686 32.625000000000000 84.093750000000000 32.625000000000000 86.375000000000000 C30.812500000000000 86.375000000000000 27.187500000000000 86.375000000000000 25.375000000000000 86.375000000000000 C18.000000000000000 86.375000000000000 12.375000000000000 79.250000000000000 12.375000000000000 70.250000000000000 C12.375000000000000 62.208333333333343 12.375000000000000 52.156250000000000 12.375000000000000 46.125000000000000 C12.375000000000000 35.375000000000000 11.000000000000000 34.000000000000000 4.875000000000000 31.375000000000000 C4.875000000000000 28.291666666666686 4.875000000000000 24.437500000000000 4.875000000000000 22.125000000000000 C11.125000000000000 19.500000000000000 12.375000000000000 18.125000000000000 12.375000000000000 7.375000000000000 C12.375000000000000 -0.666666666666686 12.375000000000000 -10.718750000000000 12.375000000000000 -16.750000000000000 C12.375000000000000 -25.750000000000000 18.000000000000000 -32.750000000000000 25.375000000000000 -32.750000000000000 z" />
<glyph unicode="|" horiz-adv-x="32.5" d="M11.250000000000000 -15.000000000000000 C13.718750000000000 -15.000000000000000 18.656250000000000 -15.000000000000000 21.125000000000000 -15.000000000000000 C21.125000000000000 7.500000000000000 21.125000000000000 52.500000000000000 21.125000000000000 75.000000000000000 C18.656250000000000 75.000000000000000 13.718750000000000 75.000000000000000 11.250000000000000 75.000000000000000 C11.250000000000000 52.500000000000000 11.250000000000000 7.500000000000000 11.250000000000000 -15.000000000000000 z" />
<glyph unicode="}" horiz-adv-x="37.25" d="M4.625000000000000 -32.750000000000000 C6.437500000000000 -32.750000000000000 10.062500000000000 -32.750000000000000 11.875000000000000 -32.750000000000000 C19.250000000000000 -32.750000000000000 24.750000000000000 -25.750000000000000 24.750000000000000 -16.750000000000000 C24.750000000000000 -8.708333333333314 24.750000000000000 1.343750000000000 24.750000000000000 7.375000000000000 C24.750000000000000 18.125000000000000 26.125000000000000 19.500000000000000 32.250000000000000 22.125000000000000 C32.250000000000000 25.208333333333314 32.250000000000000 29.062500000000000 32.250000000000000 31.375000000000000 C26.125000000000000 34.000000000000000 24.750000000000000 35.375000000000000 24.750000000000000 46.125000000000000 C24.750000000000000 54.166666666666657 24.750000000000000 64.218750000000000 24.750000000000000 70.250000000000000 C24.750000000000000 79.250000000000000 19.250000000000000 86.375000000000000 11.875000000000000 86.375000000000000 C9.458333333333314 86.375000000000000 6.437500000000000 86.375000000000000 4.625000000000000 86.375000000000000 C4.625000000000000 84.093750000000000 4.625000000000000 79.531250000000000 4.625000000000000 77.250000000000000 C11.000000000000000 77.250000000000000 12.750000000000000 77.750000000000000 12.750000000000000 71.250000000000000 C12.750000000000000 62.375000000000000 12.750000000000000 51.281250000000000 12.750000000000000 44.625000000000000 C12.750000000000000 36.500000000000000 14.250000000000000 30.875000000000000 18.125000000000000 26.750000000000000 C14.250000000000000 22.625000000000000 12.750000000000000 17.000000000000000 12.750000000000000 8.875000000000000 C12.750000000000000 -0.250000000000000 12.750000000000000 -11.656250000000000 12.750000000000000 -18.500000000000000 C12.750000000000000 -22.625000000000000 11.875000000000000 -23.500000000000000 4.625000000000000 -23.500000000000000 C4.625000000000000 -26.583333333333314 4.625000000000000 -30.437500000000000 4.625000000000000 -32.750000000000000 z" />
<glyph unicode="~" horiz-adv-x="59" d="M39.625000000000000 15.000000000000000 C49.625000000000000 15.000000000000000 56.375000000000000 23.625000000000000 55.250000000000000 34.750000000000000 C51.666666666666686 34.750000000000000 47.187500000000000 34.750000000000000 44.500000000000000 34.750000000000000 C44.875000000000000 29.000000000000000 42.000000000000000 25.625000000000000 38.625000000000000 25.625000000000000 C36.375000000000000 25.625000000000000 35.000000000000000 27.250000000000000 33.875000000000000 28.750000000000000 C30.375000000000000 33.500000000000000 27.000000000000000 35.875000000000000 20.875000000000000 35.875000000000000 C9.500000000000000 35.875000000000000 3.000000000000000 27.625000000000000 3.625000000000000 15.750000000000000 C7.250000000000000 15.750000000000000 11.781250000000000 15.750000000000000 14.500000000000000 15.750000000000000 C14.625000000000000 20.250000000000000 16.250000000000000 24.875000000000000 20.625000000000000 24.875000000000000 C21.750000000000000 24.875000000000000 23.000000000000000 24.500000000000000 24.875000000000000 22.750000000000000 C27.125000000000000 20.625000000000000 31.500000000000000 15.000000000000000 39.625000000000000 15.000000000000000 z" />
<glyph unicode="" horiz-adv-x="35.375" d="M17.625000000000000 32.375000000000000 C22.625000000000000 32.375000000000000 26.500000000000000 36.375000000000000 26.500000000000000 41.250000000000000 C26.500000000000000 46.000000000000000 22.625000000000000 50.000000000000000 17.625000000000000 50.000000000000000 C12.875000000000000 50.000000000000000 8.875000000000000 46.000000000000000 8.875000000000000 41.250000000000000 C8.875000000000000 36.375000000000000 12.875000000000000 32.375000000000000 17.625000000000000 32.375000000000000 zM9.750000000000000 -30.000000000000000 C13.718750000000000 -30.000000000000000 21.656250000000000 -30.000000000000000 25.625000000000000 -30.000000000000000 C25.125000000000000 -16.500000000000000 24.125000000000000 10.500000000000000 23.625000000000000 24.000000000000000 C20.625000000000000 24.000000000000000 14.625000000000000 24.000000000000000 11.625000000000000 24.000000000000000 C11.156250000000000 10.500000000000000 10.218750000000000 -16.500000000000000 9.750000000000000 -30.000000000000000 z" />
<glyph unicode="" horiz-adv-x="50" d="M32.625000000000000 47.125000000000000 C36.375000000000000 47.125000000000000 40.375000000000000 46.375000000000000 43.125000000000000 44.125000000000000 C43.125000000000000 49.166666666666657 43.125000000000000 55.468750000000000 43.125000000000000 59.250000000000000 C40.250000000000000 60.250000000000000 37.125000000000000 60.875000000000000 33.875000000000000 61.000000000000000 C33.875000000000000 64.041666666666686 33.875000000000000 67.843750000000000 33.875000000000000 70.125000000000000 C31.562500000000000 70.125000000000000 26.937500000000000 70.125000000000000 24.625000000000000 70.125000000000000 C24.625000000000000 67.593750000000000 24.625000000000000 62.531250000000000 24.625000000000000 60.000000000000000 C13.000000000000000 56.750000000000000 4.625000000000000 46.875000000000000 4.625000000000000 35.000000000000000 C4.625000000000000 23.125000000000000 13.000000000000000 13.250000000000000 24.625000000000000 10.000000000000000 C24.625000000000000 6.625000000000000 24.625000000000000 2.406250000000000 24.625000000000000 -0.125000000000000 C26.937500000000000 -0.125000000000000 31.562500000000000 -0.125000000000000 33.875000000000000 -0.125000000000000 C33.875000000000000 2.156250000000000 33.875000000000000 6.718750000000000 33.875000000000000 9.000000000000000 C37.125000000000000 9.125000000000000 40.250000000000000 9.750000000000000 43.125000000000000 10.750000000000000 C43.125000000000000 15.833333333333314 43.125000000000000 22.187500000000000 43.125000000000000 26.000000000000000 C40.375000000000000 23.625000000000000 36.375000000000000 22.875000000000000 32.625000000000000 22.875000000000000 C25.875000000000000 22.875000000000000 20.625000000000000 28.250000000000000 20.625000000000000 35.000000000000000 C20.625000000000000 41.750000000000000 25.875000000000000 47.125000000000000 32.625000000000000 47.125000000000000 z" />
<glyph unicode="" horiz-adv-x="65.75" d="M23.375000000000000 11.000000000000000 C23.375000000000000 16.062500000000000 23.375000000000000 26.187500000000000 23.375000000000000 31.250000000000000 C28.031250000000000 31.250000000000000 37.343750000000000 31.250000000000000 42.000000000000000 31.250000000000000 C42.000000000000000 33.781250000000000 42.000000000000000 38.843750000000000 42.000000000000000 41.375000000000000 C37.343750000000000 41.375000000000000 28.031250000000000 41.375000000000000 23.375000000000000 41.375000000000000 C23.375000000000000 43.656250000000000 23.375000000000000 48.218750000000000 23.375000000000000 50.500000000000000 C23.375000000000000 58.875000000000000 28.500000000000000 64.000000000000000 36.375000000000000 64.000000000000000 C43.000000000000000 64.000000000000000 49.250000000000000 58.500000000000000 49.000000000000000 51.375000000000000 C52.875000000000000 53.041666666666657 57.718750000000000 55.125000000000000 60.625000000000000 56.375000000000000 C58.500000000000000 67.625000000000000 47.625000000000000 76.000000000000000 36.375000000000000 76.000000000000000 C21.875000000000000 76.000000000000000 11.500000000000000 65.375000000000000 11.500000000000000 50.500000000000000 C11.500000000000000 47.458333333333343 11.500000000000000 43.656250000000000 11.500000000000000 41.375000000000000 C9.500000000000000 41.375000000000000 5.500000000000000 41.375000000000000 3.500000000000000 41.375000000000000 C3.500000000000000 38.843750000000000 3.500000000000000 33.781250000000000 3.500000000000000 31.250000000000000 C5.500000000000000 31.250000000000000 9.500000000000000 31.250000000000000 11.500000000000000 31.250000000000000 C11.500000000000000 23.437500000000000 11.500000000000000 7.812500000000000 11.500000000000000 0.000000000000000 C23.968750000000000 0.000000000000000 48.906250000000000 0.000000000000000 61.375000000000000 0.000000000000000 C61.375000000000000 2.750000000000000 61.375000000000000 8.250000000000000 61.375000000000000 11.000000000000000 C51.875000000000000 11.000000000000000 32.875000000000000 11.000000000000000 23.375000000000000 11.000000000000000 z" />
<glyph unicode="" horiz-adv-x="67.375" d="M15.500000000000000 9.625000000000000 C16.875000000000000 11.000000000000000 19.625000000000000 13.750000000000000 21.000000000000000 15.125000000000000 C28.625000000000000 10.500000000000000 38.625000000000000 10.500000000000000 46.250000000000000 15.125000000000000 C48.083333333333314 13.291666666666686 50.375000000000000 11.000000000000000 51.750000000000000 9.625000000000000 C53.843750000000000 11.812500000000000 58.031250000000000 16.187500000000000 60.125000000000000 18.375000000000000 C58.812500000000000 19.687500000000000 56.187500000000000 22.312500000000000 54.875000000000000 23.625000000000000 C59.500000000000000 31.375000000000000 59.500000000000000 41.250000000000000 54.875000000000000 49.000000000000000 C56.625000000000000 50.750000000000000 58.812500000000000 52.937500000000000 60.125000000000000 54.250000000000000 C58.000000000000000 56.375000000000000 53.750000000000000 60.625000000000000 51.625000000000000 62.750000000000000 C50.281250000000000 61.406250000000000 47.593750000000000 58.718750000000000 46.250000000000000 57.375000000000000 C38.625000000000000 62.125000000000000 28.750000000000000 62.000000000000000 21.125000000000000 57.375000000000000 C19.291666666666686 59.208333333333343 17.000000000000000 61.500000000000000 15.625000000000000 62.875000000000000 C13.531250000000000 60.687500000000000 9.343750000000000 56.312500000000000 7.250000000000000 54.125000000000000 C8.562500000000000 52.812500000000000 11.187500000000000 50.187500000000000 12.500000000000000 48.875000000000000 C7.875000000000000 41.250000000000000 7.875000000000000 31.375000000000000 12.500000000000000 23.750000000000000 C10.750000000000000 21.958333333333314 8.562500000000000 19.718750000000000 7.250000000000000 18.375000000000000 C9.312500000000000 16.187500000000000 13.437500000000000 11.812500000000000 15.500000000000000 9.625000000000000 zM24.500000000000000 27.250000000000000 C19.625000000000000 32.125000000000000 19.750000000000000 40.250000000000000 24.625000000000000 45.250000000000000 C29.625000000000000 50.250000000000000 37.750000000000000 50.250000000000000 42.625000000000000 45.250000000000000 C47.625000000000000 40.375000000000000 47.625000000000000 32.250000000000000 42.750000000000000 27.250000000000000 C37.750000000000000 22.250000000000000 29.625000000000000 22.250000000000000 24.500000000000000 27.250000000000000 z" />
<glyph unicode="" horiz-adv-x="72.375" d="M68.375000000000000 75.000000000000000 C64.718750000000000 75.000000000000000 57.406250000000000 75.000000000000000 53.750000000000000 75.000000000000000 C49.375000000000000 68.093750000000000 40.625000000000000 54.281250000000000 36.250000000000000 47.375000000000000 C31.843750000000000 54.281250000000000 23.031250000000000 68.093750000000000 18.625000000000000 75.000000000000000 C14.937500000000000 75.000000000000000 7.562500000000000 75.000000000000000 3.875000000000000 75.000000000000000 C9.906250000000000 65.875000000000000 21.968750000000000 47.625000000000000 28.000000000000000 38.500000000000000 C24.031250000000000 38.500000000000000 16.093750000000000 38.500000000000000 12.125000000000000 38.500000000000000 C12.125000000000000 36.031250000000000 12.125000000000000 31.093750000000000 12.125000000000000 28.625000000000000 C16.406250000000000 28.625000000000000 24.968750000000000 28.625000000000000 29.250000000000000 28.625000000000000 C29.250000000000000 26.843750000000000 29.250000000000000 23.281250000000000 29.250000000000000 21.500000000000000 C25.000000000000000 21.500000000000000 16.500000000000000 21.500000000000000 12.250000000000000 21.500000000000000 C12.250000000000000 19.187500000000000 12.250000000000000 14.562500000000000 12.250000000000000 12.250000000000000 C16.500000000000000 12.250000000000000 25.000000000000000 12.250000000000000 29.250000000000000 12.250000000000000 C29.250000000000000 9.187500000000000 29.250000000000000 3.062500000000000 29.250000000000000 0.000000000000000 C32.718750000000000 0.000000000000000 39.656250000000000 0.000000000000000 43.125000000000000 0.000000000000000 C43.125000000000000 3.062500000000000 43.125000000000000 9.187500000000000 43.125000000000000 12.250000000000000 C47.406250000000000 12.250000000000000 55.968750000000000 12.250000000000000 60.250000000000000 12.250000000000000 C60.250000000000000 14.562500000000000 60.250000000000000 19.187500000000000 60.250000000000000 21.500000000000000 C55.968750000000000 21.500000000000000 47.406250000000000 21.500000000000000 43.125000000000000 21.500000000000000 C43.125000000000000 23.281250000000000 43.125000000000000 26.843750000000000 43.125000000000000 28.625000000000000 C47.406250000000000 28.625000000000000 55.968750000000000 28.625000000000000 60.250000000000000 28.625000000000000 C60.250000000000000 31.093750000000000 60.250000000000000 36.031250000000000 60.250000000000000 38.500000000000000 C56.250000000000000 38.500000000000000 48.250000000000000 38.500000000000000 44.250000000000000 38.500000000000000 C50.281250000000000 47.625000000000000 62.343750000000000 65.875000000000000 68.375000000000000 75.000000000000000 z" />
<glyph unicode="" horiz-adv-x="32.5" d="M11.250000000000000 39.000000000000000 C13.718750000000000 39.000000000000000 18.656250000000000 39.000000000000000 21.125000000000000 39.000000000000000 C21.125000000000000 48.000000000000000 21.125000000000000 66.000000000000000 21.125000000000000 75.000000000000000 C18.656250000000000 75.000000000000000 13.718750000000000 75.000000000000000 11.250000000000000 75.000000000000000 C11.250000000000000 66.000000000000000 11.250000000000000 48.000000000000000 11.250000000000000 39.000000000000000 zM11.250000000000000 -15.000000000000000 C13.718750000000000 -15.000000000000000 18.656250000000000 -15.000000000000000 21.125000000000000 -15.000000000000000 C21.125000000000000 -6.000000000000000 21.125000000000000 12.000000000000000 21.125000000000000 21.000000000000000 C18.656250000000000 21.000000000000000 13.718750000000000 21.000000000000000 11.250000000000000 21.000000000000000 C11.250000000000000 12.000000000000000 11.250000000000000 -6.000000000000000 11.250000000000000 -15.000000000000000 z" />
<glyph unicode="" horiz-adv-x="66" d="M56.125000000000000 26.625000000000000 C58.500000000000000 29.250000000000000 59.875000000000000 32.375000000000000 59.875000000000000 35.750000000000000 C59.875000000000000 56.375000000000000 21.250000000000000 50.125000000000000 21.250000000000000 60.125000000000000 C21.250000000000000 63.750000000000000 27.000000000000000 65.875000000000000 33.625000000000000 65.875000000000000 C39.125000000000000 65.875000000000000 44.125000000000000 64.375000000000000 47.375000000000000 61.625000000000000 C49.958333333333314 63.791666666666657 53.187500000000000 66.500000000000000 55.125000000000000 68.125000000000000 C50.250000000000000 72.875000000000000 41.500000000000000 76.000000000000000 32.875000000000000 76.000000000000000 C21.250000000000000 76.000000000000000 9.625000000000000 70.250000000000000 9.625000000000000 59.500000000000000 C9.625000000000000 55.750000000000000 11.000000000000000 52.875000000000000 13.375000000000000 50.750000000000000 C10.750000000000000 48.000000000000000 9.625000000000000 45.000000000000000 9.625000000000000 41.500000000000000 C9.625000000000000 21.500000000000000 48.250000000000000 27.500000000000000 48.250000000000000 17.500000000000000 C48.250000000000000 13.375000000000000 41.875000000000000 11.000000000000000 34.125000000000000 11.000000000000000 C25.250000000000000 11.000000000000000 18.750000000000000 14.250000000000000 16.125000000000000 18.500000000000000 C12.916666666666686 16.500000000000000 8.906250000000000 14.000000000000000 6.500000000000000 12.500000000000000 C10.875000000000000 5.375000000000000 21.625000000000000 0.250000000000000 33.500000000000000 0.250000000000000 C47.625000000000000 0.250000000000000 59.875000000000000 7.625000000000000 59.875000000000000 17.375000000000000 C59.875000000000000 21.375000000000000 58.375000000000000 24.375000000000000 56.125000000000000 26.625000000000000 zM21.250000000000000 41.875000000000000 C21.250000000000000 43.250000000000000 22.000000000000000 44.500000000000000 23.375000000000000 45.500000000000000 C34.500000000000000 42.000000000000000 48.250000000000000 41.750000000000000 48.250000000000000 35.875000000000000 C48.250000000000000 34.500000000000000 47.500000000000000 33.125000000000000 46.125000000000000 32.000000000000000 C35.000000000000000 35.625000000000000 21.250000000000000 35.875000000000000 21.250000000000000 41.875000000000000 z" />
<glyph unicode="" horiz-adv-x="12.5" d="M13.625000000000000 58.750000000000000 C17.750000000000000 58.750000000000000 21.250000000000000 62.250000000000000 21.250000000000000 66.250000000000000 C21.250000000000000 70.500000000000000 17.750000000000000 73.750000000000000 13.625000000000000 73.750000000000000 C9.625000000000000 73.750000000000000 6.125000000000000 70.500000000000000 6.125000000000000 66.250000000000000 C6.125000000000000 62.250000000000000 9.625000000000000 58.750000000000000 13.625000000000000 58.750000000000000 zM34.625000000000000 58.750000000000000 C38.875000000000000 58.750000000000000 42.125000000000000 62.250000000000000 42.125000000000000 66.250000000000000 C42.125000000000000 70.500000000000000 38.875000000000000 73.750000000000000 34.625000000000000 73.750000000000000 C30.625000000000000 73.750000000000000 27.125000000000000 70.500000000000000 27.125000000000000 66.250000000000000 C27.125000000000000 62.250000000000000 30.625000000000000 58.750000000000000 34.625000000000000 58.750000000000000 z" />
<glyph unicode="" horiz-adv-x="86.375" d="M43.125000000000000 -1.000000000000000 C64.375000000000000 -1.000000000000000 81.625000000000000 16.250000000000000 81.625000000000000 37.500000000000000 C81.625000000000000 58.750000000000000 64.375000000000000 76.000000000000000 43.125000000000000 76.000000000000000 C22.000000000000000 76.000000000000000 4.625000000000000 58.750000000000000 4.625000000000000 37.500000000000000 C4.625000000000000 16.250000000000000 22.000000000000000 -1.000000000000000 43.125000000000000 -1.000000000000000 zM43.125000000000000 7.375000000000000 C26.250000000000000 7.375000000000000 13.000000000000000 20.625000000000000 13.000000000000000 37.500000000000000 C13.000000000000000 54.375000000000000 26.250000000000000 67.625000000000000 43.125000000000000 67.625000000000000 C60.125000000000000 67.625000000000000 73.250000000000000 54.375000000000000 73.250000000000000 37.500000000000000 C73.250000000000000 20.625000000000000 60.125000000000000 7.375000000000000 43.125000000000000 7.375000000000000 zM43.250000000000000 19.375000000000000 C53.250000000000000 19.375000000000000 60.000000000000000 25.500000000000000 61.500000000000000 34.125000000000000 C57.833333333333314 34.125000000000000 53.250000000000000 34.125000000000000 50.500000000000000 34.125000000000000 C49.375000000000000 31.125000000000000 46.625000000000000 29.250000000000000 43.250000000000000 29.125000000000000 C38.625000000000000 29.250000000000000 35.375000000000000 32.750000000000000 35.375000000000000 37.375000000000000 C35.375000000000000 42.000000000000000 38.625000000000000 45.500000000000000 43.250000000000000 45.500000000000000 C46.625000000000000 45.500000000000000 49.375000000000000 43.625000000000000 50.500000000000000 40.625000000000000 C54.166666666666686 40.625000000000000 58.750000000000000 40.625000000000000 61.500000000000000 40.625000000000000 C60.000000000000000 49.250000000000000 53.250000000000000 55.250000000000000 43.250000000000000 55.250000000000000 C32.125000000000000 55.250000000000000 24.750000000000000 47.750000000000000 24.750000000000000 37.375000000000000 C24.750000000000000 27.000000000000000 32.125000000000000 19.375000000000000 43.250000000000000 19.375000000000000 z" />
<glyph unicode="" horiz-adv-x="40.625" d="M28.125000000000000 75.000000000000000 C28.125000000000000 73.843750000000000 28.125000000000000 71.531250000000000 28.125000000000000 70.375000000000000 C25.750000000000000 73.625000000000000 22.000000000000000 75.625000000000000 17.500000000000000 75.625000000000000 C9.250000000000000 75.625000000000000 2.625000000000000 68.625000000000000 2.625000000000000 60.000000000000000 C2.625000000000000 51.250000000000000 9.250000000000000 44.375000000000000 17.500000000000000 44.375000000000000 C22.000000000000000 44.375000000000000 25.750000000000000 46.375000000000000 28.125000000000000 49.625000000000000 C28.125000000000000 48.083333333333343 28.125000000000000 46.156250000000000 28.125000000000000 45.000000000000000 C30.031250000000000 45.000000000000000 33.843750000000000 45.000000000000000 35.750000000000000 45.000000000000000 C35.750000000000000 52.500000000000000 35.750000000000000 67.500000000000000 35.750000000000000 75.000000000000000 C33.843750000000000 75.000000000000000 30.031250000000000 75.000000000000000 28.125000000000000 75.000000000000000 zM19.125000000000000 51.000000000000000 C14.125000000000000 51.000000000000000 10.125000000000000 55.000000000000000 10.125000000000000 60.000000000000000 C10.125000000000000 65.000000000000000 14.125000000000000 69.000000000000000 19.125000000000000 69.000000000000000 C24.125000000000000 69.000000000000000 28.125000000000000 65.000000000000000 28.125000000000000 60.000000000000000 C28.125000000000000 55.000000000000000 24.125000000000000 51.000000000000000 19.125000000000000 51.000000000000000 z" />
<glyph unicode="" horiz-adv-x="73.75" d="M26.250000000000000 9.500000000000000 C29.375000000000000 9.500000000000000 35.625000000000000 9.500000000000000 38.750000000000000 9.500000000000000 C34.937500000000000 14.093750000000000 27.312500000000000 23.281250000000000 23.500000000000000 27.875000000000000 C27.312500000000000 32.468750000000000 34.937500000000000 41.656250000000000 38.750000000000000 46.250000000000000 C35.625000000000000 46.250000000000000 29.375000000000000 46.250000000000000 26.250000000000000 46.250000000000000 C22.437500000000000 41.656250000000000 14.812500000000000 32.468750000000000 11.000000000000000 27.875000000000000 C14.812500000000000 23.281250000000000 22.437500000000000 14.093750000000000 26.250000000000000 9.500000000000000 zM50.125000000000000 9.500000000000000 C53.281250000000000 9.500000000000000 59.593750000000000 9.500000000000000 62.750000000000000 9.500000000000000 C58.968750000000000 14.093750000000000 51.406250000000000 23.281250000000000 47.625000000000000 27.875000000000000 C51.406250000000000 32.468750000000000 58.968750000000000 41.656250000000000 62.750000000000000 46.250000000000000 C59.593750000000000 46.250000000000000 53.281250000000000 46.250000000000000 50.125000000000000 46.250000000000000 C46.312500000000000 41.656250000000000 38.687500000000000 32.468750000000000 34.875000000000000 27.875000000000000 C38.687500000000000 23.281250000000000 46.312500000000000 14.093750000000000 50.125000000000000 9.500000000000000 z" />
<glyph unicode="" horiz-adv-x="82.125" d="M63.250000000000000 9.500000000000000 C65.750000000000000 9.500000000000000 70.750000000000000 9.500000000000000 73.250000000000000 9.500000000000000 C73.250000000000000 18.437500000000000 73.250000000000000 36.312500000000000 73.250000000000000 45.250000000000000 C57.156250000000000 45.250000000000000 24.968750000000000 45.250000000000000 8.875000000000000 45.250000000000000 C8.875000000000000 42.718750000000000 8.875000000000000 37.656250000000000 8.875000000000000 35.125000000000000 C22.468750000000000 35.125000000000000 49.656250000000000 35.125000000000000 63.250000000000000 35.125000000000000 C63.250000000000000 28.718750000000000 63.250000000000000 15.906250000000000 63.250000000000000 9.500000000000000 z" />
<glyph unicode="" horiz-adv-x="56.625" d="M7.875000000000000 20.500000000000000 C16.625000000000000 20.500000000000000 34.125000000000000 20.500000000000000 42.875000000000000 20.500000000000000 C42.875000000000000 23.250000000000000 42.875000000000000 28.750000000000000 42.875000000000000 31.500000000000000 C34.125000000000000 31.500000000000000 16.625000000000000 31.500000000000000 7.875000000000000 31.500000000000000 C7.875000000000000 28.750000000000000 7.875000000000000 23.250000000000000 7.875000000000000 20.500000000000000 z" />
<glyph unicode="" horiz-adv-x="86.375" d="M43.125000000000000 76.000000000000000 C22.000000000000000 76.000000000000000 4.625000000000000 58.750000000000000 4.625000000000000 37.500000000000000 C4.625000000000000 16.250000000000000 22.000000000000000 -1.000000000000000 43.125000000000000 -1.000000000000000 C64.375000000000000 -1.000000000000000 81.625000000000000 16.250000000000000 81.625000000000000 37.500000000000000 C81.625000000000000 58.750000000000000 64.375000000000000 76.000000000000000 43.125000000000000 76.000000000000000 zM43.125000000000000 7.375000000000000 C26.250000000000000 7.375000000000000 13.000000000000000 20.625000000000000 13.000000000000000 37.500000000000000 C13.000000000000000 54.375000000000000 26.250000000000000 67.625000000000000 43.125000000000000 67.625000000000000 C60.125000000000000 67.625000000000000 73.250000000000000 54.375000000000000 73.250000000000000 37.500000000000000 C73.250000000000000 20.625000000000000 60.125000000000000 7.375000000000000 43.125000000000000 7.375000000000000 zM57.625000000000000 45.000000000000000 C57.625000000000000 51.500000000000000 52.250000000000000 56.750000000000000 45.625000000000000 56.750000000000000 C41.250000000000000 56.750000000000000 35.781250000000000 56.750000000000000 32.500000000000000 56.750000000000000 C32.500000000000000 47.125000000000000 32.500000000000000 27.875000000000000 32.500000000000000 18.250000000000000 C34.406250000000000 18.250000000000000 38.218750000000000 18.250000000000000 40.125000000000000 18.250000000000000 C40.125000000000000 22.000000000000000 40.125000000000000 29.500000000000000 40.125000000000000 33.250000000000000 C40.906250000000000 33.250000000000000 42.468750000000000 33.250000000000000 43.250000000000000 33.250000000000000 C45.343750000000000 29.500000000000000 49.531250000000000 22.000000000000000 51.625000000000000 18.250000000000000 C53.781250000000000 18.250000000000000 58.093750000000000 18.250000000000000 60.250000000000000 18.250000000000000 C58.000000000000000 22.343750000000000 53.500000000000000 30.531250000000000 51.250000000000000 34.625000000000000 C55.000000000000000 36.625000000000000 57.625000000000000 40.500000000000000 57.625000000000000 45.000000000000000 zM40.125000000000000 49.125000000000000 C41.500000000000000 49.125000000000000 44.250000000000000 49.125000000000000 45.625000000000000 49.125000000000000 C48.000000000000000 49.125000000000000 49.875000000000000 47.250000000000000 49.875000000000000 45.000000000000000 C49.875000000000000 42.625000000000000 47.875000000000000 40.875000000000000 45.625000000000000 40.875000000000000 C43.791666666666686 40.875000000000000 41.500000000000000 40.875000000000000 40.125000000000000 40.875000000000000 C40.125000000000000 42.937500000000000 40.125000000000000 47.062500000000000 40.125000000000000 49.125000000000000 z" />
<glyph unicode="" horiz-adv-x="5.875" d="M3.375000000000000 58.000000000000000 C10.906250000000000 58.000000000000000 25.968750000000000 58.000000000000000 33.500000000000000 58.000000000000000 C33.500000000000000 60.500000000000000 33.500000000000000 65.500000000000000 33.500000000000000 68.000000000000000 C25.968750000000000 68.000000000000000 10.906250000000000 68.000000000000000 3.375000000000000 68.000000000000000 C3.375000000000000 65.500000000000000 3.375000000000000 60.500000000000000 3.375000000000000 58.000000000000000 z" />
<glyph unicode="" horiz-adv-x="48.625" d="M24.250000000000000 49.250000000000000 C31.750000000000000 49.250000000000000 37.750000000000000 55.125000000000000 37.750000000000000 62.625000000000000 C37.750000000000000 70.125000000000000 31.750000000000000 76.000000000000000 24.250000000000000 76.000000000000000 C16.875000000000000 76.000000000000000 10.875000000000000 70.125000000000000 10.875000000000000 62.625000000000000 C10.875000000000000 55.125000000000000 16.875000000000000 49.250000000000000 24.250000000000000 49.250000000000000 zM24.250000000000000 56.750000000000000 C21.000000000000000 56.750000000000000 18.375000000000000 59.250000000000000 18.375000000000000 62.625000000000000 C18.375000000000000 66.000000000000000 21.000000000000000 68.500000000000000 24.250000000000000 68.500000000000000 C27.625000000000000 68.500000000000000 30.250000000000000 66.000000000000000 30.250000000000000 62.625000000000000 C30.250000000000000 59.250000000000000 27.625000000000000 56.750000000000000 24.250000000000000 56.750000000000000 z" />
<glyph unicode="" horiz-adv-x="79.875" d="M45.125000000000000 46.250000000000000 C45.125000000000000 50.750000000000000 45.125000000000000 59.750000000000000 45.125000000000000 64.250000000000000 C42.562500000000000 64.250000000000000 37.437500000000000 64.250000000000000 34.875000000000000 64.250000000000000 C34.875000000000000 59.750000000000000 34.875000000000000 50.750000000000000 34.875000000000000 46.250000000000000 C27.375000000000000 46.250000000000000 12.375000000000000 46.250000000000000 4.875000000000000 46.250000000000000 C4.875000000000000 43.656250000000000 4.875000000000000 38.468750000000000 4.875000000000000 35.875000000000000 C12.375000000000000 35.875000000000000 27.375000000000000 35.875000000000000 34.875000000000000 35.875000000000000 C34.875000000000000 31.375000000000000 34.875000000000000 22.375000000000000 34.875000000000000 17.875000000000000 C37.437500000000000 17.875000000000000 42.562500000000000 17.875000000000000 45.125000000000000 17.875000000000000 C45.125000000000000 22.375000000000000 45.125000000000000 31.375000000000000 45.125000000000000 35.875000000000000 C52.593750000000000 35.875000000000000 67.531250000000000 35.875000000000000 75.000000000000000 35.875000000000000 C75.000000000000000 38.468750000000000 75.000000000000000 43.656250000000000 75.000000000000000 46.250000000000000 C67.531250000000000 46.250000000000000 52.593750000000000 46.250000000000000 45.125000000000000 46.250000000000000 zM4.875000000000000 0.000000000000000 C22.406250000000000 0.000000000000000 57.468750000000000 0.000000000000000 75.000000000000000 0.000000000000000 C75.000000000000000 2.312500000000000 75.000000000000000 6.937500000000000 75.000000000000000 9.250000000000000 C57.468750000000000 9.250000000000000 22.406250000000000 9.250000000000000 4.875000000000000 9.250000000000000 C4.875000000000000 6.937500000000000 4.875000000000000 2.312500000000000 4.875000000000000 0.000000000000000 z" />
<glyph unicode="" horiz-adv-x="36.875" d="M18.125000000000000 46.125000000000000 C19.531250000000000 47.906250000000000 22.343750000000000 51.468750000000000 23.750000000000000 53.250000000000000 C28.500000000000000 59.250000000000000 30.000000000000000 61.500000000000000 30.000000000000000 65.750000000000000 C30.000000000000000 71.750000000000000 25.125000000000000 76.125000000000000 18.875000000000000 76.125000000000000 C12.375000000000000 76.125000000000000 6.625000000000000 71.375000000000000 7.125000000000000 64.625000000000000 C9.625000000000000 64.625000000000000 12.750000000000000 64.625000000000000 14.625000000000000 64.625000000000000 C14.250000000000000 67.500000000000000 16.125000000000000 69.250000000000000 18.500000000000000 69.250000000000000 C20.375000000000000 69.250000000000000 22.500000000000000 68.250000000000000 22.500000000000000 65.000000000000000 C22.500000000000000 63.375000000000000 22.125000000000000 62.375000000000000 18.375000000000000 57.500000000000000 C13.625000000000000 51.458333333333343 7.687500000000000 43.906250000000000 4.125000000000000 39.375000000000000 C10.750000000000000 39.375000000000000 24.000000000000000 39.375000000000000 30.625000000000000 39.375000000000000 C30.625000000000000 41.062500000000000 30.625000000000000 44.437500000000000 30.625000000000000 46.125000000000000 C27.500000000000000 46.125000000000000 21.250000000000000 46.125000000000000 18.125000000000000 46.125000000000000 z" />
<glyph unicode="" horiz-adv-x="37" d="M19.000000000000000 60.375000000000000 C21.906250000000000 64.000000000000000 27.718750000000000 71.250000000000000 30.625000000000000 74.875000000000000 C24.531250000000000 74.875000000000000 12.343750000000000 74.875000000000000 6.250000000000000 74.875000000000000 C6.250000000000000 73.187500000000000 6.250000000000000 69.812500000000000 6.250000000000000 68.125000000000000 C9.093750000000000 68.125000000000000 14.781250000000000 68.125000000000000 17.625000000000000 68.125000000000000 C15.093750000000000 64.812500000000000 10.031250000000000 58.187500000000000 7.500000000000000 54.875000000000000 C7.593750000000000 54.875000000000000 7.781250000000000 54.875000000000000 7.875000000000000 54.875000000000000 C10.468750000000000 54.875000000000000 15.656250000000000 54.875000000000000 18.250000000000000 54.875000000000000 C20.875000000000000 54.875000000000000 22.750000000000000 53.000000000000000 22.750000000000000 50.250000000000000 C22.750000000000000 47.500000000000000 21.000000000000000 45.500000000000000 18.125000000000000 45.500000000000000 C15.875000000000000 45.500000000000000 13.875000000000000 47.000000000000000 13.875000000000000 48.875000000000000 C11.333333333333314 48.833333333333343 8.156250000000000 48.781250000000000 6.250000000000000 48.750000000000000 C6.250000000000000 42.875000000000000 11.625000000000000 38.250000000000000 18.125000000000000 38.250000000000000 C25.125000000000000 38.250000000000000 30.375000000000000 43.500000000000000 30.375000000000000 50.000000000000000 C30.375000000000000 56.750000000000000 25.500000000000000 60.375000000000000 19.000000000000000 60.375000000000000 z" />
<glyph unicode="" horiz-adv-x="9.625" d="M3.750000000000000 56.375000000000000 C6.375000000000000 56.375000000000000 11.625000000000000 56.375000000000000 14.250000000000000 56.375000000000000 C18.156250000000000 61.031250000000000 25.968750000000000 70.343750000000000 29.875000000000000 75.000000000000000 C26.093750000000000 75.000000000000000 18.531250000000000 75.000000000000000 14.750000000000000 75.000000000000000 C12.000000000000000 70.343750000000000 6.500000000000000 61.031250000000000 3.750000000000000 56.375000000000000 z" />
<glyph unicode="" horiz-adv-x="62.5" d="M42.250000000000000 50.000000000000000 C42.250000000000000 42.718750000000000 42.250000000000000 28.156250000000000 42.250000000000000 20.875000000000000 C42.250000000000000 15.375000000000000 37.500000000000000 11.000000000000000 31.500000000000000 11.000000000000000 C26.000000000000000 11.000000000000000 21.625000000000000 15.375000000000000 21.625000000000000 20.875000000000000 C21.625000000000000 30.583333333333314 21.625000000000000 42.718750000000000 21.625000000000000 50.000000000000000 C18.187500000000000 50.000000000000000 11.312500000000000 50.000000000000000 7.875000000000000 50.000000000000000 C7.875000000000000 31.250000000000000 7.875000000000000 -6.250000000000000 7.875000000000000 -25.000000000000000 C10.406250000000000 -25.000000000000000 15.468750000000000 -25.000000000000000 18.000000000000000 -25.000000000000000 C18.000000000000000 -18.375000000000000 18.000000000000000 -5.125000000000000 18.000000000000000 1.500000000000000 C20.750000000000000 -0.125000000000000 24.000000000000000 -1.000000000000000 27.500000000000000 -1.000000000000000 C33.375000000000000 -1.000000000000000 38.500000000000000 1.625000000000000 42.250000000000000 5.750000000000000 C42.250000000000000 3.833333333333314 42.250000000000000 1.437500000000000 42.250000000000000 0.000000000000000 C45.687500000000000 0.000000000000000 52.562500000000000 0.000000000000000 56.000000000000000 0.000000000000000 C56.000000000000000 12.500000000000000 56.000000000000000 37.500000000000000 56.000000000000000 50.000000000000000 C52.562500000000000 50.000000000000000 45.687500000000000 50.000000000000000 42.250000000000000 50.000000000000000 z" />
<glyph unicode="" horiz-adv-x="66.375" d="M29.250000000000000 -15.000000000000000 C31.218750000000000 -15.000000000000000 35.156250000000000 -15.000000000000000 37.125000000000000 -15.000000000000000 C37.125000000000000 7.500000000000000 37.125000000000000 52.500000000000000 37.125000000000000 75.000000000000000 C34.781250000000000 75.000000000000000 30.093750000000000 75.000000000000000 27.750000000000000 75.000000000000000 C16.750000000000000 75.000000000000000 9.875000000000000 69.250000000000000 9.875000000000000 58.250000000000000 C9.875000000000000 47.375000000000000 16.750000000000000 41.500000000000000 27.750000000000000 41.500000000000000 C28.250000000000000 41.500000000000000 28.875000000000000 41.500000000000000 29.250000000000000 41.500000000000000 C29.250000000000000 27.375000000000000 29.250000000000000 -0.875000000000000 29.250000000000000 -15.000000000000000 zM46.500000000000000 -15.000000000000000 C48.500000000000000 -15.000000000000000 52.500000000000000 -15.000000000000000 54.500000000000000 -15.000000000000000 C54.500000000000000 7.500000000000000 54.500000000000000 52.500000000000000 54.500000000000000 75.000000000000000 C52.500000000000000 75.000000000000000 48.500000000000000 75.000000000000000 46.500000000000000 75.000000000000000 C46.500000000000000 52.500000000000000 46.500000000000000 7.500000000000000 46.500000000000000 -15.000000000000000 z" />
<glyph unicode="" horiz-adv-x="30.625" d="M15.250000000000000 29.625000000000000 C18.625000000000000 29.625000000000000 21.750000000000000 32.375000000000000 21.750000000000000 36.000000000000000 C21.750000000000000 39.375000000000000 18.625000000000000 42.375000000000000 15.250000000000000 42.375000000000000 C11.875000000000000 42.375000000000000 8.875000000000000 39.375000000000000 8.875000000000000 36.000000000000000 C8.875000000000000 32.375000000000000 11.875000000000000 29.625000000000000 15.250000000000000 29.625000000000000 z" />
<glyph unicode="" horiz-adv-x="5.75" d="M14.625000000000000 -26.000000000000000 C20.875000000000000 -26.000000000000000 25.750000000000000 -21.125000000000000 25.750000000000000 -14.875000000000000 C25.750000000000000 -8.750000000000000 20.625000000000000 -4.625000000000000 14.250000000000000 -5.750000000000000 C15.375000000000000 -3.833333333333314 16.781250000000000 -1.437500000000000 17.625000000000000 0.000000000000000 C15.781250000000000 0.000000000000000 12.093750000000000 0.000000000000000 10.250000000000000 0.000000000000000 C8.968750000000000 -2.312500000000000 6.406250000000000 -6.937500000000000 5.125000000000000 -9.250000000000000 C6.531250000000000 -10.062500000000000 9.343750000000000 -11.687500000000000 10.750000000000000 -12.500000000000000 C15.000000000000000 -10.250000000000000 18.500000000000000 -11.375000000000000 18.500000000000000 -14.875000000000000 C18.500000000000000 -17.000000000000000 16.750000000000000 -18.750000000000000 14.625000000000000 -18.750000000000000 C12.875000000000000 -18.750000000000000 10.750000000000000 -17.500000000000000 9.875000000000000 -16.000000000000000 C7.541666666666686 -16.750000000000000 4.625000000000000 -17.687500000000000 2.875000000000000 -18.250000000000000 C4.375000000000000 -22.500000000000000 9.500000000000000 -26.000000000000000 14.625000000000000 -26.000000000000000 z" />
<glyph unicode="" horiz-adv-x="27.125" d="M8.375000000000000 37.500000000000000 C10.250000000000000 37.500000000000000 14.000000000000000 37.500000000000000 15.875000000000000 37.500000000000000 C15.875000000000000 46.875000000000000 15.875000000000000 65.625000000000000 15.875000000000000 75.000000000000000 C12.687500000000000 75.000000000000000 6.312500000000000 75.000000000000000 3.125000000000000 75.000000000000000 C3.125000000000000 73.343750000000000 3.125000000000000 70.031250000000000 3.125000000000000 68.375000000000000 C4.437500000000000 68.375000000000000 7.062500000000000 68.375000000000000 8.375000000000000 68.375000000000000 C8.375000000000000 60.656250000000000 8.375000000000000 45.218750000000000 8.375000000000000 37.500000000000000 z" />
<glyph unicode="" horiz-adv-x="38.25" d="M19.125000000000000 44.375000000000000 C28.375000000000000 44.375000000000000 35.750000000000000 51.250000000000000 35.750000000000000 60.000000000000000 C35.750000000000000 68.625000000000000 28.375000000000000 75.625000000000000 19.125000000000000 75.625000000000000 C9.875000000000000 75.625000000000000 2.625000000000000 68.625000000000000 2.625000000000000 60.000000000000000 C2.625000000000000 51.250000000000000 9.875000000000000 44.375000000000000 19.125000000000000 44.375000000000000 zM19.125000000000000 51.000000000000000 C14.125000000000000 51.000000000000000 10.125000000000000 55.000000000000000 10.125000000000000 60.000000000000000 C10.125000000000000 65.000000000000000 14.125000000000000 69.000000000000000 19.125000000000000 69.000000000000000 C24.125000000000000 69.000000000000000 28.125000000000000 65.000000000000000 28.125000000000000 60.000000000000000 C28.125000000000000 55.000000000000000 24.125000000000000 51.000000000000000 19.125000000000000 51.000000000000000 z" />
<glyph unicode="" horiz-adv-x="73.75" d="M10.875000000000000 9.500000000000000 C14.000000000000000 9.500000000000000 20.250000000000000 9.500000000000000 23.375000000000000 9.500000000000000 C27.187500000000000 14.093750000000000 34.812500000000000 23.281250000000000 38.625000000000000 27.875000000000000 C34.812500000000000 32.468750000000000 27.187500000000000 41.656250000000000 23.375000000000000 46.250000000000000 C20.250000000000000 46.250000000000000 14.000000000000000 46.250000000000000 10.875000000000000 46.250000000000000 C14.687500000000000 41.656250000000000 22.312500000000000 32.468750000000000 26.125000000000000 27.875000000000000 C22.312500000000000 23.281250000000000 14.687500000000000 14.093750000000000 10.875000000000000 9.500000000000000 zM34.875000000000000 9.500000000000000 C38.031250000000000 9.500000000000000 44.343750000000000 9.500000000000000 47.500000000000000 9.500000000000000 C51.281250000000000 14.093750000000000 58.843750000000000 23.281250000000000 62.625000000000000 27.875000000000000 C58.843750000000000 32.468750000000000 51.281250000000000 41.656250000000000 47.500000000000000 46.250000000000000 C44.343750000000000 46.250000000000000 38.031250000000000 46.250000000000000 34.875000000000000 46.250000000000000 C38.656250000000000 41.656250000000000 46.218750000000000 32.468750000000000 50.000000000000000 27.875000000000000 C46.218750000000000 23.281250000000000 38.656250000000000 14.093750000000000 34.875000000000000 9.500000000000000 z" />
<glyph unicode="" horiz-adv-x="104.875" d="M21.375000000000000 25.000000000000000 C21.375000000000000 37.500000000000000 21.375000000000000 62.500000000000000 21.375000000000000 75.000000000000000 C16.812500000000000 75.000000000000000 7.687500000000000 75.000000000000000 3.125000000000000 75.000000000000000 C3.125000000000000 72.656250000000000 3.125000000000000 67.968750000000000 3.125000000000000 65.625000000000000 C5.000000000000000 65.625000000000000 8.750000000000000 65.625000000000000 10.625000000000000 65.625000000000000 C10.625000000000000 55.468750000000000 10.625000000000000 35.156250000000000 10.625000000000000 25.000000000000000 C13.312500000000000 25.000000000000000 18.687500000000000 25.000000000000000 21.375000000000000 25.000000000000000 zM67.625000000000000 74.750000000000000 C54.562500000000000 56.000000000000000 28.437500000000000 18.500000000000000 15.375000000000000 -0.250000000000000 C18.437500000000000 -0.250000000000000 24.562500000000000 -0.250000000000000 27.625000000000000 -0.250000000000000 C40.687500000000000 18.500000000000000 66.812500000000000 56.000000000000000 79.875000000000000 74.750000000000000 C76.812500000000000 74.750000000000000 70.687500000000000 74.750000000000000 67.625000000000000 74.750000000000000 zM99.750000000000000 20.000000000000000 C98.718750000000000 20.000000000000000 96.656250000000000 20.000000000000000 95.625000000000000 20.000000000000000 C95.625000000000000 27.500000000000000 95.625000000000000 42.500000000000000 95.625000000000000 50.000000000000000 C92.250000000000000 50.000000000000000 85.500000000000000 50.000000000000000 82.125000000000000 50.000000000000000 C76.906250000000000 40.125000000000000 66.468750000000000 20.375000000000000 61.250000000000000 10.500000000000000 C67.187500000000000 10.500000000000000 79.062500000000000 10.500000000000000 85.000000000000000 10.500000000000000 C85.000000000000000 7.875000000000000 85.000000000000000 2.625000000000000 85.000000000000000 0.000000000000000 C87.656250000000000 0.000000000000000 92.968750000000000 0.000000000000000 95.625000000000000 0.000000000000000 C95.625000000000000 2.625000000000000 95.625000000000000 7.875000000000000 95.625000000000000 10.500000000000000 C96.656250000000000 10.500000000000000 98.718750000000000 10.500000000000000 99.750000000000000 10.500000000000000 C99.750000000000000 12.875000000000000 99.750000000000000 17.625000000000000 99.750000000000000 20.000000000000000 zM74.750000000000000 20.000000000000000 C77.312500000000000 25.093750000000000 82.437500000000000 35.281250000000000 85.000000000000000 40.375000000000000 C85.000000000000000 35.281250000000000 85.000000000000000 25.093750000000000 85.000000000000000 20.000000000000000 C82.437500000000000 20.000000000000000 77.312500000000000 20.000000000000000 74.750000000000000 20.000000000000000 z" />
<glyph unicode="" horiz-adv-x="102.5" d="M21.375000000000000 25.000000000000000 C21.375000000000000 37.500000000000000 21.375000000000000 62.500000000000000 21.375000000000000 75.000000000000000 C16.812500000000000 75.000000000000000 7.687500000000000 75.000000000000000 3.125000000000000 75.000000000000000 C3.125000000000000 72.656250000000000 3.125000000000000 67.968750000000000 3.125000000000000 65.625000000000000 C5.000000000000000 65.625000000000000 8.750000000000000 65.625000000000000 10.625000000000000 65.625000000000000 C10.625000000000000 55.468750000000000 10.625000000000000 35.156250000000000 10.625000000000000 25.000000000000000 C13.312500000000000 25.000000000000000 18.687500000000000 25.000000000000000 21.375000000000000 25.000000000000000 zM65.875000000000000 74.875000000000000 C52.812500000000000 56.125000000000000 26.687500000000000 18.625000000000000 13.625000000000000 -0.125000000000000 C16.687500000000000 -0.125000000000000 22.812500000000000 -0.125000000000000 25.875000000000000 -0.125000000000000 C38.937500000000000 18.625000000000000 65.062500000000000 56.125000000000000 78.125000000000000 74.875000000000000 C75.062500000000000 74.875000000000000 68.937500000000000 74.875000000000000 65.875000000000000 74.875000000000000 zM81.125000000000000 9.250000000000000 C83.093750000000000 11.687500000000000 87.031250000000000 16.562500000000000 89.000000000000000 19.000000000000000 C95.625000000000000 27.250000000000000 97.625000000000000 30.500000000000000 97.625000000000000 36.375000000000000 C97.625000000000000 44.625000000000000 90.875000000000000 50.625000000000000 82.250000000000000 50.625000000000000 C73.125000000000000 50.625000000000000 65.125000000000000 44.125000000000000 66.000000000000000 34.750000000000000 C69.458333333333314 34.750000000000000 73.781250000000000 34.750000000000000 76.375000000000000 34.750000000000000 C75.875000000000000 38.750000000000000 78.375000000000000 41.125000000000000 81.750000000000000 41.125000000000000 C84.250000000000000 41.125000000000000 87.250000000000000 39.875000000000000 87.250000000000000 35.375000000000000 C87.250000000000000 33.125000000000000 86.625000000000000 31.625000000000000 81.375000000000000 25.000000000000000 C74.875000000000000 16.625000000000000 66.750000000000000 6.156250000000000 61.875000000000000 -0.125000000000000 C71.031250000000000 -0.125000000000000 89.343750000000000 -0.125000000000000 98.500000000000000 -0.125000000000000 C98.500000000000000 2.218750000000000 98.500000000000000 6.906250000000000 98.500000000000000 9.250000000000000 C94.156250000000000 9.250000000000000 85.468750000000000 9.250000000000000 81.125000000000000 9.250000000000000 z" />
<glyph unicode="" horiz-adv-x="107.125" d="M38.625000000000000 40.875000000000000 C38.625000000000000 50.250000000000000 31.875000000000000 55.250000000000000 23.000000000000000 55.250000000000000 C28.333333333333314 61.916666666666657 35.000000000000000 70.250000000000000 39.000000000000000 75.250000000000000 C30.531250000000000 75.250000000000000 13.593750000000000 75.250000000000000 5.125000000000000 75.250000000000000 C5.125000000000000 72.906250000000000 5.125000000000000 68.218750000000000 5.125000000000000 65.875000000000000 C9.062500000000000 65.875000000000000 16.937500000000000 65.875000000000000 20.875000000000000 65.875000000000000 C17.375000000000000 61.281250000000000 10.375000000000000 52.093750000000000 6.875000000000000 47.500000000000000 C7.000000000000000 47.500000000000000 7.250000000000000 47.500000000000000 7.375000000000000 47.500000000000000 C11.000000000000000 47.500000000000000 18.250000000000000 47.500000000000000 21.875000000000000 47.500000000000000 C25.500000000000000 47.500000000000000 28.125000000000000 45.000000000000000 28.125000000000000 41.125000000000000 C28.125000000000000 37.375000000000000 25.625000000000000 34.625000000000000 21.625000000000000 34.625000000000000 C18.500000000000000 34.625000000000000 15.750000000000000 36.625000000000000 15.750000000000000 39.250000000000000 C12.208333333333314 39.208333333333371 7.781250000000000 39.156250000000000 5.125000000000000 39.125000000000000 C5.125000000000000 31.000000000000000 12.625000000000000 24.625000000000000 21.625000000000000 24.625000000000000 C31.250000000000000 24.625000000000000 38.625000000000000 31.875000000000000 38.625000000000000 40.875000000000000 zM73.125000000000000 74.750000000000000 C60.062500000000000 56.000000000000000 33.937500000000000 18.500000000000000 20.875000000000000 -0.250000000000000 C23.937500000000000 -0.250000000000000 30.062500000000000 -0.250000000000000 33.125000000000000 -0.250000000000000 C46.187500000000000 18.500000000000000 72.312500000000000 56.000000000000000 85.375000000000000 74.750000000000000 C82.312500000000000 74.750000000000000 76.187500000000000 74.750000000000000 73.125000000000000 74.750000000000000 zM102.000000000000000 20.000000000000000 C100.968750000000000 20.000000000000000 98.906250000000000 20.000000000000000 97.875000000000000 20.000000000000000 C97.875000000000000 27.500000000000000 97.875000000000000 42.500000000000000 97.875000000000000 50.000000000000000 C94.500000000000000 50.000000000000000 87.750000000000000 50.000000000000000 84.375000000000000 50.000000000000000 C79.156250000000000 40.125000000000000 68.718750000000000 20.375000000000000 63.500000000000000 10.500000000000000 C69.437500000000000 10.500000000000000 81.312500000000000 10.500000000000000 87.250000000000000 10.500000000000000 C87.250000000000000 7.875000000000000 87.250000000000000 2.625000000000000 87.250000000000000 0.000000000000000 C89.906250000000000 0.000000000000000 95.218750000000000 0.000000000000000 97.875000000000000 0.000000000000000 C97.875000000000000 2.625000000000000 97.875000000000000 7.875000000000000 97.875000000000000 10.500000000000000 C98.906250000000000 10.500000000000000 100.968750000000000 10.500000000000000 102.000000000000000 10.500000000000000 C102.000000000000000 12.875000000000000 102.000000000000000 17.625000000000000 102.000000000000000 20.000000000000000 zM77.000000000000000 20.000000000000000 C79.562500000000000 25.093750000000000 84.687500000000000 35.281250000000000 87.250000000000000 40.375000000000000 C87.250000000000000 35.281250000000000 87.250000000000000 25.093750000000000 87.250000000000000 20.000000000000000 C84.687500000000000 20.000000000000000 79.562500000000000 20.000000000000000 77.000000000000000 20.000000000000000 z" />
<glyph unicode="" horiz-adv-x="65.875" d="M30.500000000000000 34.500000000000000 C35.375000000000000 34.500000000000000 39.250000000000000 38.250000000000000 39.250000000000000 43.250000000000000 C39.250000000000000 48.125000000000000 35.375000000000000 52.000000000000000 30.500000000000000 52.000000000000000 C25.625000000000000 52.000000000000000 21.750000000000000 48.125000000000000 21.750000000000000 43.250000000000000 C21.750000000000000 38.250000000000000 25.625000000000000 34.500000000000000 30.500000000000000 34.500000000000000 zM30.875000000000000 -26.000000000000000 C46.375000000000000 -26.000000000000000 57.375000000000000 -14.250000000000000 55.875000000000000 0.750000000000000 C51.166666666666686 0.750000000000000 45.281250000000000 0.750000000000000 41.750000000000000 0.750000000000000 C43.125000000000000 -6.500000000000000 38.250000000000000 -12.250000000000000 30.875000000000000 -12.250000000000000 C24.750000000000000 -12.250000000000000 19.875000000000000 -8.000000000000000 19.875000000000000 -2.625000000000000 C19.875000000000000 12.500000000000000 38.000000000000000 2.000000000000000 38.000000000000000 23.250000000000000 C38.000000000000000 24.916666666666686 38.000000000000000 27.000000000000000 38.000000000000000 28.250000000000000 C34.437500000000000 28.250000000000000 27.312500000000000 28.250000000000000 23.750000000000000 28.250000000000000 C23.750000000000000 26.781250000000000 23.750000000000000 23.843750000000000 23.750000000000000 22.375000000000000 C23.750000000000000 13.000000000000000 5.875000000000000 18.250000000000000 5.875000000000000 -2.625000000000000 C5.875000000000000 -15.750000000000000 16.875000000000000 -26.000000000000000 30.875000000000000 -26.000000000000000 z" />
<glyph unicode="" horiz-adv-x="69.25" d="M40.875000000000000 81.375000000000000 C38.125000000000000 86.031250000000000 32.625000000000000 95.343750000000000 29.875000000000000 100.000000000000000 C26.093750000000000 100.000000000000000 18.531250000000000 100.000000000000000 14.750000000000000 100.000000000000000 C18.656250000000000 95.343750000000000 26.468750000000000 86.031250000000000 30.375000000000000 81.375000000000000 C33.000000000000000 81.375000000000000 38.250000000000000 81.375000000000000 40.875000000000000 81.375000000000000 zM53.250000000000000 0.000000000000000 C57.656250000000000 0.000000000000000 66.468750000000000 0.000000000000000 70.875000000000000 0.000000000000000 C64.125000000000000 18.750000000000000 50.625000000000000 56.250000000000000 43.875000000000000 75.000000000000000 C39.250000000000000 75.000000000000000 30.000000000000000 75.000000000000000 25.375000000000000 75.000000000000000 C18.625000000000000 56.250000000000000 5.125000000000000 18.750000000000000 -1.625000000000000 0.000000000000000 C2.781250000000000 0.000000000000000 11.593750000000000 0.000000000000000 16.000000000000000 0.000000000000000 C17.156250000000000 3.531250000000000 19.468750000000000 10.593750000000000 20.625000000000000 14.125000000000000 C27.625000000000000 14.125000000000000 41.625000000000000 14.125000000000000 48.625000000000000 14.125000000000000 C49.781250000000000 10.593750000000000 52.093750000000000 3.531250000000000 53.250000000000000 0.000000000000000 zM25.000000000000000 27.875000000000000 C27.406250000000000 35.312500000000000 32.218750000000000 50.187500000000000 34.625000000000000 57.625000000000000 C37.031250000000000 50.187500000000000 41.843750000000000 35.312500000000000 44.250000000000000 27.875000000000000 C39.437500000000000 27.875000000000000 29.812500000000000 27.875000000000000 25.000000000000000 27.875000000000000 z" />
<glyph unicode="" horiz-adv-x="69.25" d="M54.750000000000000 100.000000000000000 C50.968750000000000 100.000000000000000 43.406250000000000 100.000000000000000 39.625000000000000 100.000000000000000 C36.875000000000000 95.343750000000000 31.375000000000000 86.031250000000000 28.625000000000000 81.375000000000000 C31.250000000000000 81.375000000000000 36.500000000000000 81.375000000000000 39.125000000000000 81.375000000000000 C43.031250000000000 86.031250000000000 50.843750000000000 95.343750000000000 54.750000000000000 100.000000000000000 zM53.250000000000000 0.000000000000000 C57.656250000000000 0.000000000000000 66.468750000000000 0.000000000000000 70.875000000000000 0.000000000000000 C64.125000000000000 18.750000000000000 50.625000000000000 56.250000000000000 43.875000000000000 75.000000000000000 C39.250000000000000 75.000000000000000 30.000000000000000 75.000000000000000 25.375000000000000 75.000000000000000 C18.625000000000000 56.250000000000000 5.125000000000000 18.750000000000000 -1.625000000000000 0.000000000000000 C2.781250000000000 0.000000000000000 11.593750000000000 0.000000000000000 16.000000000000000 0.000000000000000 C17.156250000000000 3.531250000000000 19.468750000000000 10.593750000000000 20.625000000000000 14.125000000000000 C27.625000000000000 14.125000000000000 41.625000000000000 14.125000000000000 48.625000000000000 14.125000000000000 C49.781250000000000 10.593750000000000 52.093750000000000 3.531250000000000 53.250000000000000 0.000000000000000 zM25.000000000000000 27.875000000000000 C27.406250000000000 35.312500000000000 32.218750000000000 50.187500000000000 34.625000000000000 57.625000000000000 C37.031250000000000 50.187500000000000 41.843750000000000 35.312500000000000 44.250000000000000 27.875000000000000 C39.437500000000000 27.875000000000000 29.812500000000000 27.875000000000000 25.000000000000000 27.875000000000000 z" />
<glyph unicode="" horiz-adv-x="69.25" d="M34.750000000000000 91.125000000000000 C36.531250000000000 88.687500000000000 40.093750000000000 83.812500000000000 41.875000000000000 81.375000000000000 C44.375000000000000 81.375000000000000 49.375000000000000 81.375000000000000 51.875000000000000 81.375000000000000 C48.781250000000000 86.031250000000000 42.593750000000000 95.343750000000000 39.500000000000000 100.000000000000000 C37.093750000000000 100.000000000000000 32.281250000000000 100.000000000000000 29.875000000000000 100.000000000000000 C26.812500000000000 95.343750000000000 20.687500000000000 86.031250000000000 17.625000000000000 81.375000000000000 C20.125000000000000 81.375000000000000 25.125000000000000 81.375000000000000 27.625000000000000 81.375000000000000 C29.406250000000000 83.812500000000000 32.968750000000000 88.687500000000000 34.750000000000000 91.125000000000000 zM53.250000000000000 0.000000000000000 C57.656250000000000 0.000000000000000 66.468750000000000 0.000000000000000 70.875000000000000 0.000000000000000 C64.125000000000000 18.750000000000000 50.625000000000000 56.250000000000000 43.875000000000000 75.000000000000000 C39.250000000000000 75.000000000000000 30.000000000000000 75.000000000000000 25.375000000000000 75.000000000000000 C18.625000000000000 56.250000000000000 5.125000000000000 18.750000000000000 -1.625000000000000 0.000000000000000 C2.781250000000000 0.000000000000000 11.593750000000000 0.000000000000000 16.000000000000000 0.000000000000000 C17.156250000000000 3.531250000000000 19.468750000000000 10.593750000000000 20.625000000000000 14.125000000000000 C27.625000000000000 14.125000000000000 41.625000000000000 14.125000000000000 48.625000000000000 14.125000000000000 C49.781250000000000 10.593750000000000 52.093750000000000 3.531250000000000 53.250000000000000 0.000000000000000 zM25.000000000000000 27.875000000000000 C27.406250000000000 35.312500000000000 32.218750000000000 50.187500000000000 34.625000000000000 57.625000000000000 C37.031250000000000 50.187500000000000 41.843750000000000 35.312500000000000 44.250000000000000 27.875000000000000 C39.437500000000000 27.875000000000000 29.812500000000000 27.875000000000000 25.000000000000000 27.875000000000000 z" />
<glyph unicode="" horiz-adv-x="69.25" d="M28.625000000000000 88.500000000000000 C29.500000000000000 88.500000000000000 30.125000000000000 88.125000000000000 30.875000000000000 87.000000000000000 C33.625000000000000 83.000000000000000 36.875000000000000 81.125000000000000 41.000000000000000 81.125000000000000 C49.125000000000000 81.125000000000000 53.125000000000000 88.000000000000000 53.125000000000000 97.000000000000000 C49.958333333333314 97.000000000000000 46.000000000000000 97.000000000000000 43.625000000000000 97.000000000000000 C43.625000000000000 92.875000000000000 43.000000000000000 90.250000000000000 40.750000000000000 90.250000000000000 C39.750000000000000 90.250000000000000 39.125000000000000 90.875000000000000 38.625000000000000 91.875000000000000 C36.375000000000000 95.000000000000000 33.000000000000000 97.750000000000000 28.250000000000000 97.750000000000000 C20.750000000000000 97.750000000000000 16.250000000000000 91.125000000000000 16.250000000000000 81.750000000000000 C19.416666666666686 81.750000000000000 23.375000000000000 81.750000000000000 25.750000000000000 81.750000000000000 C25.750000000000000 85.625000000000000 26.500000000000000 88.500000000000000 28.625000000000000 88.500000000000000 zM53.250000000000000 0.000000000000000 C57.656250000000000 0.000000000000000 66.468750000000000 0.000000000000000 70.875000000000000 0.000000000000000 C64.125000000000000 18.750000000000000 50.625000000000000 56.250000000000000 43.875000000000000 75.000000000000000 C39.250000000000000 75.000000000000000 30.000000000000000 75.000000000000000 25.375000000000000 75.000000000000000 C18.625000000000000 56.250000000000000 5.125000000000000 18.750000000000000 -1.625000000000000 0.000000000000000 C2.781250000000000 0.000000000000000 11.593750000000000 0.000000000000000 16.000000000000000 0.000000000000000 C17.156250000000000 3.531250000000000 19.468750000000000 10.593750000000000 20.625000000000000 14.125000000000000 C27.625000000000000 14.125000000000000 41.625000000000000 14.125000000000000 48.625000000000000 14.125000000000000 C49.781250000000000 10.593750000000000 52.093750000000000 3.531250000000000 53.250000000000000 0.000000000000000 zM25.000000000000000 27.875000000000000 C27.406250000000000 35.312500000000000 32.218750000000000 50.187500000000000 34.625000000000000 57.625000000000000 C37.031250000000000 50.187500000000000 41.843750000000000 35.312500000000000 44.250000000000000 27.875000000000000 C39.437500000000000 27.875000000000000 29.812500000000000 27.875000000000000 25.000000000000000 27.875000000000000 z" />
<glyph unicode="" horiz-adv-x="69.25" d="M24.250000000000000 83.750000000000000 C28.375000000000000 83.750000000000000 31.875000000000000 87.250000000000000 31.875000000000000 91.250000000000000 C31.875000000000000 95.500000000000000 28.375000000000000 98.750000000000000 24.250000000000000 98.750000000000000 C20.250000000000000 98.750000000000000 16.750000000000000 95.500000000000000 16.750000000000000 91.250000000000000 C16.750000000000000 87.250000000000000 20.250000000000000 83.750000000000000 24.250000000000000 83.750000000000000 zM45.250000000000000 83.750000000000000 C49.500000000000000 83.750000000000000 52.750000000000000 87.250000000000000 52.750000000000000 91.250000000000000 C52.750000000000000 95.500000000000000 49.500000000000000 98.750000000000000 45.250000000000000 98.750000000000000 C41.250000000000000 98.750000000000000 37.750000000000000 95.500000000000000 37.750000000000000 91.250000000000000 C37.750000000000000 87.250000000000000 41.250000000000000 83.750000000000000 45.250000000000000 83.750000000000000 zM53.250000000000000 0.000000000000000 C57.656250000000000 0.000000000000000 66.468750000000000 0.000000000000000 70.875000000000000 0.000000000000000 C64.125000000000000 18.750000000000000 50.625000000000000 56.250000000000000 43.875000000000000 75.000000000000000 C39.250000000000000 75.000000000000000 30.000000000000000 75.000000000000000 25.375000000000000 75.000000000000000 C18.625000000000000 56.250000000000000 5.125000000000000 18.750000000000000 -1.625000000000000 0.000000000000000 C2.781250000000000 0.000000000000000 11.593750000000000 0.000000000000000 16.000000000000000 0.000000000000000 C17.156250000000000 3.531250000000000 19.468750000000000 10.593750000000000 20.625000000000000 14.125000000000000 C27.625000000000000 14.125000000000000 41.625000000000000 14.125000000000000 48.625000000000000 14.125000000000000 C49.781250000000000 10.593750000000000 52.093750000000000 3.531250000000000 53.250000000000000 0.000000000000000 zM25.000000000000000 27.875000000000000 C27.406250000000000 35.312500000000000 32.218750000000000 50.187500000000000 34.625000000000000 57.625000000000000 C37.031250000000000 50.187500000000000 41.843750000000000 35.312500000000000 44.250000000000000 27.875000000000000 C39.437500000000000 27.875000000000000 29.812500000000000 27.875000000000000 25.000000000000000 27.875000000000000 z" />
<glyph unicode="" horiz-adv-x="69.25" d="M53.250000000000000 0.000000000000000 C57.656250000000000 0.000000000000000 66.468750000000000 0.000000000000000 70.875000000000000 0.000000000000000 C64.312500000000000 18.218750000000000 51.187500000000000 54.656250000000000 44.625000000000000 72.875000000000000 C46.375000000000000 75.125000000000000 47.500000000000000 77.875000000000000 47.500000000000000 80.875000000000000 C47.500000000000000 87.500000000000000 42.125000000000000 92.875000000000000 35.500000000000000 92.875000000000000 C28.750000000000000 92.875000000000000 23.250000000000000 87.500000000000000 23.250000000000000 80.875000000000000 C23.250000000000000 78.500000000000000 24.000000000000000 76.250000000000000 25.125000000000000 74.375000000000000 C16.208333333333371 49.583333333333314 5.062500000000000 18.593750000000000 -1.625000000000000 0.000000000000000 C2.781250000000000 0.000000000000000 11.593750000000000 0.000000000000000 16.000000000000000 0.000000000000000 C17.156250000000000 3.531250000000000 19.468750000000000 10.593750000000000 20.625000000000000 14.125000000000000 C27.625000000000000 14.125000000000000 41.625000000000000 14.125000000000000 48.625000000000000 14.125000000000000 C49.781250000000000 10.593750000000000 52.093750000000000 3.531250000000000 53.250000000000000 0.000000000000000 zM35.500000000000000 86.625000000000000 C38.625000000000000 86.625000000000000 41.125000000000000 83.875000000000000 41.125000000000000 80.875000000000000 C41.125000000000000 77.375000000000000 38.625000000000000 75.125000000000000 35.500000000000000 75.125000000000000 C32.250000000000000 75.125000000000000 30.000000000000000 77.375000000000000 30.000000000000000 80.875000000000000 C30.000000000000000 83.875000000000000 32.250000000000000 86.625000000000000 35.500000000000000 86.625000000000000 zM25.000000000000000 27.875000000000000 C27.406250000000000 35.312500000000000 32.218750000000000 50.187500000000000 34.625000000000000 57.625000000000000 C37.031250000000000 50.187500000000000 41.843750000000000 35.312500000000000 44.250000000000000 27.875000000000000 C39.437500000000000 27.875000000000000 29.812500000000000 27.875000000000000 25.000000000000000 27.875000000000000 z" />
<glyph unicode="" horiz-adv-x="95.25" d="M90.125000000000000 60.875000000000000 C90.125000000000000 64.406250000000000 90.125000000000000 71.468750000000000 90.125000000000000 75.000000000000000 C74.687500000000000 75.000000000000000 43.812500000000000 75.000000000000000 28.375000000000000 75.000000000000000 C20.875000000000000 56.250000000000000 5.875000000000000 18.750000000000000 -1.625000000000000 0.000000000000000 C2.968750000000000 0.000000000000000 12.156250000000000 0.000000000000000 16.750000000000000 0.000000000000000 C18.218750000000000 3.906250000000000 21.156250000000000 11.718750000000000 22.625000000000000 15.625000000000000 C28.250000000000000 15.625000000000000 39.500000000000000 15.625000000000000 45.125000000000000 15.625000000000000 C45.125000000000000 11.718750000000000 45.125000000000000 3.906250000000000 45.125000000000000 0.000000000000000 C56.375000000000000 0.000000000000000 78.875000000000000 0.000000000000000 90.125000000000000 0.000000000000000 C90.125000000000000 3.531250000000000 90.125000000000000 10.593750000000000 90.125000000000000 14.125000000000000 C82.875000000000000 14.125000000000000 68.375000000000000 14.125000000000000 61.125000000000000 14.125000000000000 C61.125000000000000 18.375000000000000 61.125000000000000 26.875000000000000 61.125000000000000 31.125000000000000 C67.312500000000000 31.125000000000000 79.687500000000000 31.125000000000000 85.875000000000000 31.125000000000000 C85.875000000000000 34.312500000000000 85.875000000000000 40.687500000000000 85.875000000000000 43.875000000000000 C79.687500000000000 43.875000000000000 67.312500000000000 43.875000000000000 61.125000000000000 43.875000000000000 C61.125000000000000 48.125000000000000 61.125000000000000 56.625000000000000 61.125000000000000 60.875000000000000 C68.375000000000000 60.875000000000000 82.875000000000000 60.875000000000000 90.125000000000000 60.875000000000000 zM27.375000000000000 28.375000000000000 C30.468750000000000 36.562500000000000 36.656250000000000 52.937500000000000 39.750000000000000 61.125000000000000 C41.093750000000000 61.125000000000000 43.781250000000000 61.125000000000000 45.125000000000000 61.125000000000000 C45.125000000000000 52.937500000000000 45.125000000000000 36.562500000000000 45.125000000000000 28.375000000000000 C40.687500000000000 28.375000000000000 31.812500000000000 28.375000000000000 27.375000000000000 28.375000000000000 z" />
<glyph unicode="" horiz-adv-x="80.5" d="M43.125000000000000 15.125000000000000 C30.500000000000000 15.125000000000000 20.875000000000000 24.875000000000000 20.875000000000000 37.500000000000000 C20.875000000000000 50.125000000000000 30.500000000000000 59.875000000000000 43.125000000000000 59.875000000000000 C52.000000000000000 59.875000000000000 59.375000000000000 55.125000000000000 63.000000000000000 48.000000000000000 C67.750000000000000 50.458333333333343 73.687500000000000 53.531250000000000 77.250000000000000 55.375000000000000 C70.875000000000000 67.625000000000000 58.000000000000000 76.000000000000000 43.125000000000000 76.000000000000000 C21.875000000000000 76.000000000000000 4.625000000000000 58.750000000000000 4.625000000000000 37.500000000000000 C4.625000000000000 17.625000000000000 19.750000000000000 1.250000000000000 39.125000000000000 -0.750000000000000 C37.541666666666686 -3.583333333333314 35.562500000000000 -7.125000000000000 34.375000000000000 -9.250000000000000 C35.781250000000000 -10.062500000000000 38.593750000000000 -11.687500000000000 40.000000000000000 -12.500000000000000 C44.250000000000000 -10.250000000000000 47.750000000000000 -11.375000000000000 47.750000000000000 -14.875000000000000 C47.750000000000000 -17.000000000000000 46.000000000000000 -18.750000000000000 43.875000000000000 -18.750000000000000 C42.125000000000000 -18.750000000000000 40.000000000000000 -17.500000000000000 39.125000000000000 -16.000000000000000 C36.791666666666686 -16.750000000000000 33.875000000000000 -17.687500000000000 32.125000000000000 -18.250000000000000 C33.625000000000000 -22.500000000000000 38.750000000000000 -26.000000000000000 43.875000000000000 -26.000000000000000 C50.125000000000000 -26.000000000000000 55.000000000000000 -21.125000000000000 55.000000000000000 -14.875000000000000 C55.000000000000000 -8.750000000000000 49.875000000000000 -4.625000000000000 43.500000000000000 -5.750000000000000 C44.458333333333314 -4.125000000000000 45.656250000000000 -2.093750000000000 46.375000000000000 -0.875000000000000 C59.875000000000000 0.250000000000000 71.375000000000000 8.250000000000000 77.250000000000000 19.625000000000000 C72.500000000000000 22.083333333333314 66.562500000000000 25.156250000000000 63.000000000000000 27.000000000000000 C59.375000000000000 19.875000000000000 52.000000000000000 15.125000000000000 43.125000000000000 15.125000000000000 z" />
<glyph unicode="" horiz-adv-x="58.25" d="M36.750000000000000 81.375000000000000 C34.000000000000000 86.031250000000000 28.500000000000000 95.343750000000000 25.750000000000000 100.000000000000000 C21.968750000000000 100.000000000000000 14.406250000000000 100.000000000000000 10.625000000000000 100.000000000000000 C14.531250000000000 95.343750000000000 22.343750000000000 86.031250000000000 26.250000000000000 81.375000000000000 C28.875000000000000 81.375000000000000 34.125000000000000 81.375000000000000 36.750000000000000 81.375000000000000 zM53.125000000000000 60.500000000000000 C53.125000000000000 64.125000000000000 53.125000000000000 71.375000000000000 53.125000000000000 75.000000000000000 C41.843750000000000 75.000000000000000 19.281250000000000 75.000000000000000 8.000000000000000 75.000000000000000 C8.000000000000000 56.250000000000000 8.000000000000000 18.750000000000000 8.000000000000000 0.000000000000000 C19.281250000000000 0.000000000000000 41.843750000000000 0.000000000000000 53.125000000000000 0.000000000000000 C53.125000000000000 3.625000000000000 53.125000000000000 10.875000000000000 53.125000000000000 14.500000000000000 C45.968750000000000 14.500000000000000 31.656250000000000 14.500000000000000 24.500000000000000 14.500000000000000 C24.500000000000000 18.437500000000000 24.500000000000000 26.312500000000000 24.500000000000000 30.250000000000000 C30.625000000000000 30.250000000000000 42.875000000000000 30.250000000000000 49.000000000000000 30.250000000000000 C49.000000000000000 33.875000000000000 49.000000000000000 41.125000000000000 49.000000000000000 44.750000000000000 C42.875000000000000 44.750000000000000 30.625000000000000 44.750000000000000 24.500000000000000 44.750000000000000 C24.500000000000000 48.687500000000000 24.500000000000000 56.562500000000000 24.500000000000000 60.500000000000000 C31.656250000000000 60.500000000000000 45.968750000000000 60.500000000000000 53.125000000000000 60.500000000000000 z" />
</font>
</defs>
</svg>
