<?xml version="1.0" encoding="utf-8"?>
<!-- Generator: Adobe Illustrator 15.1.0, SVG Export Plug-In . SVG Version: 6.00 Build 0)  -->
<!DOCTYPE svg PUBLIC "-//W3C//DTD SVG 1.1//EN" "http://www.w3.org/Graphics/SVG/1.1/DTD/svg11.dtd">
<svg version="1.1" id="Layer_1" xmlns="http://www.w3.org/2000/svg" xmlns:xlink="http://www.w3.org/1999/xlink" x="0px" y="0px"
	 width="572.667px" height="302.999px" viewBox="0 0 572.667 302.999" enable-background="new 0 0 572.667 302.999"
	 xml:space="preserve">
<path fill="none" stroke="#010101" stroke-width="2" stroke-miterlimit="10" d="M398.683,47.858h16.32l-8.16-23.904L398.683,47.858z
	 M415.291,1.682l25.632,67.776h-18.336l-3.168-9.024h-25.248l-3.072,9.024h-17.088l24.384-67.776H415.291z"/>
<g>
	<path fill="none" stroke="#010101" stroke-width="2" stroke-miterlimit="10" d="M464.153,15.794v17.088l5.856,0.096
		c3.647,0,6.224-0.063,7.728-0.192c1.503-0.127,2.799-0.447,3.888-0.96c1.6-0.704,2.751-1.743,3.456-3.12
		c0.703-1.376,1.057-2.832,1.057-4.368c0-1.791-0.336-3.216-1.009-4.271c-0.672-1.056-1.425-1.872-2.256-2.448
		c-1.217-0.768-2.816-1.263-4.8-1.488c-1.984-0.223-4.384-0.336-7.2-0.336H464.153z M473.466,1.682c5.246,0,9.248,0.256,12,0.768
		c2.175,0.384,4.224,0.976,6.144,1.776c1.92,0.801,3.679,1.905,5.28,3.312c2.175,1.92,3.902,4.305,5.184,7.152
		c1.28,2.848,1.92,6.033,1.92,9.552c0,4.481-1.169,8.512-3.504,12.096c-2.337,3.585-5.745,6.081-10.224,7.488l13.823,25.632h-18.815
		L472.985,46.61h-8.832v22.848h-17.28V1.682H473.466z"/>
	<polygon fill="none" stroke="#010101" stroke-width="2" stroke-miterlimit="10" points="570.903,55.154 570.903,69.458 
		516.951,69.458 516.951,1.586 568.023,1.586 568.023,15.218 534.039,15.218 534.039,26.162 560.919,26.162 560.919,39.506 
		534.039,39.506 534.039,55.154 	"/>
	<path fill="none" stroke="#010101" stroke-width="2" stroke-miterlimit="10" d="M149.952,130.898v18.72h6.912
		c2.304,0,4.095-0.063,5.376-0.192c1.279-0.127,2.4-0.383,3.36-0.768c3.327-1.344,4.992-4.16,4.992-8.447
		c0-2.176-0.369-3.92-1.104-5.232c-0.736-1.311-1.744-2.256-3.023-2.832c-1.281-0.576-2.64-0.928-4.08-1.057
		c-1.44-0.127-3.345-0.191-5.712-0.191H149.952z M149.952,164.402v20.256h-17.28v-67.775h26.88c4.607,0,8.4,0.24,11.376,0.72
		s5.774,1.616,8.399,3.407c2.112,1.41,3.793,3.058,5.041,4.944c1.247,1.888,2.159,3.761,2.735,5.616
		c0.576,1.857,0.927,3.473,1.056,4.848c0.128,1.377,0.192,2.674,0.192,3.889c0,2.816-0.24,5.265-0.72,7.344
		c-0.48,2.08-1.104,3.84-1.872,5.279c-0.769,1.44-1.488,2.561-2.16,3.361s-1.392,1.551-2.16,2.256
		c-2.561,2.304-5.376,3.791-8.448,4.463c-3.071,0.673-7.521,1.138-13.344,1.393H149.952z"/>
	<path fill="none" stroke="#010101" stroke-width="2" stroke-miterlimit="10" d="M215.999,130.994v17.088l5.855,0.096
		c3.648,0,6.224-0.062,7.729-0.191c1.503-0.127,2.799-0.447,3.888-0.96c1.599-0.704,2.751-1.743,3.456-3.12
		c0.703-1.376,1.056-2.832,1.056-4.368c0-1.79-0.336-3.216-1.008-4.271s-1.425-1.872-2.256-2.448
		c-1.217-0.768-2.817-1.264-4.8-1.488c-1.984-0.223-4.385-0.336-7.2-0.336H215.999z M225.311,116.883c5.247,0,9.248,0.256,12,0.768
		c2.175,0.384,4.224,0.977,6.144,1.775c1.92,0.802,3.68,1.906,5.28,3.312c2.175,1.92,3.903,4.305,5.185,7.152
		c1.279,2.848,1.92,6.033,1.92,9.552c0,4.481-1.169,8.512-3.504,12.096c-2.338,3.585-5.745,6.081-10.225,7.488l13.824,25.632
		h-18.816l-12.288-22.848h-8.831v22.848h-17.28v-67.775H225.311z"/>
	<polygon fill="none" stroke="#010101" stroke-width="2" stroke-miterlimit="10" points="286.269,184.658 268.604,184.658 
		268.988,116.883 286.652,116.883 	"/>
	<path fill="none" stroke="#010101" stroke-width="2" stroke-miterlimit="10" d="M321.787,157.971
		c-4.032-0.705-7.44-1.504-10.224-2.4c-2.784-0.895-5.266-2.271-7.44-4.128c-1.984-1.728-3.521-3.854-4.608-6.384
		c-1.089-2.527-1.632-5.199-1.632-8.017c0-3.647,0.703-6.831,2.112-9.552c1.407-2.72,3.344-4.943,5.808-6.672
		c2.463-1.729,5.312-3.008,8.544-3.84c3.231-0.831,6.672-1.248,10.32-1.248c5.631,0,10.992,1.025,16.08,3.072
		c5.088,2.049,9.264,5.312,12.528,9.791l-11.809,9.408l-0.096-0.096c-0.96-1.152-1.889-2.16-2.784-3.023
		c-0.896-0.865-2.016-1.744-3.36-2.641c-1.344-0.896-2.896-1.632-4.655-2.208c-1.762-0.576-3.729-0.864-5.904-0.864
		c-2.625,0-4.864,0.514-6.72,1.536c-1.857,1.024-2.784,2.466-2.784,4.32c0,1.407,0.543,2.592,1.632,3.552
		c0.769,0.705,1.951,1.248,3.552,1.633c1.6,0.383,4.287,0.863,8.064,1.439c2.943,0.447,5.103,0.783,6.479,1.008
		c1.375,0.225,2.464,0.4,3.265,0.527c0.799,0.13,1.471,0.273,2.016,0.433c0.543,0.161,1.263,0.369,2.16,0.624
		c1.407,0.449,2.751,0.977,4.032,1.584c1.278,0.609,2.654,1.602,4.128,2.977c1.471,1.377,2.703,3.231,3.695,5.567
		c0.992,2.337,1.488,5.201,1.488,8.593c0,4.031-0.815,7.521-2.448,10.463c-1.632,2.944-3.872,5.328-6.72,7.152
		s-6.016,3.153-9.504,3.984c-3.489,0.83-7.089,1.248-10.8,1.248c-2.625,0-5.313-0.225-8.064-0.672
		c-2.752-0.448-5.52-1.185-8.304-2.209c-2.784-1.022-5.424-2.414-7.92-4.176c-2.496-1.76-4.608-3.888-6.336-6.384l12.864-10.176
		c0.896,1.216,1.823,2.319,2.783,3.312c0.96,0.993,2.144,1.969,3.553,2.928c1.407,0.961,3.135,1.744,5.184,2.353
		c2.048,0.609,4.352,0.912,6.912,0.912c1.599,0,3.2-0.144,4.8-0.433c1.6-0.287,2.977-0.815,4.128-1.584
		c1.729-1.215,2.593-2.75,2.593-4.607c0-1.087-0.257-1.982-0.769-2.688c-0.768-1.152-1.824-1.92-3.168-2.305
		c-1.344-0.384-3.969-0.863-7.872-1.439h-0.288L321.787,157.971z"/>
	<path fill="none" stroke="#010101" stroke-width="2" stroke-miterlimit="10" d="M386.154,136.082
		c-2.722,3.648-4.08,8.353-4.08,14.112c0,6.209,1.344,11.231,4.032,15.072c2.688,3.84,6.56,5.76,11.615,5.76
		c2.432,0,4.544-0.447,6.336-1.345c1.791-0.896,3.231-1.951,4.32-3.168c1.791-1.92,3.056-4.223,3.792-6.911
		c0.735-2.688,1.104-5.599,1.104-8.736c0-6.015-1.297-10.911-3.889-14.688c-2.592-3.774-6.479-5.664-11.664-5.664
		C392.729,130.578,388.874,132.435,386.154,136.082z M411.834,118.467c4.224,1.824,7.791,4.367,10.704,7.631
		c2.912,3.265,5.136,7.024,6.672,11.281c1.536,4.256,2.304,8.783,2.304,13.584c0,1.92-0.129,3.936-0.384,6.047
		c-0.256,2.112-0.784,4.369-1.584,6.769c-0.801,2.399-2.001,4.849-3.6,7.344c-1.601,2.496-3.648,4.833-6.145,7.009
		c-3.456,2.943-7.056,4.961-10.8,6.047c-3.744,1.088-7.504,1.633-11.28,1.633c-1.728,0-3.504-0.113-5.328-0.336
		c-1.823-0.225-3.84-0.672-6.048-1.344s-4.448-1.695-6.72-3.072c-2.272-1.377-4.433-3.152-6.48-5.328
		c-3.071-3.327-5.393-7.167-6.96-11.52c-1.568-4.352-2.352-8.896-2.352-13.633c0-1.982,0.144-4.031,0.432-6.144
		s0.831-4.384,1.632-6.816c0.801-2.432,2-4.88,3.601-7.344c1.599-2.463,3.647-4.752,6.144-6.864
		c3.456-2.943,7.071-4.959,10.849-6.048c3.775-1.087,7.519-1.632,11.231-1.632C402.906,115.73,407.61,116.643,411.834,118.467z"/>
	<polygon fill="none" stroke="#010101" stroke-width="2" stroke-miterlimit="10" points="500.537,116.883 500.537,184.658 
		483.641,184.658 459.161,144.051 459.161,184.658 442.937,184.658 442.937,116.883 459.545,116.883 484.217,157.395 
		484.217,116.883 	"/>
	<path fill="none" stroke="#010101" stroke-width="2" stroke-miterlimit="10" d="M535.864,157.971
		c-4.032-0.705-7.44-1.504-10.225-2.4c-2.784-0.895-5.265-2.271-7.439-4.128c-1.984-1.728-3.521-3.854-4.608-6.384
		c-1.089-2.527-1.632-5.199-1.632-8.017c0-3.647,0.703-6.831,2.111-9.552c1.407-2.72,3.345-4.943,5.809-6.672
		c2.463-1.729,5.312-3.008,8.544-3.84c3.23-0.831,6.672-1.248,10.32-1.248c5.631,0,10.991,1.025,16.079,3.072
		c5.089,2.049,9.265,5.312,12.528,9.791l-11.808,9.408l-0.096-0.096c-0.961-1.152-1.89-2.16-2.784-3.023
		c-0.897-0.865-2.017-1.744-3.36-2.641s-2.896-1.632-4.656-2.208c-1.761-0.576-3.729-0.864-5.903-0.864
		c-2.625,0-4.864,0.514-6.721,1.536c-1.856,1.024-2.784,2.466-2.784,4.32c0,1.407,0.543,2.592,1.633,3.552
		c0.768,0.705,1.951,1.248,3.552,1.633c1.599,0.383,4.287,0.863,8.063,1.439c2.943,0.447,5.104,0.783,6.48,1.008
		c1.375,0.225,2.463,0.4,3.264,0.527c0.799,0.13,1.472,0.273,2.017,0.433c0.543,0.161,1.263,0.369,2.159,0.624
		c1.407,0.449,2.752,0.977,4.032,1.584c1.279,0.609,2.655,1.602,4.128,2.977c1.472,1.377,2.703,3.231,3.696,5.567
		c0.992,2.337,1.488,5.201,1.488,8.593c0,4.031-0.816,7.521-2.448,10.463c-1.632,2.944-3.873,5.328-6.72,7.152
		c-2.849,1.824-6.017,3.153-9.504,3.984c-3.489,0.83-7.089,1.248-10.801,1.248c-2.625,0-5.312-0.225-8.063-0.672
		c-2.752-0.448-5.521-1.185-8.304-2.209c-2.784-1.022-5.425-2.414-7.92-4.176c-2.496-1.76-4.608-3.888-6.337-6.384l12.864-10.176
		c0.896,1.216,1.824,2.319,2.784,3.312c0.96,0.993,2.143,1.969,3.552,2.928c1.407,0.961,3.136,1.744,5.185,2.353
		c2.048,0.609,4.351,0.912,6.912,0.912c1.599,0,3.199-0.144,4.8-0.433c1.599-0.287,2.976-0.815,4.128-1.584
		c1.728-1.215,2.592-2.75,2.592-4.607c0-1.087-0.256-1.982-0.768-2.688c-0.769-1.152-1.824-1.92-3.168-2.305
		c-1.345-0.384-3.97-0.863-7.872-1.439h-0.288L535.864,157.971z"/>
	<path fill="none" stroke="#010101" stroke-width="2" stroke-miterlimit="10" d="M24.141,251.282
		c-2.721,3.647-4.08,8.352-4.08,14.112c0,6.209,1.344,11.231,4.032,15.071c2.688,3.841,6.56,5.761,11.616,5.761
		c2.431,0,4.544-0.447,6.336-1.345c1.791-0.896,3.231-1.952,4.32-3.168c1.791-1.92,3.056-4.224,3.792-6.911
		c0.735-2.688,1.104-5.6,1.104-8.736c0-6.016-1.296-10.911-3.888-14.688c-2.592-3.774-6.48-5.664-11.664-5.664
		C30.717,245.778,26.861,247.634,24.141,251.282z M49.821,233.666c4.224,1.824,7.791,4.368,10.704,7.632
		c2.912,3.265,5.136,7.024,6.672,11.28c1.536,4.257,2.304,8.784,2.304,13.584c0,1.92-0.129,3.936-0.384,6.048
		c-0.256,2.112-0.784,4.368-1.584,6.769c-0.801,2.399-2.001,4.848-3.6,7.344c-1.6,2.496-3.648,4.833-6.144,7.008
		c-3.456,2.943-7.056,4.961-10.8,6.048s-7.504,1.632-11.28,1.632c-1.728,0-3.504-0.112-5.328-0.336
		c-1.824-0.225-3.84-0.672-6.048-1.344c-2.208-0.672-4.449-1.695-6.72-3.072c-2.272-1.376-4.433-3.152-6.48-5.328
		c-3.072-3.326-5.393-7.166-6.96-11.52c-1.569-4.352-2.352-8.895-2.352-13.633c0-1.982,0.144-4.031,0.432-6.144
		s0.831-4.383,1.632-6.815c0.8-2.432,1.999-4.881,3.6-7.344c1.599-2.463,3.648-4.752,6.144-6.865
		c3.456-2.942,7.071-4.959,10.848-6.047c3.776-1.088,7.519-1.633,11.232-1.633C40.893,230.93,45.597,231.842,49.821,233.666z"/>
	<path fill="none" stroke="#010101" stroke-width="2" stroke-miterlimit="10" d="M98.013,271.73v14.304h14.88
		c1.599,0,3.024-0.111,4.272-0.336c1.248-0.224,2.319-0.752,3.216-1.584c1.471-1.28,2.208-3.039,2.208-5.28
		c0-2.432-0.897-4.255-2.688-5.472c-0.96-0.704-2.049-1.152-3.264-1.345c-1.217-0.191-2.592-0.287-4.128-0.287H98.013z
		 M98.013,246.29v12h14.112h0.096c1.152-0.063,2.144-0.144,2.976-0.24c0.831-0.096,1.68-0.319,2.544-0.672
		c0.864-0.351,1.584-0.927,2.16-1.728c0.576-0.799,0.864-1.84,0.864-3.12c0-1.407-0.305-2.56-0.912-3.456
		c-0.609-0.896-1.377-1.536-2.304-1.92c-0.929-0.385-1.841-0.624-2.736-0.721c-0.897-0.096-1.92-0.144-3.072-0.144H98.013z
		 M110.493,232.082c5.695,0,10.224,0.305,13.584,0.912c3.36,0.609,6.255,2.064,8.688,4.368c1.599,1.473,2.832,3.312,3.696,5.52
		c0.864,2.208,1.296,4.593,1.296,7.152c0,3.328-0.897,6.272-2.688,8.832c-1.473,1.985-3.009,3.297-4.608,3.937
		c-1.601,0.639-3.36,1.088-5.28,1.344c1.215,0.063,2.335,0.225,3.36,0.479c1.023,0.256,2.175,0.802,3.456,1.632
		c1.599,0.961,2.928,2.112,3.984,3.456c1.056,1.345,1.855,2.704,2.4,4.08c0.543,1.377,0.912,2.722,1.104,4.032
		c0.192,1.312,0.288,2.544,0.288,3.695c0,2.944-0.545,5.633-1.632,8.064c-1.089,2.369-2.496,4.258-4.224,5.664
		c-1.728,1.408-3.585,2.434-5.568,3.072c-1.984,0.64-3.905,1.056-5.76,1.248c-1.857,0.191-3.969,0.288-6.336,0.288h-0.096H80.925
		v-67.776H110.493z"/>
	<path fill="none" stroke="#010101" stroke-width="2" stroke-miterlimit="10" d="M171.835,273.17
		c-4.031-0.704-7.439-1.503-10.224-2.4c-2.784-0.895-5.265-2.271-7.44-4.127c-1.984-1.729-3.521-3.855-4.608-6.385
		c-1.089-2.527-1.632-5.199-1.632-8.016c0-3.648,0.703-6.831,2.112-9.553c1.407-2.72,3.344-4.943,5.808-6.672
		c2.463-1.728,5.312-3.008,8.544-3.84c3.23-0.831,6.672-1.248,10.32-1.248c5.631,0,10.991,1.025,16.08,3.072
		c5.088,2.049,9.264,5.312,12.527,9.792l-11.808,9.408l-0.097-0.097c-0.96-1.151-1.889-2.16-2.783-3.023
		c-0.897-0.864-2.017-1.743-3.36-2.641c-1.344-0.896-2.897-1.631-4.656-2.207c-1.761-0.576-3.729-0.864-5.903-0.864
		c-2.625,0-4.864,0.513-6.721,1.536s-2.783,2.465-2.783,4.32c0,1.407,0.543,2.592,1.632,3.551c0.768,0.705,1.95,1.248,3.552,1.633
		c1.599,0.384,4.287,0.863,8.063,1.439c2.943,0.448,5.104,0.784,6.48,1.008c1.375,0.226,2.463,0.4,3.264,0.528
		c0.8,0.13,1.472,0.273,2.017,0.433c0.543,0.16,1.263,0.369,2.16,0.623c1.406,0.449,2.751,0.978,4.031,1.584
		c1.279,0.609,2.655,1.602,4.128,2.977c1.472,1.377,2.703,3.232,3.696,5.568c0.992,2.337,1.488,5.201,1.488,8.592
		c0,4.031-0.816,7.521-2.448,10.464c-1.632,2.944-3.873,5.328-6.72,7.151c-2.849,1.824-6.017,3.154-9.504,3.984
		c-3.489,0.831-7.09,1.248-10.801,1.248c-2.625,0-5.312-0.225-8.063-0.672c-2.752-0.448-5.52-1.184-8.304-2.208
		c-2.784-1.022-5.424-2.415-7.92-4.176s-4.608-3.888-6.336-6.384l12.864-10.176c0.896,1.215,1.824,2.319,2.784,3.312
		c0.96,0.993,2.143,1.968,3.552,2.928c1.407,0.96,3.135,1.744,5.185,2.353c2.048,0.608,4.351,0.912,6.912,0.912
		c1.599,0,3.199-0.145,4.8-0.433c1.599-0.288,2.976-0.815,4.128-1.584c1.728-1.215,2.592-2.751,2.592-4.608
		c0-1.086-0.256-1.982-0.768-2.688c-0.769-1.152-1.824-1.92-3.168-2.304c-1.345-0.384-3.97-0.864-7.872-1.44h-0.288L171.835,273.17z
		"/>
	<path fill="none" stroke="#010101" stroke-width="2" stroke-miterlimit="10" d="M236.202,251.282
		c-2.721,3.647-4.08,8.352-4.08,14.112c0,6.209,1.344,11.231,4.032,15.071c2.688,3.841,6.56,5.761,11.616,5.761
		c2.431,0,4.544-0.447,6.336-1.345c1.791-0.896,3.23-1.952,4.319-3.168c1.791-1.92,3.057-4.224,3.792-6.911
		c0.735-2.688,1.104-5.6,1.104-8.736c0-6.016-1.296-10.911-3.888-14.688c-2.593-3.774-6.48-5.664-11.664-5.664
		C242.778,245.778,238.922,247.634,236.202,251.282z M261.882,233.666c4.225,1.824,7.791,4.368,10.704,7.632
		c2.912,3.265,5.137,7.024,6.672,11.28c1.536,4.257,2.305,8.784,2.305,13.584c0,1.92-0.129,3.936-0.384,6.048
		c-0.257,2.112-0.784,4.368-1.584,6.769c-0.802,2.399-2.002,4.848-3.601,7.344c-1.6,2.496-3.647,4.833-6.144,7.008
		c-3.456,2.943-7.057,4.961-10.801,6.048c-3.743,1.087-7.504,1.632-11.279,1.632c-1.729,0-3.504-0.112-5.328-0.336
		c-1.824-0.225-3.84-0.672-6.048-1.344s-4.449-1.695-6.721-3.072c-2.271-1.376-4.433-3.152-6.479-5.328
		c-3.072-3.326-5.394-7.166-6.96-11.52c-1.569-4.352-2.353-8.895-2.353-13.633c0-1.982,0.145-4.031,0.433-6.144
		s0.831-4.383,1.632-6.815c0.8-2.432,1.999-4.881,3.6-7.344c1.6-2.463,3.648-4.752,6.145-6.865c3.456-2.942,7.07-4.959,10.848-6.047
		c3.776-1.088,7.52-1.633,11.232-1.633C252.954,230.93,257.658,231.842,261.882,233.666z"/>
	<polygon fill="none" stroke="#010101" stroke-width="2" stroke-miterlimit="10" points="338.778,284.689 338.778,299.858 
		292.985,299.858 292.985,231.986 310.554,231.986 310.554,284.689 	"/>
	<polygon fill="none" stroke="#010101" stroke-width="2" stroke-miterlimit="10" points="400.984,285.554 400.984,299.857 
		347.032,299.857 347.032,231.986 398.104,231.986 398.104,245.617 364.12,245.617 364.12,256.562 391,256.562 391,269.906 
		364.12,269.906 364.12,285.554 	"/>
	<polygon fill="none" stroke="#010101" stroke-width="2" stroke-miterlimit="10" points="438.616,246.386 438.616,299.857 
		421.145,299.857 421.145,246.386 403.096,246.386 403.096,232.082 456.568,232.082 456.568,246.386 	"/>
	<polygon fill="none" stroke="#010101" stroke-width="2" stroke-miterlimit="10" points="516.952,285.554 516.952,299.857 
		463,299.857 463,231.986 514.071,231.986 514.071,245.617 480.088,245.617 480.088,256.562 506.968,256.562 506.968,269.906 
		480.088,269.906 480.088,285.554 	"/>
	<path fill="none" stroke="#010101" stroke-width="2" stroke-miterlimit="10" d="M552.472,299.858h-15.456v-16.417h15.456V299.858z
		 M539.896,272.21c0-1.344,0.031-2.335,0.096-2.976c0.063-0.64,0.192-1.185,0.384-1.633c0.128-0.447,0.271-0.8,0.433-1.056
		c0.159-0.255,0.415-0.56,0.768-0.912c0.352-0.351,0.96-0.896,1.824-1.632c0.864-0.734,1.872-1.616,3.024-2.641l0.096-0.096
		c3.774-3.199,6.223-5.486,7.344-6.863c1.119-1.377,1.68-3.12,1.68-5.232c0-2.111-0.768-3.902-2.304-5.376
		c-1.536-1.472-3.585-2.208-6.144-2.208c-3.201,0-5.904,1.121-8.112,3.359c-2.208,2.242-3.568,5.121-4.08,8.641l-13.152-6.24
		c0.831-2.304,1.888-4.512,3.168-6.623c1.279-2.113,3.104-3.969,5.473-5.568c2.111-1.344,4.688-2.4,7.728-3.168
		c3.039-0.769,6.063-1.152,9.072-1.152c7.423,0,13.312,1.775,17.664,5.328c4.352,3.552,6.528,8.111,6.528,13.68
		c0,2.368-0.385,4.449-1.152,6.24c-0.768,1.793-1.776,3.312-3.024,4.561s-2.544,2.289-3.888,3.119
		c-1.344,0.832-2.945,1.729-4.8,2.688c-2.049,1.089-3.633,2.032-4.752,2.832c-1.121,0.801-1.937,1.616-2.448,2.448
		c-0.513,0.832-0.849,1.728-1.008,2.688c-0.161,0.96-0.24,2.305-0.24,4.032h-10.176V272.21z"/>
</g>
</svg>
