<?xml version="1.0" encoding="utf-8"?>
<!-- Generator: Adobe Illustrator 15.1.0, SVG Export Plug-In . SVG Version: 6.00 Build 0)  -->
<!DOCTYPE svg PUBLIC "-//W3C//DTD SVG 1.1//EN" "http://www.w3.org/Graphics/SVG/1.1/DTD/svg11.dtd">
<svg version="1.1" id="Layer_1" xmlns="http://www.w3.org/2000/svg" xmlns:xlink="http://www.w3.org/1999/xlink" x="0px" y="0px"
	 width="229.952px" height="31.324px" viewBox="0 0 229.952 31.324" enable-background="new 0 0 229.952 31.324"
	 xml:space="preserve">
<g opacity="0.5">
	<g>
		<defs>
			<rect id="SVGID_1_" x="49.363" y="-0.326" width="31" height="31"/>
		</defs>
		<clipPath id="SVGID_2_">
			<use xlink:href="#SVGID_1_"  overflow="visible"/>
		</clipPath>
		<path clip-path="url(#SVGID_2_)" fill="none" stroke="#010101" stroke-miterlimit="10" stroke-dasharray="6,6" d="M79.863,25.174
			c0,2.762-2.239,5-5,5h-20c-2.761,0-5-2.238-5-5v-20c0-2.762,2.239-5,5-5h20c2.761,0,5,2.238,5,5V25.174z"/>
	</g>
</g>
<g opacity="0.5">
	<g>
		<defs>
			<rect id="SVGID_3_" x="99.226" y="0.324" width="30.999" height="31"/>
		</defs>
		<clipPath id="SVGID_4_">
			<use xlink:href="#SVGID_3_"  overflow="visible"/>
		</clipPath>
		<path clip-path="url(#SVGID_4_)" fill="none" stroke="#010101" stroke-miterlimit="10" stroke-dasharray="6,6" d="M129.725,25.824
			c0,2.762-2.238,5-5,5h-20c-2.761,0-5-2.238-5-5v-20c0-2.762,2.239-5,5-5h20c2.762,0,5,2.238,5,5V25.824z"/>
	</g>
</g>
<g opacity="0.5">
	<g>
		<defs>
			<rect id="SVGID_5_" x="149.448" y="0.324" width="31" height="31"/>
		</defs>
		<clipPath id="SVGID_6_">
			<use xlink:href="#SVGID_5_"  overflow="visible"/>
		</clipPath>
		<path clip-path="url(#SVGID_6_)" fill="none" stroke="#010101" stroke-miterlimit="10" stroke-dasharray="6,6" d="M179.948,25.824
			c0,2.762-2.238,5-5,5h-20c-2.762,0-5-2.238-5-5v-20c0-2.762,2.238-5,5-5h20c2.762,0,5,2.238,5,5V25.824z"/>
	</g>
</g>
<g opacity="0.5">
	<g>
		<defs>
			<rect id="SVGID_7_" x="198.952" y="0.324" width="31" height="31"/>
		</defs>
		<clipPath id="SVGID_8_">
			<use xlink:href="#SVGID_7_"  overflow="visible"/>
		</clipPath>
		<path clip-path="url(#SVGID_8_)" fill="none" stroke="#010101" stroke-miterlimit="10" stroke-dasharray="6,6" d="M229.452,25.824
			c0,2.762-2.24,5-5,5h-20c-2.762,0-5-2.238-5-5v-20c0-2.762,2.238-5,5-5h20c2.76,0,5,2.238,5,5V25.824z"/>
	</g>
</g>
<g opacity="0.5">
	<g>
		<defs>
			<rect id="SVGID_9_" width="31" height="31"/>
		</defs>
		<clipPath id="SVGID_10_">
			<use xlink:href="#SVGID_9_"  overflow="visible"/>
		</clipPath>
		<path clip-path="url(#SVGID_10_)" fill="none" stroke="#010101" stroke-miterlimit="10" stroke-dasharray="6,6" d="M30.5,25.499
			c0,2.763-2.239,5-5,5h-20c-2.761,0-5-2.237-5-5v-20c0-2.762,2.239-5,5-5h20c2.761,0,5,2.238,5,5V25.499z"/>
	</g>
</g>
</svg>
